<?xml version="1.0" encoding="UTF-8"?>
<svg width="759px" height="685px" viewBox="0 0 759 685" version="1.1" xmlns="http://www.w3.org/2000/svg" xmlns:xlink="http://www.w3.org/1999/xlink">
    <!-- Generator: Sketch 47.1 (45422) - http://www.bohemiancoding.com/sketch -->
    <title>Slice 1</title>
    <desc>Created with Sketch.</desc>
    <defs></defs>
    <g id="Page-1" stroke="none" stroke-width="1" fill="none" fill-rule="evenodd">
        <g id="trasera-02" transform="translate(7.000000, 6.000000)" stroke="#000000" stroke-width="13.3509934">
            <path d="M224.984064,558.933404 C225.048602,551.123975 220.917589,543.880003 214.16215,539.956547 C207.406711,536.033092 199.064992,536.033092 192.309553,539.956547 C185.554114,543.880003 181.423101,551.123975 181.487639,558.933404" id="Shape"></path>
            <rect id="Rectangle-path" x="242.392131" y="331.736583" width="264.415637" height="58.2207152" rx="16.3742517"></rect>
            <path d="M375.644731,104.51306 L375.644731,0.866331126" id="Shape"></path>
            <path d="M101.806773,287.099762 L84.6524801,298.913907 C74.8752877,298.91461 65.8980609,304.313305 61.3170618,312.947285 L43.8659562,345.848583 C38.0999872,356.71865 34.6535485,368.666532 33.7446414,380.936477 L30.4233068,425.748344 L30.4233068,477.174887 L54.6506474,570.112636 C57.4261063,580.757007 67.0423428,588.185213 78.0469124,588.18543 L113.283038,561.731179 L638.14741,561.731179 L667.818297,588.18543 L670.900697,588.18543 C681.905267,588.185213 691.521503,580.757007 694.296962,570.112636 L718.524303,477.174887 L718.524303,425.748344 L715.202968,380.936477 C714.294061,368.666532 710.847622,356.71865 705.081653,345.848583 L687.630548,312.947285 C683.049549,304.313305 674.072322,298.91461 664.295129,298.913907 L645.972878,283.388185" id="Shape"></path>
            <path d="M38.5856574,511.102728 L38.5856574,649.748344 C38.6215197,662.022715 48.5671123,671.964153 60.8466135,672 L101.410528,672 C113.690029,671.964153 123.635622,662.022715 123.671484,649.748344 L123.671484,560.741722" id="Shape"></path>
            <path d="M98.0669323,297.473483 C130.46998,206.717881 154.235777,160.459656 173.038865,140.413881 C178.831498,134.440752 186.842208,131.135325 195.163287,131.284768 L553.784323,131.284768 C562.105402,131.135325 570.116111,134.440752 575.908745,140.413881 C594.711833,160.459656 618.72992,206.903311 651.132968,297.658914" id="Shape"></path>
            <path d="M710.361952,511.102728 L710.361952,649.748344 C710.32609,662.022715 700.380497,671.964153 688.100996,672 L647.537082,672 C635.25758,671.964153 625.311988,662.022715 625.276125,649.748344 L625.276125,560.741722" id="Shape"></path>
            <path d="M680.186484,300.397351 C645.830408,199.31698 606.536853,146.313536 583.523476,121.780344 C572.728039,110.310043 557.665287,103.816542 541.910329,103.84106 L207.037281,103.84106 C191.282323,103.816542 176.219571,110.310043 165.424133,121.780344 C142.410757,146.313536 103.117201,199.31698 68.7611255,300.397351" id="Shape"></path>
            <path d="M30.4233068,463.576159 L718.524303,463.576159" id="Shape"></path>
            <path d="M30.4233068,415.933881 L718.524303,415.933881" id="Shape"></path>
            <path d="M119.106504,241.675232 L625.276125,241.675232" id="Shape"></path>
            <path d="M94.3449004,308.077139 L656.946046,308.077139" id="Shape"></path>
            <path d="M124.337829,241.675232 L172.151394,415.933881" id="Shape"></path>
            <path d="M625.276125,241.675232 L572.560697,415.933881" id="Shape"></path>
            <path d="M95.8289641,385.695364 L95.8289641,308.077139" id="Shape"></path>
            <path d="M647.051793,385.695364 L647.051793,308.077139" id="Shape"></path>
            <path d="M582.742859,385.695364 L678.711325,385.695364 C678.711325,345.716556 645.987719,269.986755 605.992201,269.986755 L142.964313,269.986755 C102.968795,269.986755 70.2451892,345.716556 70.2451892,385.695364 L164.236882,385.695364" id="Shape"></path>
            <path d="M18.9663347,298.913907 L68.7774502,298.913907 L56.3454482,254.179179 C54.8001083,248.617424 49.7341436,244.768268 43.9594522,244.768212 L27.1895319,244.768212 C16.4187288,244.767517 7.02988385,252.0949 4.41805777,262.539868 L1.05813745,275.976901 C-0.321340747,281.490315 0.916930685,287.331555 4.41495551,291.811861 C7.91298033,296.292168 13.2807294,298.911989 18.9663347,298.913907 L18.9663347,298.913907 Z" id="Shape"></path>
            <path d="M726.033665,298.913907 L676.22255,298.913907 L688.654552,254.179179 C690.199892,248.617424 695.265856,244.768268 701.040548,244.768212 L717.810468,244.768212 C728.581271,244.767517 737.970116,252.0949 740.581942,262.539868 L743.941863,275.976901 C745.321341,281.490315 744.083069,287.331555 740.585044,291.811861 C737.08702,296.292168 731.719271,298.911989 726.033665,298.913907 L726.033665,298.913907 Z" id="Shape"></path>
        </g>
    </g>
</svg>