<?xml version="1.0" encoding="UTF-8"?>
<svg width="243px" height="472px" viewBox="0 0 243 472" version="1.1" xmlns="http://www.w3.org/2000/svg" xmlns:xlink="http://www.w3.org/1999/xlink">
    <title>Untitled</title>
    <g id="Page-1" stroke="none" stroke-width="1" fill="none" fill-rule="evenodd">
        <g transform="translate(6.000000, 6.000000)" stroke="#000000" stroke-width="11.0262172">
            <path d="M182.44435,74.563521 L227.883975,85.9423234 C230.023475,86.4780719 231.32285,88.649988 230.787975,90.7916048 L228.766725,98.8870539 C228.233225,101.028671 226.066225,102.331545 223.926725,101.795796 L183.2226,91.6028024" id="Stroke-1"></path>
            <path d="M48.4636625,74.563521 L3.0240375,85.9423234 C0.8845375,86.4780719 -0.4148375,88.649988 0.1200375,90.7916048 L2.1412875,98.8870539 C2.6747875,101.028671 4.8417875,102.331545 6.9812875,101.795796 L47.6854125,91.6028024" id="Stroke-3"></path>
            <path d="M137.21565,100.538922 L146.693525,76.6533533 C147.43465,74.7858084 147.240775,72.6772455 146.173775,70.9763473 L142.46265,65.0638323 C141.1509,62.9731737 138.740525,61.8438323 136.298525,62.1743713 L114.8719,65.0748503 L93.445275,62.1743713 C91.003275,61.8438323 88.5929,62.9731737 87.28115,65.0638323 L83.570025,70.9763473 C82.503025,72.6772455 82.30915,74.7858084 83.050275,76.6533533 L92.52815,100.538922 L114.8719,102.37479 L137.21565,100.538922 Z" id="Stroke-5"></path>
            <path d="M164.759925,52.8739701 C162.1708,51.577982 159.30805,50.9210359 156.410925,50.9595988 C154.285175,50.988521 152.184175,50.511994 150.19455,49.7641497 L123.9953,39.9237305 C118.111675,37.7146287 111.6313,37.7146287 105.74905,39.9237305 L79.548425,49.7641497 C77.560175,50.511994 75.459175,50.988521 73.333425,50.9595988 C70.434925,50.9210359 67.572175,51.577982 64.984425,52.8739701 L48.872175,60.9432515 L48.872175,97.7845689 L114.872175,101.916305 L180.872175,97.7845689 L180.872175,60.9432515 L164.759925,52.8739701 Z" id="Stroke-7"></path>
            <path d="M99.40315,301.272455 L99.40315,394.92515 C99.40315,395.682635 98.7844,396.302395 98.02815,396.302395 L84.65215,396.302395 C83.897275,396.302395 83.27715,395.682635 83.27715,394.92515 L83.27715,304.026946" id="Stroke-9"></path>
            <path d="M187.703863,204.362299 L171.445863,124.555054 C170.869738,121.733078 169.397113,119.174156 167.246613,117.259784 L165.811113,115.983078 C162.649988,113.170743 158.342113,112.263138 154.207488,113.147329 C152.260488,113.563257 150.250238,113.534335 148.315613,113.06194 C139.914363,111.004335 116.627363,105.313557 114.879738,105.016072 C114.872863,105.014695 114.870113,105.014695 114.863238,105.016072 C113.116988,105.313557 89.8286125,111.004335 81.4287375,113.06194 C79.4941125,113.534335 77.4838625,113.563257 75.5368625,113.147329 C71.4022375,112.263138 67.0929875,113.170743 63.9318625,115.983078 L62.4963625,117.259784 C60.3472375,119.174156 58.8746125,121.733078 58.2984875,124.555054 L42.0391125,204.362299 C41.7833625,205.623856 41.7118625,206.915713 41.8259875,208.196551 L52.0477375,322.119545 C52.2182375,324.022898 52.9566125,325.829844 54.1679875,327.307629 L66.3119875,342.111641 C67.2181125,343.214814 68.3139875,344.174754 69.6009875,344.789006 C76.1666125,347.926371 83.2464875,343.034395 83.2464875,336.024216 L83.2464875,274.348407 C83.2464875,274.275413 83.3454875,274.249246 83.3798625,274.313976 L93.1629875,292.132778 C96.3763625,297.983317 102.512988,301.616491 109.178988,301.616491 L114.871488,301.616491 L120.565363,301.616491 C127.231363,301.616491 133.366613,297.983317 136.579988,292.132778 L146.364488,274.313976 C146.398863,274.249246 146.496488,274.275413 146.496488,274.348407 L146.496488,335.864455 C146.496488,341.089725 150.538988,345.653916 155.754363,345.750323 C158.765613,345.805413 161.492238,344.484635 163.303113,342.27691 L175.580488,327.307629 C176.790488,325.829844 177.527488,324.022898 177.697988,322.119545 L187.918363,208.196551 C188.032488,206.915713 187.960988,205.623856 187.703863,204.362299 Z" id="Stroke-11"></path>
            <path d="M130.34065,301.272455 L130.34065,394.92515 C130.34065,395.682635 130.9594,396.302395 131.71565,396.302395 L145.09165,396.302395 C145.846525,396.302395 146.46665,395.682635 146.46665,394.92515 L146.46665,304.026946" id="Stroke-13"></path>
            <path d="M146.53045,275.856629 L146.0272,242.71597 L127.1237,232.141479 C119.6162,227.942257 110.47245,227.932617 102.9567,232.115311 L83.908825,242.71597 L83.24745,275.856629" id="Stroke-15"></path>
            <path d="M114.8719,460 L114.8719,460 C106.364775,460 99.40315,453.028383 99.40315,444.505988 L99.40315,336.392216 C99.40315,327.86982 106.364775,320.898204 114.8719,320.898204 C123.379025,320.898204 130.34065,327.86982 130.34065,336.392216 L130.34065,444.505988 C130.34065,453.028383 123.379025,460 114.8719,460 Z" id="Stroke-17"></path>
            <path d="M48.4636625,168.020647 L75.2472875,201.683281 C79.7050375,207.284539 86.0685375,211.043042 93.1195375,212.237114 L109.916538,215.081126 C113.125788,215.625138 116.405162,215.62376 119.614412,215.078371 L136.301412,212.245377 C143.360663,211.045796 149.728288,207.276275 154.183288,201.661246 L180.872037,168.020647" id="Stroke-19"></path>
            <path d="M64.48035,113.392754 L109.325975,196.597665 C111.294975,200.442934 118.1686,200.371317 120.009725,196.487485 L164.85535,113.060838" id="Stroke-21"></path>
            <path d="M176.14135,99.36 L179.376725,107.904431 C180.094475,109.802275 181.920475,111.048683 183.947225,111.023892 L199.24685,110.83521 C203.34985,110.784251 205.52235,105.952874 202.83835,102.841677 L197.149975,96.2474251" id="Stroke-23"></path>
            <path d="M52.113325,99.36 L48.87795,107.904431 C48.1602,109.802275 46.3342,111.048683 44.30745,111.023892 L29.007825,110.83521 C24.90345,110.784251 22.732325,105.952874 25.41495,102.841677 L31.1047,96.2474251" id="Stroke-25"></path>
            <polyline id="Stroke-27" points="165.7469 56.4670659 165.7469 41.3173653 187.2904 19.7386826"></polyline>
            <path d="M186.170462,22.7245509 L212.789087,22.7245509 C219.028837,22.7245509 224.132837,17.6122156 224.132837,11.3622754 C224.132837,5.11233533 219.028837,0 212.789087,0 L192.764962,0 C191.223587,0 190.131837,1.50670659 190.607587,2.9748503 L184.013087,21.154491 C184.315587,22.091018 185.187337,22.7245509 186.170462,22.7245509 Z" id="Stroke-29"></path>
            <polyline id="Stroke-31" points="63.9969 56.4670659 63.9969 41.3173653 42.4534 19.7386826"></polyline>
            <path d="M44.2110625,22.7245509 L17.5910625,22.7245509 C11.3526875,22.7245509 6.2473125,17.6122156 6.2473125,11.3622754 C6.2473125,5.11233533 11.3526875,0 17.5910625,0 L37.6151875,0 C39.1565625,0 40.2496875,1.50670659 39.7725625,2.9748503 L46.3670625,21.154491 C46.0645625,22.091018 45.1928125,22.7245509 44.2110625,22.7245509 Z" id="Stroke-33"></path>
        </g>
    </g>
</svg>
