<?xml version="1.0" encoding="UTF-8"?>
<svg width="510px" height="214px" viewBox="0 0 510 214" version="1.1" xmlns="http://www.w3.org/2000/svg" xmlns:xlink="http://www.w3.org/1999/xlink">
    <!-- Generator: Sketch 47.1 (45422) - http://www.bohemiancoding.com/sketch -->
    <title>Slice 1</title>
    <desc>Created with Sketch.</desc>
    <defs></defs>
    <g id="Page-1" stroke="none" stroke-width="1" fill="none" fill-rule="evenodd">
        <g id="bajos-12-12" fill-rule="nonzero" fill="#000000">
            <g id="Group">
                <rect id="Rectangle-path" x="147.602676" y="203.001777" width="40.7433921" height="4.23762376"></rect>
                <path d="M72.4792531,207.239401 L69.8551867,207.239401 C31.3485996,207.239401 0.0211618257,175.87304 0.0211618257,137.318609 L0.0211618257,77.8970594 C0.0211618257,39.342099 31.3485996,7.97626733 69.8551867,7.97626733 L72.4792531,7.97626733 L72.4792531,12.2138911 L69.8551867,12.2138911 C33.6413111,12.2547594 4.29434452,41.6381889 4.25352697,77.8970594 L4.25352697,137.318609 C4.29434452,173.577479 33.6413111,202.960909 69.8551867,203.001777 L72.4792531,203.001777 L72.4792531,207.239401 Z" id="Shape"></path>
                <rect id="Rectangle-path" x="147.605322" y="7.97626733" width="38.6187448" height="4.23762376"></rect>
                <rect id="Rectangle-path" x="204.324305" y="7.97626733" width="180.29082" height="4.23762376"></rect>
                <path d="M460.365467,204.160767 L459.116919,200.111188 C472.375209,195.959841 484.001173,187.753499 492.361089,176.645347 C500.918752,165.32675 505.537755,151.512992 505.511577,137.31702 L505.511577,77.8970594 C505.537016,63.7438232 500.945671,49.9694144 492.435685,38.6683168 C484.121374,27.5812299 472.557403,19.3696909 459.357635,15.179698 L460.621525,11.1359455 C474.667501,15.5928712 486.973323,24.3292216 495.821577,36.1257426 C504.882329,48.1596032 509.77051,62.8267444 509.742884,77.8970594 L509.742884,137.318609 C509.771497,152.433846 504.854057,167.142354 495.742749,179.194277 C486.845273,191.012905 474.473555,199.743887 460.365467,204.160767 Z" id="Shape"></path>
                <rect id="Rectangle-path" x="204.324305" y="203.001777" width="180.305104" height="4.23762376"></rect>
                <path d="M200.395612,213.484069 C199.269841,213.481758 198.164309,213.184258 197.189066,212.621183 L187.295913,206.960777 C186.462739,206.484101 186.054198,205.50577 186.300548,204.577176 C186.546898,203.648582 187.386467,203.002189 188.346068,203.002307 L188.349243,203.002307 L204.326421,203.024554 C205.143551,203.025795 205.886954,203.497957 206.236276,204.237574 C206.643682,205.10292 206.855566,206.047545 206.856846,207.004213 C206.849017,210.575555 203.962505,213.470387 200.395612,213.484069 Z M196.332541,207.251584 L199.28832,208.942396 C199.939253,209.314353 200.733181,209.334383 201.401997,208.995721 C202.070814,208.65706 202.525227,208.004921 202.611784,207.25953 L196.332541,207.251584 Z" id="Shape"></path>
                <path d="M186.224066,11.7006089 C185.263798,11.7018707 184.423053,11.0555963 184.176215,10.1264415 C183.929377,9.19728666 184.338329,8.21819377 185.172324,7.74160891 L197.18695,0.867653465 C199.187047,-0.277721353 201.64496,-0.270093144 203.637927,0.887674272 C205.630894,2.04544169 206.857348,4.17816022 206.856846,6.48515347 C206.855505,7.44187324 206.643435,8.3865224 206.235747,9.25179208 C205.724548,10.2891066 204.476916,10.7242253 203.432691,10.2293736 C202.388466,9.73452196 201.933602,8.49260082 202.410747,7.43914851 C202.550142,7.14066783 202.622382,6.81518289 202.622365,6.48568317 C202.622083,5.68993288 202.198921,4.9544473 201.511546,4.55499918 C200.824171,4.15555106 199.976436,4.1524925 199.286203,4.5469703 L187.271577,11.4214554 C186.95276,11.6045355 186.591598,11.7007825 186.224066,11.7006089 Z" id="Shape"></path>
                <path d="M210.560166,12.1831683 L182.520747,12.1831683 C181.352012,12.1831683 180.404564,11.2345439 180.404564,10.0643564 C180.404564,8.89416895 181.352012,7.94554455 182.520747,7.94554455 L210.560166,7.94554455 C211.728901,7.94554455 212.676349,8.89416895 212.676349,10.0643564 C212.676349,11.2345439 211.728901,12.1831683 210.560166,12.1831683 Z" id="Shape"></path>
            </g>
            <path d="M68.1320851,112.540163 C63.5403099,112.540163 59.4006706,109.770708 57.6434743,105.52319 C55.8862781,101.275672 56.8575746,96.3865675 60.1044499,93.1356581 C63.3513253,89.8847486 68.2343628,88.9122452 72.4766099,90.6716247 C76.7188569,92.4310043 79.4848755,96.575787 79.4848755,101.173267 C79.4778781,107.448126 74.3991574,112.533157 68.1320851,112.540163 Z M68.1320851,94.043995 C64.1995828,94.043995 61.0116598,97.235879 61.0116598,101.173267 C61.0116598,105.110656 64.1995828,108.30254 68.1320851,108.30254 C72.0645874,108.30254 75.2525104,105.110656 75.2525104,101.173267 C75.247846,97.237815 72.0626537,94.0486652 68.1320851,94.043995 L68.1320851,94.043995 Z" id="Shape"></path>
            <rect id="Rectangle-path" x="148.54279" y="110.178218" width="4.23236515" height="94.9423713"></rect>
            <rect id="Rectangle-path" x="148.54279" y="8.50067327" width="4.23236515" height="94.9423713"></rect>
            <path d="M61.4005083,179.251485 L60.8688174,177.198886 C59.5508617,172.12028 54.9710221,168.575609 49.7302905,168.57797 L47.6141079,168.57797 L47.6141079,58.134901 L49.7302905,58.134901 C54.9704129,58.1375126 59.550051,54.5938689 60.8688174,49.516104 L61.4005083,47.463505 L143.371369,68.8121238 L143.371369,157.900748 L61.4005083,179.251485 Z M51.846473,164.482837 C57.4165528,165.238228 62.1616712,168.910109 64.2959751,174.116545 L139.139004,154.624005 L139.139004,72.0888663 L64.2959751,52.595797 C62.1618205,57.8024384 57.4166739,61.4745427 51.846473,62.2300347 L51.846473,164.482837 Z" id="Shape"></path>
            <polygon id="Shape" points="288.982189 112.29703 139.139004 112.29703 139.139004 101.70297 285.913724 101.70297 298.61082 93.7574257 339.734595 93.7574257 343.350622 91.1857178 343.350622 67.190703 363.381349 44.4950495 379.158019 44.4950495 405.610301 59.8564356 414.771784 59.8564356 414.771784 64.0940594 404.471266 64.0940594 378.018983 48.7326733 365.290145 48.7326733 347.582988 68.7941139 347.582988 93.3723317 341.085249 97.9950495 299.824979 97.9950495 287.127884 105.940594 143.371369 105.940594 143.371369 108.059406 287.768029 108.059406 300.465124 100.113861 341.739678 100.113861 349.69917 94.4905347 349.69917 69.6379307 366.200633 50.8514851 377.458195 50.8514851 403.910477 66.2128713 414.771784 66.2128713 414.771784 70.450495 402.771442 70.450495 376.31916 55.0891089 368.11472 55.0891089 353.931535 71.2360446 353.931535 96.6866832 343.082925 104.351485 301.679284 104.351485"></polygon>
            <polygon id="Shape" points="433.02333 66.8940693 430.112521 63.8175545 434.289336 59.8564356 441.224066 59.8564356 441.224066 57.7376238 433.345519 57.7376238 433.023859 58.0427327 432.735 57.7376238 432.502749 57.7376238 432.502749 57.4918416 430.11305 54.9672772 431.65945 53.5 445.456432 53.5 445.456432 64.0940594 435.975405 64.0940594"></polygon>
            <path d="M480.726317,72.745698 L441.224066,72.745698 L441.224066,44.4950495 L480.726317,44.4950495 L480.726317,72.745698 Z M445.456432,68.5080743 L476.493952,68.5080743 L476.493952,48.7326733 L445.456432,48.7326733 L445.456432,68.5080743 Z" id="Shape"></path>
            <path d="M498.809627,63.9176683 L476.493952,63.9176683 L476.493952,53.3236089 L498.809627,53.3236089 L498.809627,63.9176683 Z M480.726317,59.6800446 L494.577261,59.6800446 L494.577261,57.5612327 L480.726317,57.5612327 L480.726317,59.6800446 Z" id="Shape"></path>
            <path d="M404.59612,159.76795 L357.105809,159.76795 L357.105809,71.8372574 L404.59612,71.8372574 L404.59612,159.76795 Z M361.338174,155.530327 L400.363755,155.530327 L400.363755,76.0748812 L361.338174,76.0748812 L361.338174,155.530327 Z" id="Shape"></path>
            <rect id="Rectangle-path" x="381.970954" y="10.0950792" width="4.23236515" height="39.167297"></rect>
            <rect id="Rectangle-path" x="381.970954" y="57.4727723" width="4.23236515" height="16.483297"></rect>
            <rect id="Rectangle-path" x="381.970954" y="157.649139" width="4.23236515" height="47.4714505"></rect>
            <rect id="Rectangle-path" x="150.658973" y="18.8680198" width="233.428164" height="4.23762376"></rect>
            <rect id="Rectangle-path" x="150.658973" y="192.610594" width="233.428164" height="4.23762376"></rect>
            <path d="M141.255187,213.641921 L78.8278008,213.641921 C74.1551556,213.636375 70.3686094,209.845124 70.3630705,205.166673 L70.3630705,194.572614 C70.3686094,189.894163 74.1551556,186.102912 78.8278008,186.097366 L141.255187,186.097366 C145.927832,186.102912 149.714378,189.894163 149.719917,194.572614 L149.719917,205.166673 C149.714378,209.845124 145.927832,213.636375 141.255187,213.641921 L141.255187,213.641921 Z M78.8278008,190.33499 C76.4914179,190.337617 74.5980597,192.233328 74.5954357,194.572614 L74.5954357,205.166673 C74.5980597,207.505959 76.4914179,209.40167 78.8278008,209.404297 L141.255187,209.404297 C143.59157,209.40167 145.484928,207.505959 145.487552,205.166673 L145.487552,194.572614 C145.484928,192.233328 143.59157,190.337617 141.255187,190.33499 L78.8278008,190.33499 Z" id="Shape"></path>
            <path d="M141.255187,28.0085743 L78.8278008,28.0085743 C74.1551556,28.0030285 70.3686094,24.2117776 70.3630705,19.5333267 L70.3630705,8.93926733 C70.3686094,4.26081643 74.1551556,0.46956559 78.8278008,0.464019802 L141.255187,0.464019802 C145.927832,0.46956559 149.714378,4.26081643 149.719917,8.93926733 L149.719917,19.5333267 C149.714378,24.2117776 145.927832,28.0030285 141.255187,28.0085743 L141.255187,28.0085743 Z M78.8278008,4.70164356 C76.4914179,4.70427083 74.5980597,6.59998146 74.5954357,8.93926733 L74.5954357,19.5333267 C74.5980597,21.8726126 76.4914179,23.7683232 78.8278008,23.7709505 L141.255187,23.7709505 C143.59157,23.7683232 145.484928,21.8726126 145.487552,19.5333267 L145.487552,8.93926733 C145.484928,6.59998146 143.59157,4.70427083 141.255187,4.70164356 L78.8278008,4.70164356 Z" id="Shape"></path>
            <path d="M453.392116,213.641921 L390.96473,213.641921 C386.292085,213.636375 382.505539,209.845124 382.5,205.166673 L382.5,194.572614 C382.505539,189.894163 386.292085,186.102912 390.96473,186.097366 L453.392116,186.097366 C458.064761,186.102912 461.851308,189.894163 461.856846,194.572614 L461.856846,205.166673 C461.851308,209.845124 458.064761,213.636375 453.392116,213.641921 L453.392116,213.641921 Z M390.96473,190.33499 C388.628347,190.337617 386.734989,192.233328 386.732365,194.572614 L386.732365,205.166673 C386.734989,207.505959 388.628347,209.40167 390.96473,209.404297 L453.392116,209.404297 C455.728499,209.40167 457.621857,207.505959 457.624481,205.166673 L457.624481,194.572614 C457.621857,192.233328 455.728499,190.337617 453.392116,190.33499 L390.96473,190.33499 Z" id="Shape"></path>
            <path d="M453.392116,28.0085743 L390.96473,28.0085743 C386.292085,28.0030285 382.505539,24.2117776 382.5,19.5333267 L382.5,8.93926733 C382.505539,4.26081643 386.292085,0.46956559 390.96473,0.464019802 L453.392116,0.464019802 C458.064761,0.46956559 461.851308,4.26081643 461.856846,8.93926733 L461.856846,19.5333267 C461.851308,24.2117776 458.064761,28.0030285 453.392116,28.0085743 L453.392116,28.0085743 Z M390.96473,4.70164356 C388.628347,4.70427083 386.734989,6.59998146 386.732365,8.93926733 L386.732365,19.5333267 C386.734989,21.8726126 388.628347,23.7683232 390.96473,23.7709505 L453.392116,23.7709505 C455.728499,23.7683232 457.621857,21.8726126 457.624481,19.5333267 L457.624481,8.93926733 C457.621857,6.59998146 455.728499,4.70427083 453.392116,4.70164356 L390.96473,4.70164356 Z" id="Shape"></path>
            <path d="M433.684108,190.646455 L412.786805,190.646455 L412.786805,23.7709505 L433.684108,23.7709505 L433.684108,190.646455 Z M417.01917,186.408832 L429.451743,186.408832 L429.451743,28.0085743 L417.01917,28.0085743 L417.01917,186.408832 Z" id="Shape"></path>
            <polygon id="Shape" points="120.489616 65.7144208 116.257251 65.7144208 116.257251 28.0085743 103.825737 28.0085743 103.825737 60.1514802 99.5933714 60.1514802 99.5933714 23.7709505 120.489616 23.7709505"></polygon>
            <polygon id="Shape" points="120.489616 190.646455 99.5933714 190.646455 99.5933714 166.560861 103.825737 166.560861 103.825737 186.408832 116.257251 186.408832 116.257251 162.221535 120.489616 162.221535"></polygon>
        </g>
    </g>
</svg>