<?xml version="1.0" encoding="UTF-8"?>
<svg width="732px" height="473px" viewBox="0 0 732 473" version="1.1" xmlns="http://www.w3.org/2000/svg" xmlns:xlink="http://www.w3.org/1999/xlink">
    <title>Untitled</title>
    <g id="Page-1" stroke="none" stroke-width="1" fill="none" fill-rule="evenodd">
        <g transform="translate(6.000000, 7.000000)" stroke="#000000" stroke-width="12.5909896">
            <path d="M593.7287,332.351733 C583.814127,341.997555 577.658678,355.480911 577.658678,370.402555 C577.658678,399.730705 601.429707,423.504199 630.765374,423.504199 C660.090013,423.504199 683.861042,399.730705 683.861042,370.402555 C683.861042,341.082281 660.090013,317.311938 630.765374,317.311938 C627.165374,317.311938 623.645724,317.671116 620.245812,318.35324" id="Stroke-1"></path>
            <path d="M577.375247,299.495603 C555.885532,315.691699 541.994416,341.424918 541.994416,370.403342 C541.994416,419.418548 581.73621,459.161288 630.765532,459.161288 C679.779098,459.161288 719.524044,419.418548 719.524044,370.403342 C719.524044,321.389712 679.779098,281.658 630.765532,281.658 C620.225488,281.658 610.115554,283.493274 600.736648,286.862932" id="Stroke-3"></path>
            <path d="M572.685794,294.940342 L620.642206,380.182123 C624.569908,387.093151 633.351702,389.514452 640.266538,385.588699 C647.176648,381.662945 649.593453,372.880411 645.667326,365.970959 L594.340937,275.599863" id="Stroke-5"></path>
            <path d="M80.8829409,297.481842 C61.8194836,305.541295 48.4498556,324.409171 48.4498556,346.400952 C48.4498556,375.729103 72.220884,399.502596 101.556551,399.502596 C130.879615,399.502596 154.650643,375.729103 154.650643,346.400952" id="Stroke-7"></path>
            <path d="M51.9223982,272.811664 C28.3104945,288.758856 12.785593,315.768103 12.785593,346.400637 C12.785593,395.415842 52.5273873,435.158582 101.556709,435.158582 C142.719597,435.158582 177.345768,407.126938 187.381654,369.112349" id="Stroke-9"></path>
            <path d="M60.7906871,107.959164 C59.4074048,106.576014 29.241453,147.809027 29.241453,147.809027 L242.345698,294.939712 L217.627799,401.254849 L512.835676,401.254849 L512.835676,349.824644 L647.017208,243.558342 L683.861672,243.558342 C683.861672,243.558342 678.156814,169.39437 530.548937,87.4812877 L463.754363,87.4812877 C463.754363,87.4812877 568.370206,245.218753 438.845829,304.440603 L60.7906871,107.959164" id="Stroke-11"></path>
            <path d="M242.346171,294.940342 L272.723239,301.104658" id="Stroke-13"></path>
            <path d="M300.080875,306.655377 L468.779869,340.885993" id="Stroke-15" stroke-dasharray="65.0655097668738,27.88589458026544"></path>
            <path d="M482.457978,343.660644 L512.835046,349.824959" id="Stroke-17"></path>
            <path d="M199.871055,355.540301 C209.465803,340.891192 193.717182,299.527425 155.784053,269.104411 C125.750442,245.015849 90.7319737,234.954137 71.3061532,237.967767 C65.6469847,238.845233 61.2356061,240.782904 58.7526302,243.869 C58.7447527,243.873726 58.7400263,243.878452 58.7400263,243.878452 C58.7305733,243.89263 58.7305733,243.895781 58.7274223,243.905233 L38.8210766,268.715301 L76.9795011,293.971192 L178.581427,361.205233 L213.198144,384.113863 L220.779414,374.661808 L199.871055,355.540301 Z" id="Stroke-19"></path>
            <path d="M452.688263,87.4812877 L607.119597,87.4812877 L563.820341,35.6288904 C562.03846,33.4958767 559.402661,32.2639589 556.625068,32.2639589 L543.706031,32.2639589 C538.528963,32.2639589 534.331851,36.4606712 534.331851,41.6372466 C534.331851,46.0671096 531.232858,49.8920411 526.898678,50.8088904 L452.688263,66.5134795 L452.688263,87.4812877 Z" id="Stroke-21"></path>
            <path d="M326.515116,136.289966 L294.445969,134.486199 L190.315379,128.619623 L176.295072,107.959007 L60.7910022,107.959007 L315.652096,240.415377 L335.375685,221.805856 L346.360018,211.441678 C352.824263,203.155377 356.707851,192.765993 356.707851,181.445582 C356.707851,161.070103 344.236254,143.627911 326.515116,136.289966 Z" id="Stroke-23" stroke-linejoin="bevel"></path>
            <path d="M588.153033,123.822705 C585.041435,121.580993 557.703492,145.981473 557.703492,145.981473 L541.994258,174.187979 L647.016578,243.558185" id="Stroke-25"></path>
            <path d="M109.814022,203.438151 L106.937173,243.558973" id="Stroke-27"></path>
            <polyline id="Stroke-29" points="53.4640175 164.533021 29.2408228 174.186719 1.03005689 237.447747"></polyline>
            <path d="M452.688263,-0.000157534247 L437.984193,-0.000157534247 C432.783492,-0.000157534247 428.531239,4.25326712 428.531239,9.45189726 L428.531239,14.7025137 C428.531239,19.9011438 432.783492,24.1545685 437.984193,24.1545685 L452.688263,24.1545685 L452.688263,-0.000157534247 Z" id="Stroke-31"></path>
            <path d="M452.688263,24.1545685 L478.299466,61.0931986" id="Stroke-33"></path>
        </g>
    </g>
</svg>
