<?xml version="1.0" encoding="UTF-8"?>
<svg width="757px" height="684px" viewBox="0 0 757 684" version="1.1" xmlns="http://www.w3.org/2000/svg" xmlns:xlink="http://www.w3.org/1999/xlink">
    <!-- Generator: Sketch 47.1 (45422) - http://www.bohemiancoding.com/sketch -->
    <title>Slice 1</title>
    <desc>Created with Sketch.</desc>
    <defs></defs>
    <g id="Page-1" stroke="none" stroke-width="1" fill="none" fill-rule="evenodd">
        <g id="frontal-01" transform="translate(7.000000, 6.000000)" stroke="#000000" stroke-width="13.3215859">
            <path d="M82.4567191,298.563383 C72.7057742,298.564084 63.7526474,303.950888 59.1839462,312.56585 L41.7796892,345.394678 C36.0288388,356.240657 32.5916301,368.162299 31.6855458,380.405286 L28.3731275,425.118449 L28.3731275,476.431718 L52.5428287,569.164758 C55.3108367,579.785683 64.9012578,587.197527 75.8762849,587.197744" id="Shape"></path>
            <polyline id="Shape" points="28.6203008 478.157604 70.5553984 488.025938 270.366155 488.025938"></polyline>
            <polyline id="Shape" points="52.5354283 563.762115 326.116317 563.762115 416.883683 563.762115 690.464572 563.762115"></polyline>
            <path d="M240.410823,503.83274 L121.470139,503.83274 C109.742486,503.709206 99.9621118,512.771523 99.1919801,524.475278 C98.9040328,530.404196 101.057995,536.192142 105.151862,540.490172 C109.24573,544.788202 114.921866,547.220844 120.857386,547.221145 L249.889253,547.221145 C250.638484,547.220777 251.343859,546.867815 251.793351,546.268356 C252.242843,545.668897 252.384039,544.892842 252.174496,544.173463 L240.410823,503.83274 Z" id="Shape"></path>
            <ellipse id="Oval" cx="120.857386" cy="525.523242" rx="21.6890876" ry="21.6905022"></ellipse>
            <rect id="Rectangle-path" x="265.925916" y="466.563383" width="211.651394" height="46.6255507"></rect>
            <path d="M225.963765,438.440035 L116.926295,438.440035 L116.926295,385.153692 L194.612717,385.153692 C205.206757,385.154447 214.441029,392.36513 217.010763,402.643454 L225.963765,438.440035 Z" id="Shape"></path>
            <path d="M18.9154183,298.563383 L68.5928127,298.563383 L56.1941853,253.927189 C54.6529939,248.377685 49.6006291,244.537007 43.8414402,244.536952 L27.1165398,244.536952 C16.3746517,244.536258 7.01101168,251.847502 4.40619721,262.269463 L1.05529681,275.676899 C-0.320478087,281.178169 0.914469126,287.006542 4.40310328,291.476981 C7.89173743,295.947419 13.2450765,298.561469 18.9154183,298.563383 Z" id="Shape"></path>
            <path d="M78.0623625,432.51933 L116.926295,432.51933 L116.926295,385.153692 L92.8675996,385.153692 C82.2735593,385.154447 73.0392876,392.36513 70.4695538,402.643454 L65.532008,416.46978 C64.5670604,420.328593 65.4338001,424.416814 67.8815412,427.552012 C70.3292823,430.68721 74.0849737,432.519647 78.0623625,432.51933 L78.0623625,432.51933 Z" id="Shape"></path>
            <path d="M28.3731275,425.118449 L68.4462849,425.118449" id="Shape"></path>
            <path d="M36.5135657,510.284828 L36.5135657,648.625057 C36.5493318,660.872392 46.4682248,670.791932 58.714761,670.8277 L99.1653386,670.8277 C111.411875,670.791932 121.330768,660.872392 121.366534,648.625057 L121.366534,588.677921" id="Shape"></path>
            <path d="M95.8351594,297.126132 C128.151219,206.568952 151.853215,160.414097 170.605825,140.412476 C176.382908,134.452503 184.372112,131.154357 192.670853,131.303471 L550.329147,131.303471 C558.627888,131.154357 566.617092,134.452503 572.394175,140.412476 C591.146785,160.414097 615.100394,206.753974 647.416454,297.311154" id="Shape"></path>
            <path d="M175.7195,292.971278 C175.7195,292.971278 228.888402,341.707559 243.951173,423.621991 C245.404075,432.103001 252.706157,438.336451 261.309548,438.440035 L481.693412,438.440035 C490.295955,438.337545 497.598355,432.106222 499.053267,423.626432 C514.111598,341.712 567.28494,292.975718 567.28494,292.975718" id="Shape"></path>
            <polyline id="Shape" points="714.631313 478.157604 672.444602 488.025938 473.137072 488.025938"></polyline>
            <path d="M502.589177,503.83274 L621.529861,503.83274 C633.257514,503.709206 643.037888,512.771523 643.80802,524.475278 C644.095967,530.404196 641.942005,536.192142 637.848138,540.490172 C633.75427,544.788202 628.078134,547.220844 622.142614,547.221145 L493.110747,547.221145 C492.361516,547.220777 491.656141,546.867815 491.206649,546.268356 C490.757157,545.668897 490.615961,544.892842 490.825504,544.173463 L502.589177,503.83274 Z" id="Shape"></path>
            <ellipse id="Oval" cx="622.142614" cy="525.523242" rx="21.6890876" ry="21.6905022"></ellipse>
            <path d="M517.036235,438.440035 L626.073705,438.440035 L626.073705,385.153692 L548.382843,385.153692 C537.788802,385.154447 528.554531,392.36513 525.984797,402.643454 L517.036235,438.440035 Z" id="Shape"></path>
            <path d="M724.084582,298.563383 L674.407187,298.563383 L686.805815,253.927189 C688.347006,248.377685 693.399371,244.537007 699.15856,244.536952 L715.88346,244.536952 C726.625348,244.536258 735.988988,251.847502 738.593803,262.269463 L741.944703,275.676899 C743.320478,281.178169 742.085531,287.006542 738.596897,291.476981 C735.108263,295.947419 729.754924,298.561469 724.084582,298.563383 Z" id="Shape"></path>
            <path d="M664.937637,432.51933 L626.073705,432.51933 L626.073705,385.153692 L650.136841,385.153692 C660.730881,385.154447 669.965153,392.36513 672.534886,402.643454 L677.472432,416.46978 C678.437569,420.32935 677.570293,424.418371 675.121533,427.553763 C672.672773,430.689155 668.915806,432.521015 664.937637,432.51933 L664.937637,432.51933 Z" id="Shape"></path>
            <path d="M714.626873,425.118449 L674.553715,425.118449" id="Shape"></path>
            <path d="M706.486434,510.284828 L706.486434,648.625057 C706.450668,660.872392 696.531775,670.791932 684.285239,670.8277 L643.834661,670.8277 C631.588125,670.791932 621.669232,660.872392 621.633466,648.625057 L621.633466,588.677921" id="Shape"></path>
            <path d="M626.073705,385.153692 L676.396414,300.043559 C642.13257,199.185833 602.9445,146.299137 579.992904,121.818502 C569.22588,110.374456 554.203801,103.895895 538.49147,103.920211 L204.51297,103.920211 C188.800639,103.895895 173.77856,110.374456 163.011536,121.818502 C140.05994,146.299137 100.871871,199.185833 66.6035857,300.043559 L116.926295,385.153692" id="Shape"></path>
            <path d="M232.755851,385.153692 L507.46752,385.153692" id="Shape"></path>
            <path d="M669.910705,301.523736 C669.910705,295.34696 535.187932,290.341004 369.000145,290.341004 C202.812359,290.341004 68.0836653,295.34696 68.0836653,301.523736" id="Shape"></path>
            <path d="M170.605825,140.042432 L204.51297,103.920211" id="Shape"></path>
            <path d="M573.03209,140.042432 L539.126424,103.920211" id="Shape"></path>
            <path d="M238.093018,403.550802 L502.257639,403.550802" id="Shape"></path>
            <path d="M239.573098,421.170819 L503.737719,421.170819" id="Shape"></path>
            <path d="M377.424759,104.590731 L377.424759,1.17229956" id="Shape"></path>
            <rect id="Rectangle-path" x="371.011574" y="104.590731" width="12.8278506" height="10.3390308"></rect>
            <path d="M78.94301,587.197744 L78.94301,593.858537 L135.427291,593.858537 L135.427291,587.197744 L607.572709,587.197744 L607.572709,593.858537 L664.06143,593.858537 L664.06143,587.197744 L667.135556,587.197744 C678.110583,587.197527 687.701004,579.785683 690.469012,569.164758 L714.631313,476.431718 L714.631313,425.118449 L711.314454,380.405286 C710.40837,368.162299 706.971161,356.240657 701.220311,345.394678 L683.816054,312.56585 C679.247353,303.950888 670.294226,298.564084 660.543281,298.563383" id="Shape"></path>
        </g>
    </g>
</svg>