<?xml version="1.0" encoding="UTF-8"?>
<svg width="1934px" height="674px" viewBox="0 0 1934 674" version="1.1" xmlns="http://www.w3.org/2000/svg" xmlns:xlink="http://www.w3.org/1999/xlink">
    <!-- Generator: Sketch 47.1 (45422) - http://www.bohemiancoding.com/sketch -->
    <title>Slice 1</title>
    <desc>Created with Sketch.</desc>
    <defs></defs>
    <g id="Page-1" stroke="none" stroke-width="1" fill="none" fill-rule="evenodd">
        <g id="Group-59" transform="translate(967.000000, 336.500000) scale(-1, 1) translate(-967.000000, -336.500000) translate(7.000000, 6.000000)" stroke="#000000" stroke-width="13.9636364">
            <path d="M1372.32236,527.01602 C1372.32236,453.024674 1432.20805,393.042789 1506.08074,393.042789 C1579.95342,393.042789 1639.83911,453.024674 1639.83911,527.01602 C1639.83911,601.007366 1579.95342,660.98925 1506.08074,660.98925 C1432.20805,660.98925 1372.32236,601.007366 1372.32236,527.01602 Z" id="Stroke-1"></path>
            <path d="M1371.74138,527.01602 L1349.57365,527.01602 C1349.57365,440.441147 1419.6447,370.257537 1506.08074,370.257537 C1592.51677,370.257537 1662.58782,440.441147 1662.58782,527.01602 L1640.42009,527.01602" id="Stroke-3"></path>
            <path d="M1663.10075,514.783735 L1686.63806,514.783735 C1680.35726,420.378452 1601.9275,345.74928 1506.08074,345.74928 C1410.23397,345.74928 1331.80422,420.378452 1325.52341,514.783735 L1350.80538,514.783735" id="Stroke-5"></path>
            <path d="M248.756885,527.01602 C248.756885,453.024674 308.642576,393.042789 382.515261,393.042789 C456.387946,393.042789 516.273637,453.024674 516.273637,527.01602 C516.273637,601.007366 456.387946,660.98925 382.515261,660.98925 C308.642576,660.98925 248.756885,601.007366 248.756885,527.01602 Z" id="Stroke-7"></path>
            <path d="M248.175911,527.01602 L226.008173,527.01602 C226.008173,439.642554 296.079229,370.257537 382.515261,370.257537 C468.951292,370.257537 539.022349,439.642554 539.022349,527.01602 L516.854611,527.01602" id="Stroke-9"></path>
            <path d="M227.239908,514.783735 L201.95794,514.783735 C208.238741,420.420391 286.668496,345.74928 382.515261,345.74928 C478.362026,345.74928 556.791781,420.420391 563.072582,514.783735 L539.535281,514.783735" id="Stroke-11"></path>
            <path d="M1615.99475,385.471005 L1885.25442,385.471005 L1907.13778,396.616364 C1914.76372,400.500989 1919.56679,408.343631 1919.56679,416.911473 L1919.56679,436.147615 L1909.11274,501.999249 C1906.37362,519.243276 1892.21041,532.368518 1874.83353,533.768241 L1691.24398,548.544842 C1682.46656,549.252567 1674.25441,544.141219 1670.99712,535.945588 L1662.58782,514.783735" id="Stroke-13"></path>
            <path d="M1919.56679,436.147615 L1661.35609,436.147615" id="Stroke-15"></path>
            <polygon id="Stroke-17" points="550.003282 562.038276 1347.89702 562.038276 1347.89702 514.78321 550.003282 514.78321"></polygon>
            <path d="M1893.05605,389.215133 C1893.05605,389.215133 1891.65159,287.612024 1875.94959,273.632269 L1875.94959,212.470843 L1851.52426,239.556618 L1851.52426,280.622147 C1851.52426,280.622147 1867.75838,291.106963 1868.80169,383.722837 L1893.05605,389.215133 Z" id="Stroke-19" stroke-linecap="round" stroke-linejoin="round"></path>
            <polyline id="Stroke-20" stroke-linecap="round" stroke-linejoin="round" points="1868.97145 359.258965 1790.46144 359.258965 1773.01477 338.759402 1773.01477 285.865254 1841.05678 221.208889 1851.52478 239.557317"></polyline>
            <path d="M1851.52478,280.622846 L1780.65466,280.622846" id="Stroke-21" stroke-linecap="round" stroke-linejoin="round"></path>
            <path d="M1816.08972,280.622846 L1816.08972,361.52019" id="Stroke-22"></path>
            <path d="M1851.52478,280.622846 L1875.95011,273.632968" id="Stroke-23"></path>
            <path d="M495.337634,249.751179 C707.633935,100.00529 894.735501,61.4718444 943.928129,53.5103742 C951.40926,52.299378 958.965413,51.7052384 966.544245,51.7052384 L1258.80735,51.7052384 C1262.36996,51.7052384 1265.9413,51.8258138 1269.49693,52.098419 C1545.29561,73.1064952 1699.73876,196.745192 1699.73876,196.745192 L1773.01477,196.745192 L1773.01477,212.472416 L1875.95011,212.472416" id="Stroke-24"></path>
            <path d="M503.002828,244.213623 L96.4936994,320.908304 C96.4936994,320.908304 37.0703453,329.551288 30.0916777,413.429815 L167.920362,413.429815 L181.458977,401.19753 L253.409039,401.19753" id="Stroke-25"></path>
            <path d="M573.556285,269.264295 L155.813246,338.383697 C155.813246,338.383697 104.889909,345.791219 91.7874605,413.432261" id="Stroke-26"></path>
            <path d="M249.920578,547.985652 L48.4795944,547.985652 C30.7206301,547.985652 14.4114841,538.175359 6.06674237,522.4726 C2.36630391,515.512429 0.433212996,507.748423 0.433212996,499.862094 L0.433212996,463.070875 C0.433212996,450.309107 5.49449163,438.068084 14.5056961,429.042405 L30.09255,413.430514" id="Stroke-27"></path>
            <path d="M219.029331,452.132591 L0.43303853,452.132591" id="Stroke-28"></path>
            <path d="M0.434957663,478.960614 L47.3944116,478.960614 C60.9068566,478.960614 71.9645553,490.036074 71.9645553,503.570224 C71.9645553,517.106121 60.9068566,528.181582 47.3944116,528.181582 L9.62760748,528.181582" id="Stroke-29"></path>
            <path d="M49.2838858,413.430514 L51.0285527,400.469534 C51.0285527,400.469534 66.9399147,362.753904 87.2513266,362.753904 L102.080995,362.753904 L131.283229,362.753904 L142.623564,362.753904 C162.934976,362.753904 179.552928,379.762023 179.552928,400.10606 L179.905351,400.287797" id="Stroke-30"></path>
            <path d="M1823.04449,238.683582 C1827.29101,234.648675 1499.10172,238.683582 1499.10172,238.683582 L1410.28247,244.214322 L573.555936,269.264295 C573.555936,269.264295 469.784894,253.685606 464.514256,253.077487" id="Stroke-31"></path>
            <path d="M590.13062,269.264295 L590.13062,518.278673" id="Stroke-32"></path>
            <polyline id="Stroke-33" points="531.975639 430.265284 1030.36765 430.265284 1030.36765 514.783385"></polyline>
            <polyline id="Stroke-34" points="1349.06072 430.905207 1059.44601 430.905207 1059.44601 518.278673"></polyline>
            <path d="M1030.07803,429.683377 C1038.09303,240.553025 1056.25502,146.792558 1066.36362,109.543502 C1068.65611,101.090993 1062.32122,92.7695442 1053.57695,92.7695442 L963.489334,92.7695442 C962.906615,92.7695442 962.339598,92.806241 961.762114,92.8831297 C947.024912,94.8455377 754.127563,115.781968 615.126463,268.019747" id="Stroke-35"></path>
            <path d="M573.556285,269.264295 C675.038324,169.368464 807.664411,104.869371 880.504253,84.9062817" id="Stroke-36" stroke-linecap="round" stroke-linejoin="round"></path>
            <path d="M880.503555,84.9062817 L823.320354,84.9062817" id="Stroke-37" stroke-linecap="round" stroke-linejoin="round"></path>
            <path d="M1646.81778,237.472935 C1643.35636,237.881843 1489.79776,88.4015699 1265.3167,70.9268767 L956.510666,70.9268767 C956.510666,70.9268767 909.525042,73.754282 869.582639,88.0992577" id="Stroke-38"></path>
            <path d="M1699.73876,196.744318 L1699.73876,236.890678" id="Stroke-39"></path>
            <path d="M1059.5158,431.778942 C1050.67208,320.985892 1086.61222,156.033525 1097.97524,107.52902 C1099.88216,99.3893075 1107.13299,93.6436283 1115.47948,93.6436283 L1258.33804,93.6436283 C1258.33804,93.6436283 1392.09641,80.8294358 1437.41763,359.258965" id="Stroke-40"></path>
            <path d="M1311.55038,299.967855 C1311.55038,311.981707 1321.36413,330.548568 1333.35871,330.548568 L1373.42848,330.548568 C1385.42306,330.548568 1395.23681,311.981707 1395.23681,299.967855 L1311.55038,299.967855 Z" id="Stroke-41"></path>
            <path d="M495.976531,321.014376 C495.976531,333.028227 505.790283,342.857742 517.784867,342.857742 L528.195295,342.857742 C540.18988,342.857742 550.003631,333.028227 550.003631,321.014376 L495.976531,321.014376 Z" id="Stroke-42"></path>
            <path d="M925.978996,299.967855 C925.978996,311.981707 935.792747,330.548568 947.787332,330.548568 L987.857096,330.548568 C999.851681,330.548568 1009.66543,311.981707 1009.66543,299.967855 L925.978996,299.967855 Z" id="Stroke-43"></path>
            <path d="M1528.18218,238.350864 C1528.18218,238.350864 1388.54078,98.5707928 1280.40284,96.1068611" id="Stroke-44"></path>
            <path d="M684.923606,209.270178 L712.173558,209.270178 C723.414447,209.270178 732.612331,218.481089 732.612331,229.740034 L732.612331,245.206885 C732.612331,256.46583 723.414447,265.676741 712.173558,265.676741 L684.923606,265.676741 L684.923606,209.270178 Z" id="Stroke-45"></path>
            <path d="M1448.27835,530.801038 C1441.76028,519.493164 1426.35836,515.613783 1410.57435,520.024395 C1411.68745,504.863351 1416.30559,490.684385 1423.64017,478.296575 C1424.91726,479.187785 1426.24321,480.042297 1427.62847,480.842638 C1447.09896,492.101583 1469.57027,489.628914 1477.81905,475.318887 C1484.10334,464.414679 1480.30695,449.786613 1469.53363,438.456022 C1480.7972,433.795521 1493.13548,431.209267 1506.08091,431.209267 C1518.92515,431.209267 1531.17096,433.760572 1542.36475,438.354669 C1531.51466,449.697492 1527.67465,464.381477 1533.97988,475.318887 C1542.22866,489.628914 1564.69823,492.101583 1584.17045,480.842638 C1585.64819,479.988125 1587.05962,479.070704 1588.41523,478.114838 C1595.81262,490.544588 1600.46564,504.789958 1601.58572,520.024395 C1585.80346,515.613783 1570.40154,519.493164 1563.88347,530.801038 C1555.63468,545.111065 1564.73138,565.839546 1584.20186,577.098491 C1585.11432,577.626226 1586.0355,578.091053 1586.95669,578.557627 C1575.13657,597.180408 1557.09322,611.439758 1535.74723,618.399928 C1534.03222,598.103072 1521.40955,582.337404 1506.08091,582.337404 C1490.75227,582.337404 1478.12611,598.103072 1476.41459,618.399928 C1455.06859,611.439758 1437.02525,597.180408 1425.20339,578.557627 C1426.12632,578.091053 1427.0475,577.626226 1427.95822,577.098491 C1447.4287,565.839546 1456.52714,545.111065 1448.27835,530.801038 Z" id="Stroke-46"></path>
            <path d="M1533.98005,475.318887 C1527.67483,464.381477 1531.51484,449.697492 1542.36492,438.354669 C1561.68187,446.279442 1577.83574,460.334338 1588.4154,478.114838 C1587.0598,479.070704 1585.64836,479.988125 1584.17063,480.842638 C1564.6984,492.101583 1542.22884,489.628914 1533.98005,475.318887 Z" id="Stroke-47"></path>
            <path d="M1563.88312,530.801038 C1570.40119,519.493164 1585.80311,515.613783 1601.58537,520.024395 C1601.75984,522.383479 1601.87847,524.758289 1601.87847,527.16106 C1601.87847,546.075668 1596.3915,563.697148 1586.95808,578.557627 C1586.03515,578.091053 1585.11397,577.626226 1584.20151,577.098491 C1564.73103,565.839546 1555.63433,545.111065 1563.88312,530.801038 Z" id="Stroke-48"></path>
            <path d="M1506.08074,582.337753 C1521.40938,582.337753 1534.03204,598.101674 1535.74705,618.400277 C1526.40262,621.446116 1516.43882,623.113202 1506.08074,623.113202 C1495.72265,623.113202 1485.75886,621.446116 1476.41442,618.400277 C1478.12768,598.101674 1490.75209,582.337753 1506.08074,582.337753 Z" id="Stroke-49"></path>
            <path d="M1410.57383,520.02457 C1426.35783,515.613957 1441.75975,519.493339 1448.27783,530.801213 C1456.52661,545.111239 1447.42817,565.83972 1427.95769,577.098665 C1427.04698,577.626401 1426.12579,578.091228 1425.20461,578.557802 C1415.76945,563.697323 1410.28247,546.075842 1410.28247,527.161235 C1410.28247,524.758464 1410.40111,522.383653 1410.57383,520.02457 Z" id="Stroke-50"></path>
            <path d="M1477.81853,475.318887 C1469.56974,489.628914 1447.10018,492.101583 1427.62795,480.842638 C1426.24268,480.042297 1424.91848,479.187785 1423.63964,478.296575 C1434.17045,460.510832 1450.26675,446.429725 1469.5331,438.456022 C1480.30817,449.786613 1484.10456,464.414679 1477.81853,475.318887 Z" id="Stroke-51"></path>
            <path d="M326.457544,530.801038 C319.939468,519.493164 304.537549,515.613783 288.753548,520.024395 C289.866645,504.863351 294.484778,490.684385 301.819358,478.296575 C303.096454,479.187785 304.422401,480.042297 305.807666,480.842638 C325.278149,492.101583 347.749458,489.628914 355.998243,475.318887 C362.282534,464.414679 358.486138,449.786613 347.71282,438.456022 C358.97639,433.795521 371.314674,431.209267 384.260102,431.209267 C397.10434,431.209267 409.350157,433.760572 420.543939,438.352921 C409.693856,449.695745 405.853844,464.37973 412.15907,475.318887 C420.407855,489.628914 442.87742,492.101583 462.349647,480.842638 C463.82738,479.988125 465.238816,479.070704 466.594422,478.114838 C473.99181,490.544588 478.644836,504.789958 479.764912,520.024395 C463.982656,515.613783 448.580736,519.493164 442.062661,530.801038 C433.813876,545.111065 442.910569,565.839546 462.381051,577.098491 C463.293512,577.626226 464.214696,578.091053 465.13588,578.557627 C453.315762,597.180408 435.272417,611.439758 413.926418,618.399928 C412.21141,598.103072 399.588746,582.337404 384.260102,582.337404 C368.931459,582.337404 356.305305,598.103072 354.593787,618.399928 C333.247787,611.439758 315.204442,597.180408 303.382579,578.557627 C304.305508,578.091053 305.226692,577.626226 306.137408,577.098491 C325.607891,565.839546 334.706329,545.111065 326.457544,530.801038 Z" id="Stroke-52"></path>
            <path d="M412.159245,475.318887 C405.854019,464.37973 409.694031,449.695745 420.544114,438.352921 C439.861066,446.279442 456.014936,460.334338 466.594596,478.114838 C465.23899,479.070704 463.827555,479.988125 462.349822,480.842638 C442.877595,492.101583 420.40803,489.628914 412.159245,475.318887 Z" id="Stroke-53"></path>
            <path d="M442.062312,530.801038 C448.580387,519.493164 463.982307,515.613783 479.764563,520.024395 C479.93903,522.383479 480.057667,524.758289 480.057667,527.16106 C480.057667,546.075668 474.57069,563.697148 465.137276,578.557627 C464.214347,578.091053 463.293163,577.626226 462.380702,577.098491 C442.91022,565.839546 433.813527,545.111065 442.062312,530.801038 Z" id="Stroke-54"></path>
            <path d="M384.259928,582.337753 C399.588571,582.337753 412.211236,598.101674 413.926244,618.400277 C404.581808,621.446116 394.618015,623.113202 384.259928,623.113202 C373.90184,623.113202 363.938048,621.446116 354.593612,618.400277 C356.306875,598.101674 368.931285,582.337753 384.259928,582.337753 Z" id="Stroke-55"></path>
            <path d="M288.753024,520.02457 C304.537026,515.613957 319.938945,519.493339 326.45702,530.801213 C334.705805,545.111239 325.607368,565.83972 306.136885,577.098665 C305.226169,577.626401 304.304985,578.091228 303.383801,578.557802 C293.948642,563.697323 288.461665,546.075842 288.461665,527.161235 C288.461665,524.758464 288.580302,522.383653 288.753024,520.02457 Z" id="Stroke-56"></path>
            <path d="M355.99772,475.318887 C347.748935,489.628914 325.27937,492.101583 305.807143,480.842638 C304.421878,480.042297 303.097675,479.187785 301.818835,478.296575 C312.349644,460.510832 328.445941,446.429725 347.712297,438.456022 C358.48736,449.786613 362.283755,464.414679 355.99772,475.318887 Z" id="Stroke-57"></path>
            <path d="M966.544245,51.7043646 L1132.78483,1.02775435" id="Stroke-58"></path>
        </g>
    </g>
</svg>