<?xml version="1.0" encoding="UTF-8"?>
<svg width="237px" height="460px" viewBox="0 0 237 460" version="1.1" xmlns="http://www.w3.org/2000/svg" xmlns:xlink="http://www.w3.org/1999/xlink">
    <title>Untitled</title>
    <defs>
        <polygon id="path-1" points="0 460 236.909778 460 236.909778 0 0 0"></polygon>
    </defs>
    <g id="Page-1" stroke="none" stroke-width="1" fill="none" fill-rule="evenodd">
        <g>
            <path d="M73.6472114,83.9533626 C73.5287114,86.5573392 71.7377455,88.7833626 69.2182739,89.4612573 L12.2238136,104.794591 C10.1285182,105.317807 8.00629091,104.045409 7.48246705,101.953889 L5.504325,94.047807 C4.98050114,91.9562865 6.25302955,89.8365205 8.348325,89.3119591 L66.294825,73.8024269 C70.212058,72.7533041 74.020217,75.8132456 73.8357341,79.8604386 L73.6472114,83.9533626 Z" id="Stroke-1" stroke="#000000" stroke-width="10.7445255"></path>
            <path d="M182.521241,76.9878596 L182.521241,64.8973918 L166.741889,57.0168655 C164.206258,55.751193 161.402656,55.109614 158.565389,55.1486199 C156.483559,55.1768655 154.425968,54.7101404 152.477451,53.9811345 L126.819508,44.3695556 C121.057445,42.2121287 114.712309,42.2121287 108.950247,44.3695556 L83.2923034,53.9811345 C81.3437864,54.7101404 79.2861955,55.1768655 77.2043659,55.1486199 C74.3670989,55.109614 71.5634966,55.751193 69.0278659,57.0168655 L53.2485136,64.8973918 L53.2485136,77.2945263" id="Stroke-3" stroke="#000000" stroke-width="10.7445255"></path>
            <polyline id="Stroke-5" stroke="#000000" stroke-width="10.7445255" points="53.2485136 93.7572807 53.2485136 100.87652 117.884877 104.911608 182.521241 100.87652 182.521241 90.9488596"></polyline>
            <path d="M102.73573,330.204678 L102.73573,391.067251 C102.73573,391.807018 102.129764,392.412281 101.389139,392.412281 L88.2895023,392.412281 C87.5502239,392.412281 86.9429114,391.807018 86.9429114,391.067251 L86.9429114,317.090643" id="Stroke-7" stroke="#000000" stroke-width="10.7445255"></path>
            <path d="M148.856468,318.806094 L148.856468,333.388901 C148.856468,338.491942 152.814099,342.948023 157.921718,343.04352 C160.872099,343.097322 163.541042,341.807439 165.315849,339.650012 L177.338212,325.030889 C178.523212,323.589018 179.244985,321.822994 179.411962,319.964164 L189.422519,208.70738 C189.534286,207.455158 189.462917,206.19352 189.212451,204.961474 L173.29036,127.021064 C172.726139,124.265099 171.282593,121.766035 169.177872,119.897789 L167.772031,118.649602 C164.676218,115.903053 160.456002,115.016678 156.406803,115.880187 C154.500031,116.286386 152.531315,116.259485 150.636661,115.796795 C142.410337,113.787322 119.603127,108.229661 117.892957,107.94048 C117.886224,107.939135 117.883531,107.939135 117.876798,107.94048 C116.166627,108.229661 93.359417,113.787322 85.1330932,115.796795 C83.2384398,116.259485 81.2697239,116.286386 79.3629511,115.880187 C75.3137523,115.016678 71.0935364,115.903053 67.9977239,118.649602 L66.591883,119.897789 C64.4871614,121.766035 63.0436159,124.265099 62.4793943,127.021064 L46.5573034,204.961474 C46.3068375,206.19352 46.2368148,207.455158 46.3485818,208.70738 L56.3591386,319.964164 C56.5261159,321.822994 57.2492352,323.589018 58.4355818,325.030889 L70.3286727,339.488608 C71.2160761,340.567322 72.2893091,341.503462 73.5497182,342.103345 C79.9796898,345.168667 86.9132864,340.391123 86.9132864,333.543579 L86.9132864,318.806094 C86.9132864,318.734807 87.0088943,318.710596 87.0439057,318.773813" id="Stroke-9" stroke="#000000" stroke-width="10.7445255"></path>
            <path d="M133.034025,330.204678 L133.034025,391.067251 C133.034025,391.807018 133.639991,392.412281 134.380616,392.412281 L147.480252,392.412281 C148.219531,392.412281 148.826843,391.807018 148.826843,391.067251 L148.826843,317.090643" id="Stroke-11" stroke="#000000" stroke-width="10.7445255"></path>
            <path d="M133.034025,333.903509 L133.034025,439.488304 C133.034025,447.811345 126.217582,454.619883 117.884877,454.619883 C109.553519,454.619883 102.73573,447.811345 102.73573,439.488304 L102.73573,333.903509" id="Stroke-13" stroke="#000000" stroke-width="10.7445255"></path>
            <path d="M177.88843,102.415906 L181.056958,110.760468 C181.759878,112.613918 183.548151,113.83117 185.533026,113.806959 L200.516543,113.62269 C204.53477,113.572924 206.662384,108.854561 204.033839,105.81614 L198.462992,99.3761404" id="Stroke-15" stroke="#000000" stroke-width="10.7445255"></path>
            <path d="M56.422967,102.415906 L53.2544386,110.760468 C52.5515182,112.613918 50.7632455,113.83117 48.7783705,113.806959 L33.7948534,113.62269 C29.7752795,113.572924 27.6490125,108.854561 30.2762114,105.81614 L35.8484045,99.3761404" id="Stroke-17" stroke="#000000" stroke-width="10.7445255"></path>
            <polyline id="Stroke-19" stroke="#000000" stroke-width="10.7445255" points="167.708741 60.5263158 167.708741 45.7309942 188.807127 24.657076"></polyline>
            <path d="M187.710329,27.5730994 L213.778982,27.5730994 C219.889812,27.5730994 224.888357,22.5803509 224.888357,16.4766082 C224.888357,10.3728655 219.889812,5.38011696 213.778982,5.38011696 L194.168579,5.38011696 C192.659051,5.38011696 191.589857,6.85157895 192.055778,8.28538012 L185.597528,26.0397661 C185.893778,26.954386 186.747516,27.5730994 187.710329,27.5730994 Z" id="Stroke-21" stroke="#000000" stroke-width="10.7445255"></path>
            <polyline id="Stroke-23" stroke="#000000" stroke-width="10.7445255" points="68.0610136 60.5263158 68.0610136 45.7309942 46.9626273 24.657076"></polyline>
            <path d="M48.6839744,27.5730994 L22.6139744,27.5730994 C16.5044915,27.5730994 11.5045994,22.5803509 11.5045994,16.4766082 C11.5045994,10.3728655 16.5044915,5.38011696 22.6139744,5.38011696 L42.2243778,5.38011696 C43.7339062,5.38011696 44.804446,6.85157895 44.337179,8.28538012 L50.795429,26.0397661 C50.499179,26.954386 49.6454403,27.5730994 48.6839744,27.5730994 Z" id="Stroke-25" stroke="#000000" stroke-width="10.7445255"></path>
            <path d="M54.005971,184.296579 L106.723659,147.344591 C114.462516,141.921433 124.789522,141.985994 132.459704,147.508684 L183.541284,184.296579" id="Stroke-27" stroke="#000000" stroke-width="10.7445255"></path>
            <path d="M183.541687,294.921333 L130.824,331.874667 C123.085142,337.297825 112.75679,337.231918 105.087955,331.710573 L54.006375,294.921333" id="Stroke-29" stroke="#000000" stroke-width="10.7445255"></path>
            <path d="M163.262567,83.9533626 C163.382414,86.5573392 165.17338,88.7833626 167.692851,89.4612573 L224.685965,104.794591 C226.78126,105.317807 228.903487,104.045409 229.427311,101.953889 L231.405453,94.047807 C231.929277,91.9562865 230.656749,89.8365205 228.561453,89.3119591 L170.6163,73.8024269 C166.69772,72.7533041 162.889561,75.8132456 163.074044,79.8604386 L163.262567,83.9533626 Z" id="Stroke-31" stroke="#000000" stroke-width="10.7445255"></path>
            <mask id="mask-2" fill="white">
                <use xlink:href="#path-1"></use>
            </mask>
            <g id="Clip-34"></g>
            <polygon id="Stroke-33" stroke="#000000" stroke-width="10.7445255" mask="url(#mask-2)" points="82.4840795 297.926667 152.706102 297.926667 152.706102 255.558246 82.4840795 255.558246"></polygon>
            <path d="M114.663024,76.2509181 C114.663024,68.5344854 108.401376,62.2800994 100.675984,62.2800994 C92.9519386,62.2800994 86.6902909,68.5344854 86.6902909,76.2509181 C86.6902909,83.9660058 92.9519386,90.2217368 100.675984,90.2217368 C108.401376,90.2217368 114.663024,83.9660058 114.663024,76.2509181 Z" id="Stroke-35" stroke="#000000" stroke-width="10.7445255" mask="url(#mask-2)"></path>
            <path d="M147.430967,77.2938538 C147.430967,71.5801696 142.794655,66.9492339 137.074336,66.9492339 C131.354018,66.9492339 126.716359,71.5801696 126.716359,77.2938538 C126.716359,83.007538 131.354018,87.6384737 137.074336,87.6384737 C142.794655,87.6384737 147.430967,83.007538 147.430967,77.2938538 Z" id="Stroke-36" stroke="#000000" stroke-width="10.7445255" mask="url(#mask-2)"></path>
            <path d="M96.1855074,252.505567 L96.1855074,229.328023" id="Stroke-37" stroke="#000000" stroke-width="10.7445255" ></path>
            <path d="M135.727207,252.505567 L135.727207,229.328023" id="Stroke-38" stroke="#000000" stroke-width="10.7445255" ></path>
            <path d="M152.705564,161.209825 L152.705564,187.817193 C152.705564,192.542281 148.869126,196.374269 144.138552,196.374269 L95.5104614,196.374269 C90.7798875,196.374269 86.94345,192.542281 86.94345,187.817193 L86.94345,161.209825" id="Stroke-39" stroke="#000000" stroke-width="10.7445255" mask="url(#mask-2)"></path>
        </g>
    </g>
</svg>
