<?xml version="1.0" encoding="UTF-8"?>
<svg width="732px" height="473px" viewBox="0 0 732 473" version="1.1" xmlns="http://www.w3.org/2000/svg" xmlns:xlink="http://www.w3.org/1999/xlink">
    <title>Untitled</title>
    <g id="Page-1" stroke="none" stroke-width="1" fill="none" fill-rule="evenodd">
        <g transform="translate(7.000000, 7.000000)" stroke="#000000" stroke-width="12.5901639">
            <path d="M125.796131,332.351733 C135.709129,341.997555 141.866153,355.480911 141.866153,370.402555 C141.866153,399.730705 118.095125,423.504199 88.7578818,423.504199 C59.4348184,423.504199 35.6637899,399.730705 35.6637899,370.402555 C35.6637899,341.082281 59.4348184,317.311938 88.7578818,317.311938 C92.3594573,317.311938 95.8775317,317.671116 99.2774442,318.35324" id="Stroke-1"></path>
            <path d="M142.148639,299.495603 C163.638354,315.691699 177.52947,341.424918 177.52947,370.403342 C177.52947,419.418548 137.787676,459.161288 88.7583545,459.161288 C39.7447877,459.161288 -0.000157549234,419.418548 -0.000157549234,370.403342 C-0.000157549234,321.389712 39.7447877,281.658 88.7583545,281.658 C99.2983982,281.658 109.408333,283.493274 118.787239,286.862932" id="Stroke-3"></path>
            <path d="M146.839037,294.940342 L98.8810503,380.182123 C94.9549234,387.093151 86.1715536,389.514452 79.2567177,385.588699 C72.3466083,381.662945 69.9298031,372.880411 73.85593,365.970959 L125.182319,275.599863" id="Stroke-5"></path>
            <path d="M638.641891,297.481842 C657.703772,305.541295 671.074976,324.409171 671.074976,346.400952 C671.074976,375.729103 647.303947,399.502596 617.966705,399.502596 C588.643641,399.502596 564.872613,375.729103 564.872613,346.400952" id="Stroke-7"></path>
            <path d="M667.600858,272.811664 C691.214337,288.758856 706.737663,315.768103 706.737663,346.400637 C706.737663,395.415842 666.997444,435.158582 617.968123,435.158582 C576.805234,435.158582 542.177488,407.126938 532.141602,369.112349" id="Stroke-9"></path>
            <path d="M658.733199,107.959164 C660.116481,106.576014 690.284009,147.809027 690.284009,147.809027 L477.178188,294.939712 L501.896088,401.254849 L206.68821,401.254849 L206.68821,349.824644 L72.5066783,243.558342 L35.6637899,243.558342 C35.6637899,243.558342 41.3670722,169.39437 188.97495,87.4812877 L255.769523,87.4812877 C255.769523,87.4812877 151.155256,245.218753 280.678057,304.440603 L658.733199,107.959164" id="Stroke-11"></path>
            <path d="M477.177716,294.940342 L446.800648,301.104658" id="Stroke-13"></path>
            <path d="M419.443799,306.655377 L250.744805,340.885993" id="Stroke-15" stroke-dasharray="65.06124527727971,27.88406622214395"></path>
            <path d="M237.065908,343.660644 L206.68884,349.824959" id="Stroke-17"></path>
            <path d="M519.653777,355.540301 C510.057453,340.891192 525.80765,299.527425 563.740779,269.104411 C593.772814,245.015849 628.792858,234.954137 648.217103,237.967767 C653.877847,238.845233 658.289225,240.782904 660.770626,243.869 C660.780079,243.873726 660.784805,243.878452 660.784805,243.878452 C660.792683,243.89263 660.792683,243.895781 660.797409,243.905233 L680.702179,268.715301 L642.543755,293.971192 L540.943405,361.205233 L506.326687,384.113863 L498.745418,374.661808 L519.653777,355.540301 Z" id="Stroke-19"></path>
            <path d="M266.835624,87.4812877 L112.404289,87.4812877 L155.703545,35.6288904 C157.485427,33.4958767 160.121225,32.2639589 162.900394,32.2639589 L175.817856,32.2639589 C180.994923,32.2639589 185.192035,36.4606712 185.192035,41.6372466 C185.192035,46.0671096 188.291028,49.8920411 192.625208,50.8088904 L266.835624,66.5134795 L266.835624,87.4812877 Z" id="Stroke-21"></path>
            <path d="M393.00814,136.289966 L425.077287,134.486199 L529.209453,128.619623 L543.228184,107.959007 L658.733829,107.959007 L403.87116,240.415377 L384.147571,221.805856 L373.164814,211.441678 C366.698993,203.155377 362.815405,192.765993 362.815405,181.445582 C362.815405,161.070103 375.287002,143.627911 393.00814,136.289966 Z" id="Stroke-23" stroke-linejoin="bevel"></path>
            <path d="M131.371011,123.822705 C134.482608,121.580993 161.820551,145.981473 161.820551,145.981473 L177.52821,174.187979 L72.5074661,243.558185" id="Stroke-25"></path>
            <path d="M609.709864,203.438151 L612.586713,243.558973" id="Stroke-27"></path>
            <polyline id="Stroke-29" points="666.059869 164.533021 690.283063 174.186719 718.495405 237.447747"></polyline>
            <path d="M266.835624,-0.000157534247 L281.539694,-0.000157534247 C286.738818,-0.000157534247 290.992648,4.25326712 290.992648,9.45189726 L290.992648,14.7025137 C290.992648,19.9011438 286.738818,24.1545685 281.539694,24.1545685 L266.835624,24.1545685 L266.835624,-0.000157534247 Z" id="Stroke-31"></path>
            <path d="M266.835624,24.1545685 L241.22442,61.0931986" id="Stroke-33"></path>
        </g>
    </g>
</svg>
