<?xml version="1.0" encoding="UTF-8"?>
<svg width="969px" height="403px" viewBox="0 0 969 403" version="1.1" xmlns="http://www.w3.org/2000/svg" xmlns:xlink="http://www.w3.org/1999/xlink">
    <!-- Generator: Sketch 47.1 (45422) - http://www.bohemiancoding.com/sketch -->
    <title>Slice 1</title>
    <desc>Created with Sketch.</desc>
    <defs></defs>
    <g id="Page-1" stroke="none" stroke-width="1" fill="none" fill-rule="evenodd">
        <g id="techo-11" transform="translate(5.000000, 4.000000)" stroke="#000000" stroke-width="8.02931388">
            <path d="M349.4159,13.0901396 L128.535565,13.0901396 C57.8410042,13.0901396 0,70.8363325 0,141.415013 L0,253.879734 C0,324.458414 57.8410042,382.204607 128.535565,382.204607 L353.442678,382.204607" id="Shape"></path>
            <path d="M383.77205,382.204607 L830.93523,382.204607 C901.629791,382.204607 959.470795,324.458414 959.470795,253.879734 L959.470795,141.415013 C959.470795,70.8363325 901.629791,13.0901396 830.93523,13.0901396 L383.77205,13.0901396" id="Shape"></path>
            <path d="M813.126025,382.204607 C883.820586,382.204607 941.66159,324.458414 941.66159,253.879734 L941.66159,141.415013 C941.66159,70.8363325 883.820586,13.0901396 813.126025,13.0901396" id="Shape"></path>
            <path d="M796.182427,382.204607 C866.876987,382.204607 924.717992,324.458414 924.717992,253.879734 L924.717992,141.415013 C924.717992,70.8363325 866.876987,13.0901396 796.182427,13.0901396" id="Shape"></path>
            <path d="M143.754979,13.0901396 C73.0604184,13.0901396 15.2194142,70.8363325 15.2194142,141.415013 L15.2194142,253.879734 C15.2194142,324.458414 73.0604184,382.204607 143.754979,382.204607" id="Shape"></path>
            <path d="M156.65272,13.0901396 C85.958159,13.0901396 28.1171548,70.8363325 28.1171548,141.415013 L28.1171548,253.879734 C28.1171548,324.458414 85.958159,382.204607 156.65272,382.204607" id="Shape"></path>
            <path d="M58.2948954,61.5558376 C58.2948954,61.5558376 94.8953975,43.1091371 293.147448,43.1091371 L708.953975,43.1091371 C781.644854,43.1091371 841.506276,102.486459 841.506276,175.058185 L841.506276,222.529365 C841.506276,295.101091 781.838661,354.478414 709.147782,354.478414 L690.878661,354.898477 L286.694561,354.898477 C93.8912134,354.898477 58.1914644,336.953046 58.1914644,336.953046" id="Shape"></path>
            <path d="M302.928201,43.1091371 C259.540418,43.1091371 224.36887,112.905838 224.36887,199.003807 C224.36887,285.101777 259.540418,354.898477 302.928201,354.898477" id="Shape"></path>
            <path d="M313.826611,43.1091371 C282.482008,43.1091371 257.07113,112.905838 257.07113,199.003807 C257.07113,285.101777 282.482008,354.898477 313.826611,354.898477" id="Shape"></path>
            <path d="M309.067782,43.1091371 C269.07113,43.1091371 236.648033,112.905838 236.648033,199.003807 C236.648033,285.101777 269.07113,354.898477 309.067782,354.898477" id="Shape"></path>
            <path d="M798.190795,76.9558249 L904.769874,76.9558249" id="Shape"></path>
            <path d="M798.190795,323.485952 L904.769874,323.485952" id="Shape"></path>
            <path d="M705.967531,370.392703 C705.967531,370.392703 837.666276,371.581713 870.151632,358.663008" id="Shape"></path>
            <path d="M705.967531,27.8545178 C705.967531,27.8545178 837.666276,26.6665102 870.151632,39.5842132" id="Shape"></path>
            <path d="M28.1171548,130.329949 L0,155.631003" id="Shape"></path>
            <path d="M28.1171548,270.803579 L0,245.503528" id="Shape"></path>
            <path d="M290.209205,13.0329949 L290.209205,43.1091371" id="Shape"></path>
            <path d="M290.209205,382.969543 L290.209205,352.893401 C290.209205,352.893401 410.711297,310.786802 472.970711,307.779188 L709.968201,307.779188 C711.96403,307.779224 713.954062,307.993664 715.903933,308.418807 L792.16569,325.060939" id="Shape"></path>
            <path d="M340.512803,354.898477 C379.623766,342.374772 452.625941,320.757043 496.588117,318.632665 L657.740586,318.632665 C657.740586,318.632665 729.037657,326.842449 747.112971,348.891269" id="Shape"></path>
            <path d="M28.1171548,130.329949 C28.1171548,130.329949 110.195146,93.5177538 245.39046,90.8710533" id="Shape"></path>
            <path d="M28.1171548,268.320292 C28.1171548,268.320292 110.195146,305.131485 245.39046,307.779188" id="Shape"></path>
            <path d="M510.125523,382.969543 C510.125523,382.969543 535.330544,362.567893 543.813891,318.631662" id="Shape"></path>
            <path d="M514.205523,354.898477 C520.135028,343.484815 524.358895,331.265981 526.742762,318.63066" id="Shape"></path>
            <path d="M657.740586,318.631662 C657.740586,318.631662 705.941423,339.860406 707.949791,382.969543" id="Shape"></path>
            <path d="M290.209205,15.0380711 L290.209205,45.1142132 C290.209205,45.1142132 410.711297,87.2208122 472.970711,90.2284264 L709.968201,90.2284264 C711.96403,90.2283906 713.954062,90.0139498 715.903933,89.5888071 L792.16569,72.9466751" id="Shape"></path>
            <path d="M340.512803,43.1091371 C379.623766,55.6328426 452.625941,77.2505711 496.588117,79.3749492 L657.740586,79.3749492 C657.740586,79.3749492 729.037657,71.165165 747.112971,49.1163452" id="Shape"></path>
            <path d="M510.125523,15.0380711 C510.125523,15.0380711 535.330544,35.4397208 543.813891,79.3759518" id="Shape"></path>
            <path d="M514.205523,43.1091371 C520.135028,54.5227995 524.358895,66.7416328 526.742762,79.3769543" id="Shape"></path>
            <path d="M657.740586,79.3759518 C657.740586,79.3759518 705.941423,58.1472081 707.949791,15.0380711" id="Shape"></path>
            <path d="M417.070795,311.522665 C417.070795,311.522665 368.869958,198.837386 417.070795,81.673769" id="Shape"></path>
            <path d="M682.845188,81.673769 C682.845188,81.673769 731.046025,194.359048 682.845188,311.522665" id="Shape"></path>
            <path d="M349.4159,355.848883 L349.4159,379.909797 L372.219916,392.919734 C374.773039,394.376373 377.909796,394.366034 380.453229,392.892596 C382.996662,391.419157 384.562167,388.705425 384.562343,385.769632 L384.562343,385.769632 C384.562019,384.551649 384.291436,383.348862 383.770042,382.247716 L366.989121,346.826041 L349.4159,355.848883 Z" id="Shape" stroke-linecap="round" stroke-linejoin="round"></path>
            <path d="M349.4159,38.1836675 L349.4159,14.1227538 L372.219916,1.11281726 C374.773195,-0.343910961 377.910165,-0.333475824 380.453663,1.14020683 C382.997161,2.61388949 384.562525,5.32794923 384.562343,8.26392132 L384.562343,8.26392132 C384.562004,9.48158111 384.291418,10.6840386 383.770042,11.784835 L366.989121,47.2065102 L349.4159,38.1836675 Z" id="Shape" stroke-linecap="round" stroke-linejoin="round"></path>
        </g>
    </g>
</svg>