<?xml version="1.0" encoding="UTF-8"?>
<svg width="1921px" height="672px" viewBox="0 0 1921 672" version="1.1" xmlns="http://www.w3.org/2000/svg" xmlns:xlink="http://www.w3.org/1999/xlink">
    <!-- Generator: Sketch 47.1 (45422) - http://www.bohemiancoding.com/sketch -->
    <title>Untitled</title>
    <desc>Created with Sketch.</desc>
    <defs></defs>
    <g id="Page-1" stroke="none" stroke-width="1" fill="none" fill-rule="evenodd">
        <g id="Group-59" transform="translate(6.000000, 8.000000)" stroke="#000000" stroke-width="13.8690745">
            <path d="M1363.53011,522.191157 C1363.53011,448.667064 1423.01025,389.063963 1496.38267,389.063963 C1569.75509,389.063963 1629.23523,448.667064 1629.23523,522.191157 C1629.23523,595.71525 1569.75509,655.31835 1496.38267,655.31835 C1423.01025,655.31835 1363.53011,595.71525 1363.53011,522.191157 Z" id="Stroke-1"></path>
            <path d="M1362.95307,522.191157 L1340.93545,522.191157 C1340.93545,436.163002 1410.53199,366.422598 1496.38267,366.422598 C1582.23336,366.422598 1651.82989,436.163002 1651.82989,522.191157 L1629.81227,522.191157" id="Stroke-3"></path>
            <path d="M1652.33935,510.036118 L1675.71726,510.036118 C1669.47899,416.227002 1591.58036,342.06911 1496.38267,342.06911 C1401.18498,342.06911 1323.28635,416.227002 1317.04809,510.036118 L1342.15884,510.036118" id="Stroke-5"></path>
            <path d="M247.57343,522.191157 C247.57343,448.667064 307.053574,389.063963 380.425993,389.063963 C453.798412,389.063963 513.278556,448.667064 513.278556,522.191157 C513.278556,595.71525 453.798412,655.31835 380.425993,655.31835 C307.053574,655.31835 247.57343,595.71525 247.57343,522.191157 Z" id="Stroke-7"></path>
            <path d="M246.99639,522.191157 L224.978773,522.191157 C224.978773,435.369451 294.575307,366.422598 380.425993,366.422598 C466.276679,366.422598 535.873213,435.369451 535.873213,522.191157 L513.855596,522.191157" id="Stroke-9"></path>
            <path d="M226.202166,510.036118 L201.091408,510.036118 C207.329675,416.268676 285.228303,342.06911 380.425993,342.06911 C475.623682,342.06911 553.52231,416.268676 559.760578,510.036118 L536.382671,510.036118" id="Stroke-11"></path>
            <path d="M1605.55235,381.539994 L1872.98859,381.539994 L1894.72375,392.614971 C1902.29805,396.475064 1907.06859,404.26818 1907.06859,412.781916 L1907.06859,431.896583 L1896.68534,497.332366 C1893.96477,514.467498 1879.89747,527.509854 1862.63827,528.900738 L1680.29199,543.584025 C1671.57401,544.287281 1663.41747,539.208211 1660.18224,531.064335 L1651.82989,510.036118" id="Stroke-13"></path>
            <path d="M1907.06859,431.896583 L1650.6065,431.896583" id="Stroke-15"></path>
            <polygon id="Stroke-17" points="546.779783 556.992248 1339.27018 556.992248 1339.27018 510.035597 546.779783 510.035597"></polygon>
            <path d="M1880.73739,385.260478 C1880.73739,385.260478 1879.34244,284.298989 1863.74677,270.407516 L1863.74677,209.632322 L1839.48684,236.547051 L1839.48684,277.353253 C1839.48684,277.353253 1855.61103,287.771857 1856.64728,379.802865 L1880.73739,385.260478 Z" id="Stroke-19" stroke-linecap="round" stroke-linejoin="round"></path>
            <polyline id="Stroke-20" stroke-linecap="round" stroke-linejoin="round" points="1856.81588 355.493482 1778.83755 355.493482 1761.50903 335.123374 1761.50903 282.56325 1829.09025 218.315188 1839.48736 236.547746"></polyline>
            <path d="M1839.48736,277.353947 L1769.09718,277.353947" id="Stroke-21" stroke-linecap="round" stroke-linejoin="round"></path>
            <path d="M1804.29227,277.353947 L1804.29227,357.740428" id="Stroke-22"></path>
            <path d="M1839.48736,277.353947 L1863.74729,270.408211" id="Stroke-23"></path>
            <path d="M492.484332,246.677234 C703.34296,97.876986 889.177473,59.5868775 938.036968,51.6756837 C945.467437,50.4723349 952.972419,49.8819473 960.499928,49.8819473 L1250.78383,49.8819473 C1254.32231,49.8819473 1257.86946,50.0017612 1261.40101,50.272645 C1535.33199,71.1480558 1688.72924,194.005978 1688.72924,194.005978 L1761.50903,194.005978 L1761.50903,209.633885 L1863.74729,209.633885" id="Stroke-24"></path>
            <path d="M500.097617,241.174648 L96.3413718,317.385005 C96.3413718,317.385005 37.3204332,325.973408 30.3890253,409.322245 L167.284332,409.322245 L180.731264,397.167206 L252.194079,397.167206" id="Stroke-25"></path>
            <path d="M570.173285,266.067126 L155.259206,334.75004 C155.259206,334.75004 104.680722,342.110784 91.6670036,409.324676" id="Stroke-26"></path>
            <path d="M248.729242,543.028366 L48.6524188,543.028366 C31.0137184,543.028366 14.8150181,533.280025 6.526787,517.676428 C2.85140794,510.760211 0.931407942,503.045234 0.931407942,495.208707 L0.931407942,458.649823 C0.931407942,445.968645 5.95841155,433.804924 14.9085921,424.836242 L30.3898917,409.32294" id="Stroke-27"></path>
            <path d="M218.047191,447.780614 L0.931234657,447.780614" id="Stroke-28"></path>
            <path d="M0.933140794,474.439219 L47.5745848,474.439219 C60.9955235,474.439219 71.9783394,485.444738 71.9783394,498.89342 C71.9783394,512.343839 60.9955235,523.349358 47.5745848,523.349358 L10.0635379,523.349358" id="Stroke-29"></path>
            <path d="M49.4512635,409.32294 L51.1841155,396.443808 C51.1841155,396.443808 66.9877256,358.96635 87.1615884,358.96635 L101.89083,358.96635 L130.895307,358.96635 L142.158845,358.96635 C162.332708,358.96635 178.838123,375.867064 178.838123,396.082629 L179.188159,396.263219" id="Stroke-30"></path>
            <path d="M1811.19994,235.679529 C1815.4177,231.670102 1489.45092,235.679529 1489.45092,235.679529 L1401.23316,241.175343 L570.172939,266.067126 C570.172939,266.067126 467.104635,250.586816 461.86969,249.982536" id="Stroke-31"></path>
            <path d="M586.635379,266.067126 L586.635379,513.508986" id="Stroke-32"></path>
            <polyline id="Stroke-33" points="528.874224 426.051398 1023.89112 426.051398 1023.89112 510.035771"></polyline>
            <polyline id="Stroke-34" points="1340.42599 426.687281 1052.77256 426.687281 1052.77256 513.508986"></polyline>
            <path d="M1023.60347,425.473166 C1031.56419,237.537166 1049.60318,144.368794 1059.64332,107.354964 C1061.92029,98.9558326 1055.6283,90.6869333 1046.94325,90.6869333 L957.465704,90.6869333 C956.886931,90.6869333 956.323755,90.7233984 955.750181,90.7998016 C941.11278,92.7498171 749.521733,113.554034 611.461949,264.830437" id="Stroke-35"></path>
            <path d="M570.173285,266.067126 C670.968087,166.802133 802.696029,102.71035 875.042599,82.8733271" id="Stroke-36" stroke-linecap="round" stroke-linejoin="round"></path>
            <path d="M875.041906,82.8733271 L818.245949,82.8733271" id="Stroke-37" stroke-linecap="round" stroke-linejoin="round"></path>
            <path d="M1636.16664,234.476527 C1632.72866,234.882853 1480.20996,86.3465426 1257.2491,68.9822016 L950.534296,68.9822016 C950.534296,68.9822016 903.866859,71.7917519 864.194946,86.0461395" id="Stroke-38"></path>
            <path d="M1688.72924,194.00511 L1688.72924,233.897947" id="Stroke-39"></path>
            <path d="M1052.84188,427.555498 C1044.05805,317.462102 1079.7548,153.551405 1091.04087,105.353203 C1092.93487,97.264893 1100.13661,91.5554977 1108.42657,91.5554977 L1250.31769,91.5554977 C1250.31769,91.5554977 1383.17025,78.8222264 1428.18455,355.493482" id="Stroke-40"></path>
            <path d="M1303.16968,296.576794 C1303.16968,308.514778 1312.91697,326.964391 1324.83032,326.964391 L1364.62874,326.964391 C1376.54209,326.964391 1386.28939,308.514778 1386.28939,296.576794 L1303.16968,296.576794 Z" id="Stroke-41"></path>
            <path d="M493.118903,317.490406 C493.118903,329.428391 502.866195,339.195833 514.779552,339.195833 L525.11948,339.195833 C537.032838,339.195833 546.78013,329.428391 546.78013,317.490406 L493.118903,317.490406 Z" id="Stroke-42"></path>
            <path d="M920.209386,296.576794 C920.209386,308.514778 929.956679,326.964391 941.870036,326.964391 L981.668448,326.964391 C993.581805,326.964391 1003.3291,308.514778 1003.3291,296.576794 L920.209386,296.576794 Z" id="Stroke-43"></path>
            <path d="M1518.33444,235.348912 C1518.33444,235.348912 1379.6387,96.4515473 1272.23307,94.0031752" id="Stroke-44"></path>
            <path d="M680.786426,206.45187 L707.851841,206.45187 C719.016606,206.45187 728.152202,215.604614 728.152202,226.792459 L728.152202,242.161637 C728.152202,253.349482 719.016606,262.502226 707.851841,262.502226 L680.786426,262.502226 L680.786426,206.45187 Z" id="Stroke-45"></path>
            <path d="M1438.97173,525.952273 C1432.49779,514.715808 1417.20017,510.860924 1401.52306,515.243684 C1402.62862,500.178381 1407.21548,486.088955 1414.50039,473.779374 C1415.76884,474.664955 1417.08581,475.514071 1418.46169,476.309358 C1437.80032,487.497203 1460.11945,485.040149 1468.31238,470.82049 C1474.55411,459.985141 1470.78342,445.449451 1460.08306,434.190412 C1471.27035,429.559343 1483.52508,426.98942 1496.38284,426.98942 C1509.1401,426.98942 1521.30299,429.524614 1532.42097,434.089699 C1521.64436,445.360893 1517.83035,459.952149 1524.09288,470.82049 C1532.28581,485.040149 1554.60321,487.497203 1573.94357,476.309358 C1575.41129,475.460242 1576.81317,474.548614 1578.1596,473.598784 C1585.50689,485.95004 1590.1284,500.105451 1591.2409,515.243684 C1575.56552,510.860924 1560.2679,514.715808 1553.79396,525.952273 C1545.60104,540.171932 1554.63613,560.769513 1573.97476,571.957358 C1574.88104,572.481761 1575.79599,572.943653 1576.71093,573.407281 C1564.97086,591.912459 1547.0497,606.081761 1525.84826,612.997978 C1524.14487,592.829296 1511.60768,577.163188 1496.38284,577.163188 C1481.15801,577.163188 1468.61736,592.829296 1466.91743,612.997978 C1445.71599,606.081761 1427.79483,591.912459 1416.05303,573.407281 C1416.9697,572.943653 1417.88465,572.481761 1418.7892,571.957358 C1438.12783,560.769513 1447.16465,540.171932 1438.97173,525.952273 Z" id="Stroke-46"></path>
            <path d="M1524.09305,470.82049 C1517.83053,459.952149 1521.64453,445.360893 1532.42114,434.089699 C1551.60728,441.964428 1567.65175,455.930567 1578.15977,473.598784 C1576.81334,474.548614 1575.41147,475.460242 1573.94374,476.309358 C1554.60338,487.497203 1532.28598,485.040149 1524.09305,470.82049 Z" id="Stroke-47"></path>
            <path d="M1553.79362,525.952273 C1560.26755,514.715808 1575.56517,510.860924 1591.24055,515.243684 C1591.41383,517.58787 1591.53167,519.947684 1591.53167,522.335281 C1591.53167,541.130443 1586.08185,558.640645 1576.71232,573.407281 C1575.79564,572.943653 1574.88069,572.481761 1573.97441,571.957358 C1554.63578,560.769513 1545.60069,540.171932 1553.79362,525.952273 Z" id="Stroke-48"></path>
            <path d="M1496.38267,577.163535 C1511.60751,577.163535 1524.14469,592.827907 1525.84809,612.998326 C1516.56693,616.02493 1506.67061,617.681488 1496.38267,617.681488 C1486.09473,617.681488 1476.19841,616.02493 1466.91726,612.998326 C1468.61892,592.827907 1481.15783,577.163535 1496.38267,577.163535 Z" id="Stroke-49"></path>
            <path d="M1401.52254,515.243857 C1417.19965,510.861098 1432.49727,514.715981 1438.97121,525.952447 C1447.16413,540.172105 1438.12731,560.769687 1418.78868,571.957532 C1417.88413,572.481935 1416.96918,572.943826 1416.05424,573.407454 C1406.68297,558.640819 1401.23316,541.130617 1401.23316,522.335454 C1401.23316,519.947857 1401.35099,517.588043 1401.52254,515.243857 Z" id="Stroke-50"></path>
            <path d="M1468.31186,470.82049 C1460.11893,485.040149 1437.80153,487.497203 1418.46117,476.309358 C1417.08529,475.514071 1415.77005,474.664955 1414.49987,473.779374 C1424.95936,456.105947 1440.94666,442.113761 1460.08254,434.190412 C1470.78464,445.449451 1474.55532,459.985141 1468.31186,470.82049 Z" id="Stroke-51"></path>
            <path d="M324.747899,525.952273 C318.273964,514.715808 302.976347,510.860924 287.299235,515.243684 C288.404794,500.178381 292.991653,486.088955 300.276563,473.779374 C301.545011,474.664955 302.861978,475.514071 304.237863,476.309358 C323.576491,487.497203 345.895625,485.040149 354.088549,470.82049 C360.330282,459.985141 356.559596,445.449451 345.859235,434.190412 C357.046527,429.559343 369.301256,426.98942 382.159018,426.98942 C394.916274,426.98942 407.079162,429.524614 418.197141,434.087963 C407.420534,445.359157 403.606527,459.950412 409.869054,470.82049 C418.061978,485.040149 440.379379,487.497203 459.71974,476.309358 C461.187466,475.460242 462.589343,474.548614 463.935769,473.598784 C471.283061,485.95004 475.904578,500.105451 477.017069,515.243684 C461.34169,510.860924 446.044072,514.715808 439.570137,525.952273 C431.377213,540.171932 440.412303,560.769513 459.750931,571.957358 C460.657213,572.481761 461.572159,572.943653 462.487105,573.407281 C450.747032,591.912459 432.825877,606.081761 411.624433,612.997978 C409.92104,592.829296 397.383856,577.163188 382.159018,577.163188 C366.934181,577.163188 354.393531,592.829296 352.693603,612.997978 C331.492159,606.081761 313.571004,591.912459 301.829199,573.407281 C302.745877,572.943653 303.660823,572.481761 304.565372,571.957358 C323.904,560.769513 332.940823,540.171932 324.747899,525.952273 Z" id="Stroke-52"></path>
            <path d="M409.869227,470.82049 C403.6067,459.950412 407.420708,445.359157 418.197314,434.087963 C437.383451,441.964428 453.427928,455.930567 463.935942,473.598784 C462.589516,474.548614 461.187639,475.460242 459.719913,476.309358 C440.379552,487.497203 418.062152,485.040149 409.869227,470.82049 Z" id="Stroke-53"></path>
            <path d="M439.569791,525.952273 C446.043726,514.715808 461.341343,510.860924 477.016722,515.243684 C477.190007,517.58787 477.307841,519.947684 477.307841,522.335281 C477.307841,541.130443 471.858022,558.640645 462.488491,573.407281 C461.571812,572.943653 460.656866,572.481761 459.750585,571.957358 C440.411957,560.769513 431.376866,540.171932 439.569791,525.952273 Z" id="Stroke-54"></path>
            <path d="M382.158845,577.163535 C397.383682,577.163535 409.920866,592.827907 411.62426,612.998326 C402.343105,616.02493 392.446787,617.681488 382.158845,617.681488 C371.870903,617.681488 361.974585,616.02493 352.69343,612.998326 C354.39509,592.827907 366.934007,577.163535 382.158845,577.163535 Z" id="Stroke-55"></path>
            <path d="M287.298715,515.243857 C302.975827,510.861098 318.273444,514.715981 324.747379,525.952447 C332.940303,540.172105 323.90348,560.769687 304.564852,571.957532 C303.660303,572.481935 302.745357,572.943826 301.830412,573.407454 C292.459148,558.640819 287.009329,541.130617 287.009329,522.335454 C287.009329,519.947857 287.127162,517.588043 287.298715,515.243857 Z" id="Stroke-56"></path>
            <path d="M354.088029,470.82049 C345.895105,485.040149 323.577704,487.497203 304.237343,476.309358 C302.861458,475.514071 301.546224,474.664955 300.276043,473.779374 C310.735538,456.105947 326.72283,442.113761 345.858715,434.190412 C356.560809,445.449451 360.331495,459.985141 354.088029,470.82049 Z" id="Stroke-57"></path>
            <path d="M960.499928,50.8810791 L1125.61473,0.524489922" id="Stroke-58"></path>
        </g>
    </g>
</svg>