<svg xmlns="http://www.w3.org/2000/svg" viewBox="0 0 66.8 66.5"><g fill="#fff"><circle cx="29.9" cy="21.9" r=".9"/><path d="M34.3 6.1C18.9 6.1 6.4 18.6 6.4 34s12.5 27.9 27.9 27.9S62.1 49.4 62.1 34 49.7 6.1 34.3 6.1zM24.8 24c.6-2.4 2.4-4.5 4.7-5.7L28 15.5c-.1-.2 0-.4.1-.5.2-.1.4 0 .5.1l1.5 2.8c1.3-.6 2.8-.9 4.3-.9s3 .3 4.3.9l1.5-2.8c.1-.2.3-.2.5-.1s.2.3.1.5l-1.5 2.8c2.5 1.3 4.3 3.4 4.8 6 .1.3.1.6.1.9v1.1H24.5V26c0-.7.1-1.3.3-2zm-1.1 8.6v5.5c0 1.2-1 2.2-2.2 2.2s-2.2-1-2.2-2.2v-9.2c0-1.2 1-2.2 2.2-2.2s2.2 1 2.2 2.2v3.7zm20.7 8.9c0 1.2-1 2.2-2.2 2.2h-1.9v5c0 1.2-1 2.2-2.2 2.2-1.2 0-2.2-1-2.2-2.2v-5h-3v5c0 1.2-1 2.2-2.2 2.2s-2.2-1-2.2-2.2v-5h-1.9c-1.2 0-2.2-1-2.2-2.2V27.1h19.8v14.4zm5.2-8.9v5.5c0 1.2-1 2.2-2.2 2.2-1.2 0-2.2-1-2.2-2.2v-9.2c0-1.2 1-2.2 2.2-2.2 1.2 0 2.2 1 2.2 2.2v3.7z"/><circle cx="39" cy="21.9" r=".9"/></g></svg>