<svg xmlns="http://www.w3.org/2000/svg" viewBox="0 0 66.8 66.5"><path fill="#fff" d="M34.3 6.1C18.9 6.1 6.4 18.6 6.4 34s12.5 27.9 27.9 27.9S62.1 49.4 62.1 34 49.7 6.1 34.3 6.1zm1.3 11.5c1.2-1.5 3.3-2.6 5-2.7.3 2-.5 3.9-1.6 5.3-1.2 1.5-3.1 2.6-5.1 2.6-.3-1.9.6-3.9 1.7-5.2zm10.8 25.3c-1.4 2.1-3.3 4.7-5.8 4.8-2.2 0-2.7-1.4-5.6-1.4-2.9 0-3.5 1.4-5.7 1.4-2.4 0-4.3-2.4-5.7-4.5-3.9-5.9-4.3-12.8-1.9-16.5 1.7-2.6 4.4-4.1 6.9-4.1 2.6 0 4.2 1.4 6.3 1.4 2.1 0 3.3-1.4 6.3-1.4 2.2 0 4.6 1.2 6.3 3.3-5.5 3-4.6 10.9 1 13.1-.7 1.7-1.1 2.4-2.1 3.9z"/></svg>