<svg width="262" height="204" viewBox="0 0 262 204" xmlns="http://www.w3.org/2000/svg"><title>ilustracion bañera</title><g fill="none" fill-rule="evenodd"><path d="M212.908 116.075l.178 40.573-42.36-.18-.715-41.465-166.75.536-1.25 11.79 7.15 3.57.36 13.4 3.398 18.947 10.01 12.87 11.44 8.4 18.944 2.86 145.67-.18 15.73-4.827 14.655-13.94 7.33-23.413-.18-16.62 9.295-3.04L243.3 115l-17.34-.536-13.05 1.608z" fill="#9BC8DB"/><path d="M128.877 76.747h104.21c2.91 0 5.28-2.39 5.28-5.33v-8.04c0-2.94-2.37-5.33-5.28-5.33h-2.992c.072-.464.12-.937.12-1.42v-6.5c0-4.982-4.014-9.035-8.95-9.035h-23.14c-.728 0-1.432.098-2.11.264V30.648c0-4.905-5.207-7.247-8.785-8.277l-1.63-7.87c-.366-1.76-1.906-3.03-3.693-3.03h-6.274c-1.786 0-3.327 1.27-3.693 3.03l-1.63 7.88c-1.13.33-2.42.78-3.656 1.41-1.395-5.065-5.842-8.78-8.508-10.612V4.66c0-2.104-1.688-3.808-3.772-3.808h-9.78c-2.084 0-3.773 1.704-3.773 3.808v8.505c-3.19 2.19-8.95 7.07-8.95 13.728 0 0-.07 8.674-.1 17.38-.02 4.36-.02 8.73-.01 12.025l.01 1.753h-2.88c-2.912 0-5.28 2.4-5.28 5.33v8.04c0 2.94 2.368 5.33 5.28 5.33zm67.84-26.62c0-.77.646-1.42 1.407-1.42h23.14c.764 0 1.408.65 1.408 1.42v6.5c0 .77-.644 1.42-1.407 1.42h-23.14c-.762 0-1.407-.65-1.407-1.42v-6.5zM169.07 31.165c.803-.654 3.115-1.523 5.108-1.893 1.513-.275 2.71-1.45 3.025-2.968l1.495-7.22h.145l1.494 7.22c.314 1.514 1.51 2.687 3.02 2.967 1.998.37 4.31 1.24 5.114 1.9v26.88h-19.4V31.17zm-29.656-4.243c0-3.59 5.18-7.295 6.988-8.304 1.21-.668 1.964-1.948 1.964-3.34V8.464h2.236v6.812c0 1.385.755 2.666 1.955 3.337 1.815 1.013 6.996 4.717 6.996 8.34.078 9.752.156 24.467.11 31.092h-20.358c-.046-6.626.03-21.345.11-31.124zm-8.274 38.74h99.684v3.47H131.14v-3.47zm116.946 17.564c-7.402 0-13.422 6.02-13.422 13.42s6.02 13.42 13.422 13.42c7.4 0 13.42-6.02 13.42-13.42s-6.02-13.42-13.42-13.42zm0 19.142c-3.156 0-5.723-2.566-5.723-5.722 0-3.155 2.567-5.722 5.723-5.722 3.154 0 5.722 2.567 5.722 5.722 0 3.156-2.568 5.722-5.722 5.722zm-48.593-11.275c0 5.87 4.775 10.644 10.645 10.644 5.868 0 10.643-4.774 10.643-10.644s-4.77-10.643-10.64-10.643c-5.87 0-10.64 4.774-10.64 10.643zm13.787 0c0 1.733-1.41 3.143-3.142 3.143-1.734 0-3.144-1.41-3.144-3.143 0-1.733 1.41-3.143 3.144-3.143 1.732 0 3.142 1.41 3.142 3.143zm25.842 20.322h-2.59c-2.43-6.05-8.366-10.335-15.288-10.335-5.133 0-9.72 2.36-12.74 6.045h-5.25c-1.976-6.862-8.305-11.904-15.81-11.904-4.68 0-8.91 1.97-11.91 5.11-3.84-4.2-9.362-6.85-15.496-6.85-7.935 0-14.854 4.42-18.416 10.92-2.756-2.07-6.178-3.31-9.89-3.31-6.922 0-12.857 4.286-15.29 10.336H105.88l2.164-.327-.905-5.98-7.5 1.13.78 5.174H89.25v-5.807h-7.57v5.804H69.563l.534-3.33-7.478-1.196-.73 4.525h-.72c-.6-6.034-5.72-10.763-11.92-10.763s-11.32 4.73-11.92 10.762h-.3V25.54c.71-9.43 12.41-15.06 13.613-15.615 12.61-4.347 21.15 1.556 25.66 6.358-4.14 1.17-7.543 3.184-10.16 6.04-6.104 6.66-5.404 15.32-5.37 15.686l.31 3.44 47.114-.04.252-3.508c.027-.393.623-9.7-5.614-16.386-4-4.287-9.718-6.46-17-6.46-.246 0-.48.01-.72.013C79.44 6.9 66.376-3.59 48 2.843l-.248.097c-.706.308-17.32 7.626-18.278 22.22l-.008.13v86.13H8.07c-4.177 0-7.575 3.39-7.575 7.557v4.7c0 4.003 3.138 7.28 7.088 7.533-.38 8.915.247 29.94 12.883 44.175 6.01 6.77 13.89 11.06 23.5 12.83-.106.126-.218.247-.32.375-4.236 5.33-2.977 11.37-2.82 12.04.41 1.74 1.965 2.92 3.685 2.92.29 0 .58-.03.87-.1 2.04-.48 3.3-2.51 2.83-4.54-.002-.03-.61-3.12 1.38-5.63 2.15-2.707 6.77-4.137 13.36-4.137h120.38c6.538 0 11.14 1.406 13.31 4.07 2.036 2.49 1.466 5.53 1.425 5.73-.45 2.02.81 4.03 2.834 4.5.29.067.58.1.865.1 1.71 0 3.27-1.176 3.68-2.918.16-.673 1.413-6.716-2.82-12.046-.067-.08-.14-.158-.2-.238 9.97-1.675 18.122-6.01 24.3-12.97 12.635-14.236 13.263-35.26 12.883-44.176 3.95-.254 7.087-3.53 7.087-7.536v-4.7c0-4.164-3.397-7.555-7.574-7.555zM85.85 22.628c5.068 0 8.91 1.348 11.415 4.01 2.09 2.215 2.99 5.036 3.374 7.23l-32.03.023c.38-1.97 1.25-4.44 3.18-6.52 2.92-3.14 7.65-4.74 14.05-4.74zm130.033 87.828c1.492-1.134 3.344-1.818 5.36-1.818 2.538 0 4.825 1.07 6.447 2.777h-12.892c.333-.35.7-.666 1.085-.96zm-28.438-7.677c3.245 0 6.08 1.74 7.63 4.34h-15.26c1.554-2.6 4.385-4.35 7.63-4.35zm-12.817 28.45v-16.55h33.68v25.64h-33.68v-9.1zm0 16.65h33.68v3.67h-33.68v-3.68zm-14.59-46.85c4.695 0 8.816 2.43 11.206 6.09h.25c-.03.08-.058.17-.084.25l-.166-.257h-.3c-4.56 0-7.15 2.21-8.42 4.29H147.02l-.02-.045c1.382-5.915 6.697-10.338 13.038-10.338zm-28.306 7.6c2.537 0 4.823 1.07 6.446 2.773h-12.893c1.622-1.706 3.91-2.777 6.447-2.777zm-82.48-.43c2.015 0 3.713 1.36 4.235 3.203H45.02c.52-1.845 2.22-3.204 4.233-3.204zM8.07 118.97h158.982v4.7H8.07v-4.7zm212.985 51.398c-6.607 7.447-16.2 11.22-28.512 11.22H54.65c-12.3 0-21.885-3.765-28.49-11.192-10.905-12.26-11.306-31.493-10.978-39.165h151.87v27.887h48.83v-27.89h16.134c.338 7.65-.043 26.84-10.96 39.14zm15.454-46.695h-20.63v-4.7h23.24l-.02 4.7h-2.6zm2.61 3.344v-3.346 3.344zM64.36 93.14l7.154 1.193 2.1-13.616-7.154-1.193-2.1 13.615m13.883-39.27l-7.155-1.2-2.1 13.616 7.155 1.194 2.1-13.612m2.777 25.65h7.404v12.96H81.02V79.524zm0-26.843h7.404v12.96H81.02V52.682zm23.14 39.566l-1.96-13.65-7.297 1.16 1.96 13.65 7.296-1.16M91.2 52.918l1.96 13.65 7.297-1.16-1.96-13.65-7.296 1.16" fill="#000"/></g></svg>