<svg xmlns="http://www.w3.org/2000/svg" viewBox="0 0 66.8 66.5"><path d="M25.8 34.1c-.4-.2-.9-.3-1.6-.3H22v3h2.2c1.4 0 2.1-.5 2.1-1.5.1-.5-.1-.9-.5-1.2zm20.1-1.9c-.5 0-1 .2-1.3.6-.3.4-.5 1-.5 1.8s.2 1.4.5 1.8c.3.4.8.6 1.3.6.3 0 .6-.1.9-.3s.5-.4.7-.8.3-.8.3-1.2c0-.8-.2-1.4-.5-1.8s-.8-.7-1.4-.7zm-8.6 0c-.4 0-.7.1-1 .3-.3.2-.5.5-.7.9-.2.4-.2.8-.2 1.3s.1.9.2 1.3c.2.4.4.7.6.9.3.2.6.3 1 .3.6 0 1-.2 1.4-.7s.5-1 .5-1.8-.2-1.4-.5-1.8c-.2-.5-.7-.7-1.3-.7zm-12.2 0c.3-.1.5-.3.6-.6.1-.2.2-.4.2-.7 0-.5-.2-.9-.6-1-.4-.2-.9-.3-1.7-.3h-1.7v2.6h1.9c.7.1 1.1.1 1.3 0zm9.2-26.1C18.9 6.1 6.4 18.6 6.4 34c0 15.4 12.5 27.9 27.9 27.9S62.1 49.4 62.1 34c0-15.4-12.4-27.9-27.8-27.9zM28 37c-.3.5-.7.8-1.2 1-.3.1-.7.2-1.1.3-.4.1-.9.1-1.4.1h-3.1c-.5 0-.8-.1-1-.3-.2-.2-.3-.5-.3-1v-7.7c0-.5.1-.8.3-1 .2-.2.5-.3 1-.3h3.3c.5 0 .9 0 1.3.1s.7.2 1 .3c.2.1.5.3.6.5.2.2.3.5.4.7.1.3.1.5.1.8 0 1-.5 1.8-1.5 2.2 1.3.4 2 1.3 2 2.5.1.8-.1 1.3-.4 1.8zm4 .4c0 .4-.1.7-.3.9-.2.2-.4.3-.7.3-.3 0-.5-.1-.7-.3-.2-.2-.3-.5-.3-.9v-8.3c0-.4.1-.7.3-.9.2-.2.4-.3.7-.3s.5.1.7.3.3.5.3.9v8.3zm8.9-1.2c-.2.5-.4.9-.8 1.2-.3.3-.7.6-1.2.8s-1 .3-1.6.3c-.6 0-1.1-.1-1.6-.3-.5-.2-.9-.5-1.2-.8-.3-.3-.6-.8-.8-1.2-.2-.5-.3-1-.3-1.6 0-.6.1-1.1.3-1.6.2-.5.4-.9.8-1.2.3-.3.7-.6 1.2-.8s1-.3 1.6-.3c.6 0 1.1.1 1.6.3.5.2.9.5 1.2.8.3.3.6.8.8 1.2.2.5.3 1 .3 1.6-.1.6-.2 1.1-.3 1.6zm8.7 1.5c0 .6-.1 1.2-.2 1.6-.1.5-.4.8-.6 1.1-.3.3-.7.5-1.2.7-.5.1-1.1.2-1.8.2s-1.2-.1-1.8-.3c-.5-.2-.9-.4-1.2-.7-.3-.3-.4-.6-.4-.9 0-.2.1-.4.2-.6s.3-.2.6-.2.5.1.7.4c.1.1.2.3.3.4s.2.2.4.3c.1.1.3.2.5.2s.4.1.6.1c.5 0 .9-.1 1.1-.2.3-.1.5-.3.6-.6s.2-.5.2-.8V37c-.3.4-.6.7-1 .9-.4.2-.8.3-1.4.3-.6 0-1.2-.2-1.7-.5s-.8-.8-1.1-1.4c-.3-.6-.4-1.3-.4-2 0-.6.1-1.1.2-1.5.2-.5.4-.8.7-1.2.3-.3.6-.6 1-.7.4-.2.8-.2 1.2-.2.5 0 1 .1 1.4.3s.8.5 1.1 1v-.3c0-.3.1-.6.2-.8.2-.2.4-.3.6-.3.4 0 .6.1.7.4.1.2.2.6.2 1v5.7z" fill="#fff"/></svg>