<svg width="62" height="42" viewBox="0 0 62 42" xmlns="http://www.w3.org/2000/svg"><title>icono presupuesto</title><g fill="#181717" fill-rule="evenodd"><path d="M58.073 10.28c-2.05-1.24-4.244-4.6-5.01-5.946C52.008 1.492 49.71.937 48.49 1.042H13.408c-1.242-.11-3.59.468-4.622 3.43-.072.186-1.695 4.328-4.832 5.745l-.058.027c-1.072.533-2.886 2.124-2.886 4.71V26.98c0 2.584 1.814 4.175 2.886 4.708.056.027.113.052.172.074 3.3 1.223 4.678 5.576 4.69 5.615l.02.065c.954 2.762 3.053 3.46 4.344 3.46.1 0 .196-.004.286-.012H48.49c.09.008.186.012.286.012 1.29 0 3.39-.698 4.343-3.46l.03-.124c.01-.042 1.21-4.266 4.677-5.557.057-.02.113-.04.17-.07 1.07-.53 2.885-2.12 2.885-4.71V14.96c0-2.53-1.736-4.107-2.815-4.673zm-.687 9.146v7.553c0 .93-.693 1.43-.917 1.57-4.84 1.88-6.47 7.07-6.68 7.8-.33.92-.77 1.056-.99 1.063-.1-.024-.09-.01-.22-.01H13.31c-.086 0-.172.006-.257.02-.006 0-.574-.01-.957-1.095-.18-.573-1.99-5.957-6.672-7.783-.225-.14-.916-.644-.916-1.575V14.95c0-.99.78-1.498.952-1.597 4.532-2.086 6.537-7.48 6.62-7.71l.01-.027c.33-.96.783-1.1 1-1.11.1.02.09.01.22.01h35.272c.086 0 .172-.01.257-.02.002-.006.58.01.962 1.114.033.094.074.185.122.273.03.054.75 1.352 1.864 2.885 1.55 2.136 3.075 3.656 4.53 4.518.037.02.075.043.114.06.01.007.95.52.95 1.6v4.472z" stroke="#181717" stroke-width=".5"/><path d="M8.83 19.063h8.393v4.225H8.83v-4.225zm35.767 0h8.395v4.225h-8.395v-4.225zm-20.063-1.275H23.05l-1.005 2.718h2.25c-.026.24-.026.48-.026.773 0 .34 0 .63.02.87h-1.24l-1.008 2.72h2.515c.846 4.796 3.705 7.14 8.656 7.14 2.647 0 4.29-.613 4.95-1.04v-4.18c-.74.694-2.25 1.307-4.183 1.307-2.566 0-3.97-1.12-4.394-3.224h4.84l1.007-2.72h-6.25c-.024-.24-.05-.585-.05-.905 0-.267.026-.56.026-.746h6.91l1.005-2.718h-7.57c.422-2.16 1.77-3.438 4.472-3.438 2.12 0 3.494.665 4.183 1.36V11.52c-.69-.48-2.49-1.144-4.95-1.144-5.43 0-7.86 3.065-8.683 7.41"/></g></svg>