<svg width="24" height="24" viewBox="0 0 24 24" xmlns="http://www.w3.org/2000/svg" xmlns:xlink="http://www.w3.org/1999/xlink"><title>Slice 1</title><defs><path id="a" d="M0 5h4v1H0z"/><path id="b" d="M0 5h1v17H0z"/><path id="c" d="M0 21h23v1H0z"/><path id="d" d="M22 5h1v16h-1z"/><path id="e" d="M19 5h3v1h-3z"/><path id="f" d="M7 5h9v1H7z"/></defs><g fill="none" fill-rule="evenodd"><rect fill="#A1A1A1" x="5" y="3" width="1" height="4" rx=".5"/><rect fill="#A1A1A1" x="17" y="3" width="1" height="4" rx=".5"/><path d="M7.5 5.5h-4v1c0 1.105.895 2 2 2s2-.895 2-2v-1zM19.5 5.5h-4v1c0 1.105.895 2 2 2s2-.895 2-2v-1z" stroke="#A1A1A1"/><path fill="#A1A1A1" d="M3 11h2v1H3zM3 14h2v1H3zM3 17h2v1H3zM6 11h2v1H6zM6 14h2v1H6zM6 17h2v1H6zM9 11h2v1H9zM9 14h2v1H9zM9 17h2v1H9zM12 11h2v1h-2zM12 14h2v1h-2zM12 17h2v1h-2zM15 11h2v1h-2zM15 14h2v1h-2zM15 17h2v1h-2zM18 11h2v1h-2zM18 14h2v1h-2zM18 17h2v1h-2z"/><use fill="#D8D8D8" xlink:href="#a"/><path stroke="#A1A1A1" d="M.5 5.5h3v1h-3z"/><use fill="#D8D8D8" xlink:href="#b"/><path stroke="#A1A1A1" d="M.5 5.5h1v16h-1z"/><use fill="#D8D8D8" xlink:href="#c"/><path stroke="#A1A1A1" d="M.5 21.5h22v1H.5z"/><g><use fill="#D8D8D8" xlink:href="#d"/><path stroke="#A1A1A1" d="M22.5 5.5h1v15h-1z"/></g><g><use fill="#D8D8D8" xlink:href="#e"/><path stroke="#A1A1A1" d="M19.5 5.5h2v1h-2z"/></g><g><use fill="#D8D8D8" xlink:href="#f"/><path stroke="#A1A1A1" d="M7.5 5.5h8v1h-8z"/></g></g></svg>