<svg width="138" height="190" viewBox="0 0 138 190" xmlns="http://www.w3.org/2000/svg"><title>candado</title><g fill="none" fill-rule="evenodd"><path fill="#9BC8DB" d="M11.96 82.61h119.6v100.965H11.96z"/><path d="M84.64 146.86h18.4v11.932h-18.4V146.86zm-37.72 0h18.4v11.932h-18.4V146.86zm66.89-72.95V43.343c.01-.76.067-18.732-12.534-31.404C93.396 4.01 82.54 0 69 0 55.46 0 44.604 4.016 36.726 11.94 24.123 24.612 24.18 42.585 24.19 43.278v30.63C10.717 74.71 0 85.856 0 99.45v64.963C0 178.52 11.545 190 25.736 190h86.528c14.19 0 25.736-11.48 25.736-25.59V99.45c0-13.593-10.717-24.74-24.19-25.54zM35.888 43.233c0-.14.05-14.03 9.225-23.185 5.595-5.586 13.632-8.42 23.888-8.42 10.26 0 18.3 2.834 23.89 8.42 9.18 9.153 9.23 23.044 9.23 23.228v30.58h-6.17v-31.43l-.01-.353c-.01-.226-1.66-22.29-26.4-22.904l-1.05-.01v.01c-24.744.61-26.39 22.67-26.403 22.9l-.01 31.78H35.9V43.23zm48.356-.574v31.2H53.757V42.68c.065-.537.472-3.22 2.166-5.826 2.546-3.914 6.942-5.954 13.075-6.063 13.323.25 15.034 9.69 15.246 11.87zm28.02 135.71H25.736c-7.74 0-14.038-6.27-14.038-13.96v-6.13H28.42v-11.63H11.698V99.44c0-7.697 6.297-13.958 14.038-13.958h86.528c7.74 0 14.038 6.26 14.038 13.953v47.206h-4.297v11.63h4.297v6.13c0 7.7-6.297 13.96-14.038 13.96z" fill="#181717"/></g></svg>