<svg width="46" height="41" viewBox="0 0 46 41" xmlns="http://www.w3.org/2000/svg" xmlns:xlink="http://www.w3.org/1999/xlink"><title>Page 1 Copy 3</title><defs><path id="a" d="M.036.034H36.83v5.46H.035V.035z"/><path id="c" d="M.043.034h9.25v5.46H.042V.035z"/></defs><g fill="none" fill-rule="evenodd"><path d="M38.99 34.363h-1.534c-.525-2.456-2.682-4.297-5.258-4.297-2.574 0-4.735 1.84-5.26 4.297H18.62c-.527-2.456-2.684-4.297-5.258-4.297-2.576 0-4.733 1.84-5.258 4.297H6.576C5.7 34.3 5.26 33.857 5.26 33.017l.718-5.392c.052-.9.498-1.346 1.306-1.346h1.884v.004h2.657c2.416 0 3.726-1.113 3.953-3.323.086-.676.525-1.047 1.322-1.1h11.365c.79.053 1.23.424 1.31 1.1h.006c.222 2.21 1.54 3.324 3.953 3.324h2.657v-.005h1.884c.814 0 1.25.446 1.308 1.345l.715 5.392c0 .84-.437 1.282-1.308 1.346zm-6.792 3.876c-1.487 0-2.69-1.223-2.69-2.728 0-1.506 1.203-2.726 2.69-2.726 1.485 0 2.69 1.22 2.69 2.726 0 1.505-1.205 2.727-2.69 2.727zm-18.836 0c-1.482 0-2.69-1.223-2.69-2.728 0-1.506 1.208-2.726 2.69-2.726 1.483 0 2.69 1.22 2.69 2.726 0 1.505-1.207 2.727-2.69 2.727zM42.25 27.634h-.013l-.072-.84-.06-.516c-.386-1.792-1.672-2.69-3.83-2.69h-4.542c-.813-.054-1.254-.44-1.318-1.155h-.01c-.24-2.176-1.547-3.268-3.94-3.268H17.1c-2.398 0-3.71 1.092-3.948 3.268h-.005c-.072.714-.507 1.1-1.322 1.154H7.284c-2.164 0-3.447.898-3.83 2.69l-.063.515-.07.84h-.015l-.713 5.382h.02c0 2.688 1.318 4.032 3.964 4.032H8.2c.65 2.265 2.718 3.916 5.162 3.916 2.438 0 4.505-1.65 5.16-3.917h8.515c.652 2.265 2.72 3.916 5.16 3.916s4.508-1.65 5.164-3.917h1.63c2.634 0 3.96-1.345 3.96-4.033h.018l-.72-5.382zM14.775 9.65L12.35 5.4 9.936 9.65c-.204.387-.32.828-.32 1.298 0 1.53 1.228 2.775 2.736 2.775 1.513 0 2.744-1.246 2.744-2.775 0-.47-.12-.91-.32-1.298" fill="#131718"/><path d="M12.296 13.09c-1.107 0-2.005-.91-2.005-2.032 0-.165.132-.3.295-.3.158 0 .29.135.29.3 0 .793.64 1.438 1.42 1.438.164 0 .3.13.3.293 0 .17-.136.3-.3.3M25.505 9.65l-2.42-4.25-2.422 4.25h.006c-.204.387-.33.828-.33 1.298 0 1.53 1.237 2.775 2.745 2.775 1.512 0 2.74-1.246 2.74-2.775 0-.47-.117-.91-.32-1.298" fill="#131718"/><path d="M23.03 13.09c-1.11 0-2.01-.91-2.01-2.032 0-.165.13-.3.29-.3.168 0 .303.135.303.3 0 .793.63 1.438 1.417 1.438.16 0 .29.13.29.293 0 .17-.13.3-.29.3M36.232 9.65h.007L33.813 5.4 31.4 9.65c-.207.387-.316.828-.316 1.298 0 1.53 1.218 2.775 2.73 2.775s2.735-1.246 2.735-2.775c0-.47-.117-.91-.318-1.298" fill="#131718"/><path d="M33.76 13.09c-1.11 0-2.006-.91-2.006-2.032 0-.165.127-.3.295-.3.157 0 .288.135.288.3 0 .793.64 1.438 1.422 1.438.163 0 .29.13.29.293 0 .17-.127.3-.29.3M5.152 12.377h.002L2.73 8.127l-2.415 4.25H.32c-.205.385-.32.83-.32 1.298 0 1.532 1.223 2.772 2.73 2.772 1.512 0 2.744-1.24 2.744-2.772 0-.468-.12-.913-.322-1.298" fill="#131718"/><path d="M2.68 15.814c-1.11 0-2.01-.91-2.01-2.034 0-.165.13-.296.294-.296.163 0 .295.13.295.296 0 .794.632 1.438 1.42 1.438.16 0 .294.13.294.298 0 .166-.135.298-.294.298M45.386 12.377l-2.418-4.25-2.422 4.25c-.203.385-.32.83-.32 1.298 0 1.532 1.23 2.772 2.742 2.772 1.508 0 2.735-1.24 2.735-2.772 0-.468-.116-.913-.317-1.298" fill="#131718"/><path d="M42.91 15.814c-1.11 0-2.015-.91-2.015-2.034 0-.165.136-.296.294-.296.167 0 .302.13.302.296 0 .794.634 1.438 1.417 1.438.158 0 .294.13.294.298 0 .166-.136.298-.295.298" fill="#131718"/><g transform="translate(0 .032)"><mask id="b" fill="#fff"><use xlink:href="#a"/></mask><path d="M4.502 2.12c-.196.407-.51.622-.92.652h.022H.035v2.722h3.726-.004.036c1.317.03 2.29-.635 2.95-2.013 0 0 .022-.052.022-.048.22-.48.562-.678 1.053-.67H36.83V.04L7.426.033V.04C6.134.046 5.154.73 4.502 2.12" fill="#131718" mask="url(#b)"/></g><path fill="#131718" d="M3.585 2.804h-.01.006"/><g transform="translate(36.506 .032)"><mask id="d" fill="#fff"><use xlink:href="#c"/></mask><path d="M4.83 2.12h.005c.197.407.505.622.924.652H5.73 9.29v2.722H5.575h.005-.032c-1.326.03-2.288-.635-2.95-2.013 0 0-.024-.052-.035-.048-.216-.48-.553-.678-1.044-.67H.042V.04L1.91.033V.04c1.293.005 2.273.69 2.92 2.08" fill="#131718" mask="url(#d)"/></g><path d="M42.264 2.804h.01-.01z" fill="#131718"/></g></svg>