<svg width="42" height="38" viewBox="0 0 42 38" xmlns="http://www.w3.org/2000/svg" xmlns:xlink="http://www.w3.org/1999/xlink"><title>Page 1 Copy 5</title><defs><path id="a" d="M8.835.063v2.604H.03V.063h8.805z"/></defs><g fill="none" fill-rule="evenodd"><path d="M35.46 31.02h-1.49c-.51-2.327-2.613-4.077-5.122-4.077-2.508 0-4.612 1.75-5.122 4.077H15.62c-.51-2.327-2.615-4.077-5.124-4.077-2.51 0-4.612 1.75-5.125 4.077H3.88c-.852-.055-1.28-.48-1.28-1.275l.698-5.122c.056-.85.482-1.276 1.278-1.276h1.83v.006h2.59c2.35 0 3.633-1.054 3.854-3.157h.002c.08-.643.505-.994 1.28-1.043h11.076c.77.05 1.196.4 1.278 1.043.22 2.103 1.504 3.157 3.854 3.157h2.59v-.006h1.83c.797 0 1.223.425 1.28 1.276l.695 5.122c0 .796-.426 1.22-1.276 1.275zm-6.614 3.683c-1.447 0-2.624-1.162-2.624-2.59 0-1.43 1.177-2.592 2.624-2.592 1.448 0 2.623 1.166 2.623 2.594 0 1.43-1.178 2.59-2.626 2.59zm-18.352 0c-1.448 0-2.624-1.162-2.624-2.59 0-1.43 1.176-2.592 2.624-2.592 1.446 0 2.622 1.166 2.622 2.594 0 1.43-1.176 2.59-2.622 2.59zm28.15-10.07c-.007.003-.01.003-.018.003l-.066-.8-.06-.49c-.38-1.7-1.625-2.55-3.737-2.55h-1.83v-.004h-2.59c-.797-.05-1.22-.418-1.286-1.094h-.003c-.237-2.067-1.515-3.107-3.845-3.107H14.13c-2.328 0-3.61 1.04-3.843 3.11h-.004c-.067.676-.493 1.043-1.286 1.094H6.405v.003h-1.83c-2.11 0-3.358.85-3.736 2.552l-.064.49-.067.8c-.004 0-.01 0-.015-.004L0 29.746h.016c0 2.55 1.288 3.83 3.863 3.83h1.58c.64 2.143 2.652 3.72 5.03 3.72 2.38 0 4.39-1.577 5.03-3.72h8.293c.64 2.143 2.652 3.72 5.03 3.72 2.38 0 4.39-1.577 5.028-3.72h1.588c2.574 0 3.86-1.28 3.86-3.83h.02l-.697-5.11zM25.904 7.39V1.3c0-.716-.59-1.3-1.317-1.3S23.27.582 23.27 1.3l-.003 6.09h.003c0 .718.59 1.3 1.317 1.3s1.318-.58 1.318-1.3" fill="#231F20"/><g transform="translate(33.004 12.94)"><mask id="b" fill="#fff"><use xlink:href="#a"/></mask><path d="M1.346 2.667c.01 0 .022 0 .032-.002l6.137.002c.727 0 1.32-.582 1.32-1.3 0-.717-.59-1.3-1.32-1.3L1.35.063v.003C.62.066.03.648.03 1.366c-.002.72.59 1.3 1.316 1.3" fill="#231F20" mask="url(#b)"/></g><path d="M31.785 10.024l.02-.023 4.342-4.28c.514-.51.514-1.33 0-1.84-.516-.51-1.348-.51-1.865 0l-4.362 4.3v.007c-.514.506-.514 1.33 0 1.838.516.51 1.35.51 1.865 0" fill="#231F20"/></g></svg>