<svg width="60" height="33" viewBox="0 0 60 33" xmlns="http://www.w3.org/2000/svg"><title>ico</title><g fill="none" fill-rule="evenodd"><path d="M10.25 24.5L3 24.125 4.875 9.25l10.25.125 5.125-6.5 20.375.5L43.75 8.5l11.5 1.375 1.5 10.375-.375 4-6.25.875-4.875-6.875-5.625 1.625-3 5H23l-4.625-6.625-4.875 1.375-3.25 4.875z" fill="#9BC8DB"/><path d="M58.068 11.915c-.004-.033-.01-.065-.015-.098-.265-1.433-1.744-4.145-5.444-4.145h-6.68c-.08 0-.127 0-.2.012-.02.002-.07.005-.147.005-1.574 0-1.758-1.15-1.826-1.59-.254-1.717-1.75-4.94-5.616-4.94H21.014c-1.508.12-4.29 1.216-5.162 4.58-.01.038-.017.076-.024.113-.004.017-.33 1.704-1.647 1.75h-7.3c-.07-.005-.158-.01-.265-.01-1.84 0-4.005 1.03-4.56 3.917l-.014.09L.8 20.84c-.03.254-.275 2.517 1.163 4.14.59.674 1.7 1.477 3.61 1.477h3.48C9.96 29.652 12.913 32 16.41 32c3.492 0 6.444-2.347 7.35-5.54h12.635C37.3 29.652 40.25 32 43.745 32c3.495 0 6.446-2.347 7.35-5.54h4.207c.18-.01 1.132-.096 2.073-.795.84-.624 1.843-1.864 1.843-4.225 0-.064-.006-.13-.014-.194l-1.14-9.33zM20.27 26.46c-.74 1.368-2.19 2.3-3.86 2.3-1.667 0-3.12-.932-3.86-2.3-.33-.612-.52-1.313-.52-2.056 0-.41.06-.806.166-1.183.52-1.822 2.21-3.17 4.215-3.17s3.7 1.348 4.22 3.177c.11.378.167.774.167 1.184 0 .743-.188 1.444-.52 2.057zm27.34 0c-.74 1.368-2.194 2.3-3.862 2.3-1.667 0-3.12-.932-3.86-2.3-.33-.612-.52-1.313-.52-2.056 0-.41.06-.806.165-1.183.52-1.822 2.212-3.17 4.215-3.17 2.004 0 3.696 1.348 4.215 3.177.107.378.166.774.166 1.184 0 .743-.19 1.444-.52 2.057zm7.5-3.24h-3.818c-.572-3.628-3.737-6.413-7.544-6.413-3.806 0-6.97 2.785-7.543 6.414h-12.25c-.573-3.622-3.737-6.41-7.544-6.41-3.8 0-6.97 2.788-7.54 6.417H5.58c-.83 0-1.08-.277-1.163-.368-.404-.447-.41-1.32-.38-1.603l1.23-9.17c.07-.38.28-1.24 1.35-1.24h.032c.07.01.084.007.162.007h7.43c3.113-.076 4.47-2.83 4.774-4.34.474-1.743 1.89-2.06 2.22-2.11h16.91c1.917 0 2.328 1.798 2.394 2.185v.006c.497 3.2 2.933 4.34 5.047 4.34.18 0 .324-.01.422-.016h6.595c1.7 0 2.13 1.076 2.232 1.474l1.117 9.144c-.023 1.352-.572 1.635-.852 1.69z" stroke="#181717" fill="#181717"/></g></svg>