<svg width="76" height="40" viewBox="0 0 76 40" xmlns="http://www.w3.org/2000/svg"><title>icocoche</title><path d="M75.41 26.05l-1.472-12.102c-.005-.042-.012-.084-.02-.126-.34-1.86-2.25-5.377-7.025-5.377h-8.616c-.104 0-.158 0-.257.016-.026.01-.092.01-.185.01-2.03 0-2.267-1.48-2.355-2.05C55.153 4.19 53.22 0 48.233 0H26.295c-.055 0-.11.002-.164.007-1.94.152-5.53 1.576-6.66 5.94l-.03.146c0 .022-.42 2.21-2.12 2.268H7.89c-.087 0-.2-.01-.34-.01-2.375 0-5.168 1.34-5.884 5.08l-.02.12-1.6 11.98c-.04.33-.356 3.27 1.5 5.38.767.88 2.2 1.92 4.662 1.92h4.49C11.86 36.958 15.67 40 20.18 40s8.32-3.045 9.486-7.185h16.308C47.14 36.955 50.95 40 55.46 40c4.508 0 8.317-3.045 9.484-7.185h5.31c.04 0 .078 0 .116-.003.234-.013 1.462-.123 2.676-1.03 1.085-.81 2.378-2.417 2.378-5.48 0-.084-.005-.17-.015-.253zm-50.726 6.513c-.924 1.704-2.738 2.866-4.82 2.866-2.083 0-3.897-1.17-4.82-2.87-.415-.77-.65-1.64-.65-2.57 0-.51.073-1.01.206-1.48.65-2.28 2.762-3.96 5.264-3.96 2.5 0 4.614 1.677 5.263 3.957.133.47.206.962.206 1.473 0 .93-.235 1.8-.65 2.566zm-4.572-12.365c-4.944 0-9.054 3.636-9.798 8.373H6.048c-1.078 0-1.404-.36-1.51-.48-.522-.58-.533-1.72-.494-2.09L5.64 14.03c.097-.495.366-1.62 1.757-1.62h.042c.09.014.11.01.21.01h9.65c4.04-.098 5.81-3.695 6.2-5.662.61-2.28 2.45-2.69 2.88-2.755h6.5l.23.507c.08.466 4.1 6.43 4.1 6.43l-5.63 2.283 6.98 7.354-4.695 3.468L38.1 28.57h-8.2c-.743-4.735-4.853-8.37-9.8-8.37zm40.27 12.365c-.925 1.704-2.74 2.866-4.82 2.866-2.084 0-3.898-1.17-4.822-2.87-.414-.77-.65-1.64-.65-2.57 0-.51.074-1.01.207-1.48.65-2.28 2.762-3.96 5.264-3.96 2.51 0 4.62 1.677 5.27 3.957.14.47.21.962.21 1.473 0 .93-.23 1.8-.65 2.566zm9.913-3.992H65.38c-.737-4.73-4.81-8.37-9.713-8.37-4.902 0-8.977 3.64-9.714 8.38h-5.035L38 25.28l6.348-4.06-6.25-6.73 5.495-2.46L39.426 4h9.03c2.47 0 3 2.344 3.085 2.85.01.003.01.006.01.01.64 4.175 3.78 5.663 6.5 5.663.23 0 .42-.012.55-.022h8.496c2.19 0 2.75 1.41 2.88 1.93l1.44 11.94c-.03 1.77-.74 2.14-1.1 2.21z" fill="#181717" fill-rule="evenodd"/></svg>