<svg width="61" height="33" viewBox="0 0 61 33" xmlns="http://www.w3.org/2000/svg"><title>Imported Layers</title><g fill="none" fill-rule="evenodd"><path d="M44.56 20.093c-1.976 0-3.644 1.324-4.157 3.123-.105.37-.163.76-.163 1.163 0 .73.186 1.42.513 2.02.73 1.34 2.162 2.26 3.806 2.26 1.64 0 3.07-.92 3.8-2.26.32-.61.51-1.3.51-2.03 0-.405-.06-.795-.167-1.165-.51-1.8-2.18-3.123-4.155-3.123m-28.18.002c-1.975 0-3.643 1.323-4.155 3.122-.104.37-.16.76-.16 1.162 0 .73.18 1.42.51 2.02.73 1.344 2.16 2.26 3.804 2.26 1.644 0 3.076-.916 3.805-2.26.326-.603.512-1.293.512-2.024 0-.405-.06-.795-.164-1.165-.51-1.8-2.18-3.124-4.155-3.124M35.7 17.43l-5.01 3.205L33 23.25h3.973c.582-3.74 3.8-6.61 7.67-6.61 3.868 0 7.085 2.87 7.667 6.61h3.88c.287-.055.845-.347.87-1.74l-1.137-9.424c-.103-.41-.544-1.52-2.273-1.52h-6.706c-.1.007-.248.016-.43.016-2.15 0-4.624-1.173-5.127-4.47 0-.002 0-.005-.002-.007-.067-.4-.485-2.25-2.434-2.25h-7.13l3.29 6.344-4.33 1.93 4.93 5.31M5.47 23.25h3.368c.587-3.74 3.832-6.61 7.735-6.61 3.904 0 7.148 2.87 7.736 6.61h6.47l-3.348-3.57 3.706-2.74-5.51-5.808 4.44-1.803S26.9 4.62 26.83 4.25l-.18-.4h-5.13c-.34.05-1.79.37-2.28 2.17-.31 1.55-1.703 4.39-4.894 4.47H6.74c-.08 0-.1 0-.172-.01h-.034c-1.097 0-1.31.886-1.386 1.276l-1.26 9.452c-.03.29-.023 1.19.39 1.65.084.094.34.38 1.19.38" fill="#9BC8DB"/><path d="M5.595 26.602H9.14c.92 3.268 3.927 5.672 7.487 5.672s6.567-2.404 7.488-5.672H36.99c.92 3.268 3.928 5.672 7.488 5.672 3.56 0 6.567-2.404 7.488-5.672h4.194c.03 0 .06 0 .09-.003.185-.01 1.154-.1 2.113-.82.856-.64 1.878-1.91 1.878-4.33 0-.07 0-.136-.01-.2l-1.16-9.55-.01-.1c-.27-1.47-1.778-4.246-5.548-4.246h-6.8c-.084 0-.126 0-.205.013h-.145c-1.608 0-1.79-1.174-1.86-1.624C44.232 4 42.71.696 38.77.696H21.45c-.043 0-.086 0-.13.005-1.535.12-4.37 1.25-5.258 4.69-.01.04-.02.08-.026.12 0 .02-.33 1.745-1.673 1.79H6.92c-.067-.002-.158-.006-.267-.006-1.875 0-4.08 1.055-4.645 4.01l-.015.09L.73 20.85c-.032.26-.28 2.577 1.184 4.24.606.69 1.737 1.512 3.68 1.512zm14.587-.2c-.73 1.346-2.16 2.263-3.805 2.263-1.644 0-3.076-.917-3.806-2.262-.32-.603-.51-1.293-.51-2.024 0-.41.06-.8.17-1.17.51-1.8 2.18-3.128 4.158-3.128s3.643 1.324 4.155 3.123c.105.37.163.76.163 1.163 0 .73-.185 1.42-.512 2.023zm28.182 0c-.73 1.346-2.16 2.263-3.805 2.263s-3.08-.917-3.81-2.262c-.33-.603-.52-1.293-.52-2.024 0-.41.056-.8.16-1.17.513-1.8 2.18-3.128 4.156-3.128 1.973 0 3.642 1.324 4.154 3.123.105.37.163.76.163 1.163 0 .73-.187 1.42-.514 2.023zM31.82 3.852h7.13c1.95 0 2.368 1.853 2.435 2.25 0 .004 0 .007.002.01.503 3.296 2.978 4.47 5.127 4.47.182 0 .33-.01.43-.017h6.706c1.73 0 2.17 1.11 2.273 1.52l1.136 9.425c-.03 1.392-.59 1.684-.87 1.74h-3.88c-.58-3.74-3.8-6.61-7.67-6.61s-7.09 2.87-7.67 6.61H33l-2.305-2.603 5.01-3.205-4.93-5.31 4.335-1.935-3.29-6.344zM3.888 21.22l1.26-9.453c.077-.39.29-1.278 1.387-1.278h.034c.07.01.09 0 .17 0h7.62c3.19-.08 4.58-2.92 4.89-4.47.482-1.8 1.932-2.12 2.28-2.178h5.13l.18.4c.06.37 3.24 5.076 3.24 5.076l-4.44 1.803 5.51 5.81-3.71 2.737 3.34 3.57h-6.47c-.59-3.74-3.834-6.61-7.738-6.61-3.903 0-7.148 2.87-7.735 6.61h-3.37c-.85 0-1.106-.285-1.19-.38-.413-.458-.42-1.36-.39-1.65z" fill="#161615"/></g></svg>