<svg width="61" height="33" viewBox="0 0 61 33" xmlns="http://www.w3.org/2000/svg"><title>Imported Layers</title><g fill="none" fill-rule="evenodd"><path d="M44.56 20.093c-1.976 0-3.644 1.324-4.157 3.123-.105.37-.163.76-.163 1.163 0 .73.186 1.42.513 2.02.73 1.342 2.162 2.26 3.806 2.26 1.64 0 3.07-.918 3.8-2.26.325-.605.51-1.295.51-2.026 0-.404-.057-.794-.162-1.164-.51-1.8-2.18-3.122-4.155-3.122m-28.18.002c-1.975 0-3.643 1.324-4.155 3.123-.104.37-.16.76-.16 1.163 0 .73.18 1.42.51 2.02.73 1.345 2.16 2.262 3.804 2.262 1.644 0 3.076-.917 3.805-2.262.326-.602.512-1.292.512-2.023 0-.404-.06-.794-.164-1.164-.51-1.8-2.18-3.124-4.155-3.124m19.33-2.648l-5.01 3.204L33 23.25h3.973c.582-3.74 3.8-6.61 7.67-6.61 3.868 0 7.085 2.87 7.667 6.61h3.88c.287-.055.845-.347.87-1.74l-1.137-9.424c-.103-.41-.544-1.52-2.273-1.52h-6.706c-.1.007-.248.016-.43.016-2.15 0-4.624-1.173-5.127-4.47 0-.002 0-.005-.002-.007-.067-.4-.485-2.25-2.434-2.25h-7.13l3.29 6.344-4.33 1.93 4.93 5.31M5.47 23.25h3.368c.587-3.74 3.832-6.61 7.735-6.61 3.904 0 7.148 2.87 7.736 6.61h6.47l-3.343-3.57 3.706-2.74-5.51-5.808 4.44-1.803s-3.17-4.71-3.238-5.08l-.18-.4h-5.13c-.34.05-1.79.372-2.28 2.17-.31 1.553-1.703 4.393-4.894 4.47H6.74c-.08 0-.1.003-.172-.007h-.034c-1.097 0-1.31.887-1.386 1.277l-1.26 9.453c-.03.29-.023 1.192.39 1.65.084.095.34.38 1.19.38" fill="#9BC8DB"/><path d="M5.595 26.602H9.14c.92 3.268 3.927 5.672 7.487 5.672s6.567-2.404 7.488-5.672H36.99c.92 3.268 3.928 5.672 7.488 5.672 3.56 0 6.567-2.404 7.488-5.672h4.194c.03 0 .06 0 .09-.003.185-.01 1.154-.1 2.113-.82.856-.64 1.878-1.91 1.878-4.326 0-.068 0-.135-.01-.2L59.07 11.7l-.013-.1c-.27-1.467-1.777-4.244-5.547-4.244h-6.8c-.085 0-.127 0-.206.013-.02 0-.07.004-.145.004-1.605 0-1.79-1.175-1.86-1.625C44.235 4 42.71.696 38.772.696h-17.32c-.043 0-.086 0-.13.005-1.535.12-4.37 1.245-5.258 4.69-.01.04-.02.077-.026.116 0 .018-.33 1.744-1.673 1.79H6.92c-.067-.003-.158-.007-.267-.007-1.875 0-4.08 1.054-4.645 4.01l-.015.09L.73 20.85c-.032.26-.28 2.577 1.184 4.24.606.69 1.737 1.512 3.68 1.512zm14.587-.2c-.73 1.346-2.16 2.263-3.805 2.263-1.644 0-3.076-.917-3.806-2.262-.32-.603-.51-1.293-.51-2.024 0-.41.06-.8.168-1.17.512-1.8 2.18-3.123 4.155-3.123s3.643 1.324 4.155 3.123c.105.37.163.76.163 1.164 0 .73-.185 1.42-.512 2.023zm28.182 0c-.73 1.346-2.16 2.263-3.805 2.263s-3.08-.917-3.81-2.262c-.33-.603-.516-1.293-.516-2.024 0-.41.057-.8.162-1.17.512-1.8 2.18-3.123 4.155-3.123 1.974 0 3.643 1.324 4.155 3.123.104.37.162.76.162 1.164 0 .73-.187 1.42-.514 2.023zM31.82 3.852h7.13c1.95 0 2.368 1.853 2.435 2.25 0 .004 0 .007.002.01.503 3.296 2.978 4.47 5.127 4.47.182 0 .33-.01.43-.017h6.706c1.73 0 2.17 1.11 2.273 1.52l1.136 9.425c-.03 1.392-.59 1.684-.87 1.74h-3.88c-.58-3.74-3.8-6.61-7.67-6.61s-7.09 2.87-7.67 6.61H33l-2.305-2.603 5.01-3.205-4.93-5.31 4.335-1.935-3.29-6.344zM3.888 21.22l1.26-9.453c.077-.39.29-1.278 1.387-1.278h.034c.07.01.09 0 .17 0h7.62c3.19-.077 4.58-2.917 4.89-4.47.487-1.8 1.937-2.12 2.28-2.173h5.13l.18.4c.066.37 3.24 5.076 3.24 5.076l-4.44 1.803 5.51 5.81-3.71 2.736 3.345 3.57H24.31c-.59-3.74-3.833-6.61-7.737-6.61-3.903 0-7.148 2.87-7.735 6.61h-3.37c-.85 0-1.106-.285-1.19-.38-.413-.458-.42-1.36-.39-1.65z" fill="#161615"/></g></svg>