<svg width="61" height="35" viewBox="0 0 61 35" xmlns="http://www.w3.org/2000/svg"><title>Imported Layers</title><path d="M59.004 11.16c-.004-.035-.01-.07-.015-.103-.28-1.487-1.8-4.3-5.61-4.3H46.5c-.083 0-.126 0-.205.012h-.148c-1.62 0-1.81-1.19-1.88-1.65C44.014 3.35 42.47 0 38.49 0H20.98c-.042 0-.085.002-.13.005-1.55.122-4.42 1.26-5.315 4.752-.01.04-.018.078-.026.117 0 .018-.34 1.767-1.69 1.815H6.29c-.07-.01-.16-.01-.27-.01-1.897 0-4.126 1.06-4.697 4.06l-.015.09L.04 20.42c-.034.26-.285 2.61 1.195 4.295.614.7 1.757 1.532 3.72 1.532H8.54c.93 3.31 3.97 5.745 7.57 5.745 3.597 0 6.637-2.434 7.57-5.746h13.01c.93 3.313 3.97 5.75 7.57 5.75 3.597 0 6.637-2.436 7.57-5.748h4.236c.03 0 .06 0 .092-.002.187-.01 1.167-.093 2.136-.82.865-.644 1.897-1.93 1.897-4.38 0-.07 0-.137-.01-.204l-1.17-9.68zM20.03 26.54c-.773 1.434-2.29 2.412-4.03 2.412-1.74 0-3.257-.978-4.03-2.413-.345-.65-.54-1.38-.54-2.16 0-.43.06-.85.17-1.24.543-1.92 2.31-3.33 4.4-3.33 2.09 0 3.857 1.41 4.4 3.33.11.39.17.81.17 1.24 0 .78-.195 1.51-.54 2.16zm28.19 0c-.773 1.434-2.29 2.412-4.03 2.412-1.74 0-3.256-.978-4.028-2.413-.346-.65-.543-1.38-.543-2.16 0-.43.06-.85.17-1.24.54-1.92 2.31-3.33 4.4-3.33s3.85 1.41 4.4 3.33c.11.39.17.81.17 1.24 0 .78-.2 1.51-.55 2.16zm7.285-3.683h-3.92c-.588-3.82-3.838-6.75-7.747-6.75-3.91 0-7.16 2.93-7.748 6.75H23.51c-.588-3.82-3.837-6.75-7.747-6.75-3.91 0-7.16 2.93-7.747 6.75H4.643c-.853 0-1.11-.293-1.195-.39-.412-.468-.42-1.388-.39-1.685L4.32 11.13c.077-.4.29-1.306 1.39-1.306h.033c.07.01.09.01.17.01h7.593c.013 0 .027 0 .04-.002 3.196-.08 4.592-2.98 4.902-4.565.487-1.836 1.94-2.167 2.282-2.22h17.357c1.97 0 2.392 1.89 2.46 2.298v.007c.51 3.367 3.01 4.567 5.182 4.567.18 0 .33-.01.43-.02h6.77c1.74 0 2.19 1.13 2.29 1.55l1.145 9.62c-.024 1.42-.588 1.72-.876 1.78z" fill="#fff" fill-rule="evenodd"/></svg>