<svg width="60" height="33" viewBox="0 0 60 33" xmlns="http://www.w3.org/2000/svg"><title>Fill 1</title><path d="M58.068 11.915c-.004-.033-.01-.065-.015-.098-.265-1.433-1.744-4.145-5.444-4.145h-6.68c-.08 0-.13 0-.2.012-.02.002-.07.005-.15.005-1.573 0-1.757-1.15-1.825-1.59-.254-1.72-1.75-4.94-5.616-4.94H21.013c-1.508.12-4.29 1.214-5.162 4.58-.01.036-.017.074-.024.11-.004.018-.33 1.705-1.647 1.75h-7.3c-.07-.004-.156-.01-.263-.01-1.84 0-4.005 1.03-4.56 3.918l-.014.09L.8 20.84c-.03.254-.275 2.517 1.163 4.14.59.674 1.7 1.477 3.61 1.477h3.48C9.96 29.652 12.913 32 16.41 32c3.492 0 6.444-2.347 7.35-5.54h12.635C37.3 29.652 40.25 32 43.745 32c3.495 0 6.446-2.347 7.35-5.54h4.207c.18-.01 1.132-.096 2.073-.795.84-.624 1.843-1.864 1.843-4.225 0-.064-.006-.13-.014-.194l-1.14-9.33zM20.27 26.46c-.74 1.368-2.19 2.3-3.86 2.3-1.667 0-3.12-.932-3.86-2.3-.33-.612-.52-1.313-.52-2.056 0-.41.06-.806.166-1.183.52-1.82 2.21-3.17 4.215-3.17s3.7 1.35 4.22 3.18c.11.377.17.773.17 1.183 0 .743-.19 1.444-.52 2.057zm27.34 0c-.74 1.368-2.194 2.3-3.862 2.3-1.667 0-3.12-.932-3.86-2.3-.33-.612-.52-1.313-.52-2.056 0-.41.06-.806.165-1.183.52-1.82 2.212-3.17 4.215-3.17 2.004 0 3.696 1.35 4.215 3.18.107.377.166.773.166 1.183 0 .743-.19 1.444-.52 2.057zm7.5-3.24h-3.818c-.572-3.628-3.737-6.413-7.544-6.413-3.806 0-6.97 2.785-7.543 6.414h-12.25c-.573-3.62-3.737-6.41-7.544-6.41-3.8 0-6.97 2.79-7.54 6.42H5.58c-.83 0-1.08-.278-1.163-.37-.404-.446-.41-1.32-.38-1.602l1.23-9.17c.07-.38.28-1.24 1.35-1.24h.032c.07.01.082.007.16.007h7.43c3.113-.076 4.47-2.83 4.774-4.34.474-1.743 1.89-2.06 2.22-2.11h16.91c1.917 0 2.328 1.798 2.394 2.185v.005c.496 3.2 2.932 4.34 5.046 4.34.18 0 .324-.01.422-.016H52.6c1.7 0 2.13 1.074 2.233 1.472l1.117 9.144c-.023 1.352-.572 1.635-.852 1.69z" stroke="#181717" fill="#181717" fill-rule="evenodd"/></svg>