<svg width="230" height="158" viewBox="0 0 230 158" xmlns="http://www.w3.org/2000/svg"><title>Imported Layers</title><g fill="none" fill-rule="evenodd"><path fill="#9BC8DB" d="M2 50h221v99H2z"/><path d="M221.963.3H8.847c-4.41 0-8 3.588-8 8v141.444c0 4.41 3.59 8 8 8h213.116c4.41 0 8-3.59 8-8V8.3c0-4.412-3.59-8-8-8zm-211.116 10h209.116v35.683H10.847V10.3zm0 45.682h209.116v91.762H10.847V55.982zm122.08 20.715h20.328v20.327h-20.327V76.697zm30.328 0h20.327v20.327h-20.327V76.697z" fill="#000"/></g></svg>