<svg width="110" height="217" viewBox="0 0 110 217" xmlns="http://www.w3.org/2000/svg"><title>movil dibujo</title><g fill="none" fill-rule="evenodd"><path fill="#9BC8DB" d="M10 48h96v120H10z"/><path d="M96.046 0H13.954C6.26 0 0 6.268 0 13.974v189.052C0 210.73 6.26 217 13.954 217h82.092c7.695 0 13.954-6.27 13.954-13.974V13.974C110 6.268 103.74 0 96.046 0zM13.954 9.982h82.092c2.2 0 3.987 1.79 3.987 3.992v28.27H9.967v-28.27c0-2.202 1.788-3.992 3.987-3.992zM9.967 52.226h90.066V164.15H9.967V52.227zm86.08 154.792H13.953c-2.2 0-3.987-1.79-3.987-3.992v-28.894h90.066v28.894c0 2.202-1.788 3.992-3.987 3.992zM35.997 34h37.007C75.764 34 78 31.762 78 29s-2.236-5-4.996-5H35.996C33.236 24 31 26.238 31 29s2.236 5 4.996 5" fill="#000"/><path d="M54.5 176c-7.995 0-14.5 6.505-14.5 14.5S46.505 205 54.5 205c7.994 0 14.5-6.505 14.5-14.5S62.494 176 54.5 176zm0 19.11c-2.543 0-4.612-2.068-4.612-4.61 0-2.542 2.07-4.61 4.612-4.61 2.543 0 4.61 2.068 4.61 4.61 0 2.542-2.067 4.61-4.61 4.61z" fill="#000"/></g></svg>