<svg width="33" height="50" viewBox="0 0 33 50" xmlns="http://www.w3.org/2000/svg"><title>icono puntos</title><g fill-rule="evenodd"><path d="M6.258 16.343c.004 2.14.668 4.18 1.918 5.903l2.386-1.753c-.88-1.212-1.346-2.65-1.35-4.156l-2.954.006m6.88-9.575c-1.986.654-3.756 1.955-4.985 3.664l2.393 1.743c.867-1.205 2.114-2.122 3.512-2.583l-.92-2.824m6.172-.018l-.903 2.83c1.4.45 2.652 1.36 3.526 2.56l2.383-1.757c-1.24-1.7-3.017-2.992-5.006-3.634m-5.226 16.31l-.91 2.824c.992.322 2.028.486 3.078.486 1.058 0 2.1-.165 3.096-.492l-.915-2.826c-1.398.46-2.95.46-4.35.005m11.69-6.77l-2.482.03c0 1.506-.46 2.945-1.34 4.16l2.39 1.75c1.25-1.727 1.91-3.77 1.91-5.935l-.47-.003"/><path d="M16.252.125C7.372.125.15 7.39.15 16.322c0 4.665 1.973 8.874 5.12 11.83V49.83l10.85-9.42 11.113 9.354v-21.61c3.15-2.958 5.122-7.167 5.122-11.832 0-8.93-7.224-16.197-16.103-16.197zM9.407 42.31l-1.182 1.03V30.355c.385.224.78.433 1.182.624v11.33zm10.34-2.72l-3.658-3.08-3.73 3.236V32.04c1.242.312 2.55.48 3.89.48 1.2 0 2.37-.137 3.49-.39v7.46zm4.533 3.81l-1.577-1.326V31.16c.542-.24 1.067-.51 1.576-.805v13.047zm-8.03-13.852c-7.25 0-13.147-5.933-13.147-13.226C3.103 9.03 9 3.097 16.25 3.097S29.4 9.03 29.4 16.322c0 7.293-5.898 13.226-13.148 13.226z"/></g></svg>