<svg width="222" height="247" viewBox="0 0 222 247" xmlns="http://www.w3.org/2000/svg"><title>ordenador ilustracion</title><g fill="none" fill-rule="evenodd"><path fill="#9BC8DB" d="M5 5h212v111H5z"/><path d="M222 131.302V13.548C222 6.078 215.92 0 208.444 0H13.556C6.08 0 0 6.078 0 13.548v117.754c0 7.47 6.08 13.548 13.556 13.548h71.38l-6.192 15.804v-.09H61.657l-.585.042c-4.193.586-12.123 4.113-12.123 13.28v7.444h-35.4C6.08 181.33 0 187.408 0 194.878v38.575C0 240.923 6.08 247 13.556 247H147.85c7.474 0 13.556-6.077 13.556-13.547v-38.575c0-7.47-6.082-13.548-13.556-13.548H57.42v-7.444c0-3.63 3.472-4.626 4.6-4.853h15.364c.272 1.174.784 2.42 1.712 3.525 1.05 1.25 2.993 2.738 6.284 2.738h51.4c3.29 0 5.233-1.488 6.283-2.738.93-1.105 1.44-2.35 1.713-3.525h47.63c2.55 0 4.44.617 5.617 1.833 1.835 1.894 1.763 4.9 1.763 4.9v7.347h-4.7c-4.204 0-7.624 3.418-7.624 7.62v36.384c0 4.203 3.42 7.62 7.625 7.62h17.868c4.205 0 7.625-3.417 7.625-7.62v-36.383c0-4.203-3.42-7.62-7.625-7.62h-4.702v-7.033c.038-1.13.004-6.73-4.04-10.99-2.84-3-6.813-4.52-11.808-4.52h-49.023l-6.157-15.71h71.22c7.474 0 13.555-6.075 13.555-13.545zm-74.15 58.495c2.803 0 5.083 2.28 5.083 5.08v38.576c0 2.8-2.28 5.08-5.083 5.08H13.556c-2.804 0-5.084-2.28-5.084-5.08v-38.575c0-2.802 2.28-5.08 5.084-5.08H147.85zm48.084 1.784h3.85l-.002 6.24h-3.848v-6.24zm12.32 0h3.854v6.24h-3.855v-6.23zm-12.32 14.71h16.174v19.99h-16.174v-19.99zM8.472 13.55c0-2.8 2.28-5.08 5.084-5.08h194.888c2.804 0 5.084 2.28 5.084 5.08v97.522H8.472V13.547zm128.094 153.28H85.594c-.01-.128-.017-.268-.014-.398l.898-2.295 49.21.014.89 2.27c0 .13 0 .27-.012.41zm-46.794-11.1l4.263-10.878h34.09l4.248 10.84c-15.28.04-34.588.07-42.6.04zm-76.216-19.35c-2.804 0-5.084-2.28-5.084-5.08v-11.764h205.056V131.3c0 2.8-2.28 5.08-5.084 5.08H13.556zM13 195h14v7H13v-7zm0 10h14v7H13v-7zm0 11h14v7H13v-7zm0 10h14v7H13v-7zm20-31h14v7H33v-7zm0 10h14v7H33v-7zm0 11h14v7H33v-7zm0 10h14v7H33v-7zm20-31h14v7H53v-7zm0 10h14v7H53v-7zm0 11h14v7H53v-7zm0 10h75v7H53v-7zm20-31h14v7H73v-7zm0 10h14v7H73v-7zm0 11h14v7H73v-7zm21-21h14v7H94v-7zm0 10h14v7H94v-7zm0 11h14v7H94v-7zm20-21h14v7h-14v-7zm0 10h14v7h-14v-7zm0 11h14v7h-14v-7zm20-21h14v7h-14v-7zm0 10h14v7h-14v-7zm0 11h14v7h-14v-7zm0 10h14v7h-14v-7z" fill="#000"/><circle fill="#fff" cx="109.5" cy="24.5" r="4.5"/><path d="M110.5 21.047c1.904 0 3.452 1.55 3.452 3.452s-1.548 3.45-3.452 3.45-3.453-1.55-3.453-3.46c0-1.908 1.55-3.457 3.453-3.457m0-5.047c-4.694 0-8.5 3.805-8.5 8.5 0 4.694 3.806 8.5 8.5 8.5s8.5-3.806 8.5-8.5c0-4.695-3.806-8.5-8.5-8.5" fill="#000"/></g></svg>