<svg width="16" height="17" viewBox="0 0 16 17" xmlns="http://www.w3.org/2000/svg"><title>16_google+</title><path d="M13.052 2.995v-1.97h-1.018v1.97h-1.992v1.022h1.992V5.99h1.018V4.017h1.96V2.995h-1.96zM5.157 16.042c-2.153 0-3.307-1.075-3.307-2.677 0-1.604 1.568-2.394 4.507-2.394.797.62 2.22 1.36 2.22 2.86 0 1.495-1.267 2.218-3.42 2.218zm.308-8.473c-2.592 0-3.768-6.06-.72-6.06 2.374-.09 4.16 6.053.72 6.053zm3.092 2.672c-1.633-1.16-2.244-1.71-1.197-2.63 1.044-.923 1.87-1.67 1.87-3.38 0-1.715-1.414-2.59-1.414-2.59s1.023.15 1.568-.156c.545-.31.783-.508.783-.508H4.963c-1.044 0-3.94 1.183-3.94 3.95 0 2.766 3.004 3.36 4.094 3.314-.61.746-.088 1.426.24 1.776.327.35.26.46-.13.46C4.833 10.488 0 10.54 0 14c0 3.462 6.423 3.712 8.535 1.847 2.11-1.865 1.655-4.437.022-5.6z" fill="#fff" fill-rule="evenodd"/></svg>