<svg xmlns="http://www.w3.org/2000/svg" viewBox="0 0 66.8 66.5"><path d="M26.9 37.4c-3.5 0-6.6 2.1-6.6 4.7s2.5 4.8 6 4.8c4.9 0 6.6-2.1 6.6-4.7 0-.3 0-.6-.1-.9-.4-1.5-1.7-2.2-3.6-3.5-.8-.3-1.5-.4-2.3-.4zm7.4-30.9C19.2 6.5 6.9 18.7 6.9 33.8c0 15.1 12.2 27.3 27.3 27.3 15.1 0 27.3-12.2 27.3-27.3.1-15.1-12.2-27.3-27.2-27.3zm-.4 19.4c0 1.9-1.1 3.5-2.5 4.7-1.5 1.1-1.7 1.6-1.7 2.6 0 .8 1.6 2.2 2.4 2.8 2.4 1.7 3.1 3.2 3.1 5.9 0 3.3-3.1 6.5-8.9 6.5-5 0-9.2-2-9.2-5.3s3.9-6.5 8.9-6.5h1.6c-.7-.7-1.2-1.5-1.2-2.5 0-.6.2-1.2.5-1.7h-.8c-4.1 0-6.9-2.9-6.9-6.5 0-3.5 3.8-6.6 7.8-6.6h9l-2 1.5h-3c1.9.6 2.9 2.8 2.9 5.1zm17.6 1H46v5.5h-2.2v-5.5h-5.5v-2.2h5.5v-5.5H46v5.5h5.5v2.2zm-25.8-6.4c-2.3-.1-3.9 2.3-3.5 5.3s2.6 5.6 4.9 5.6c2.3.1 3.9-2.3 3.5-5.4-.4-3-2.6-5.4-4.9-5.5z" fill="#fff"/></svg>