<svg width="46" height="42" viewBox="0 0 46 42" xmlns="http://www.w3.org/2000/svg" xmlns:xlink="http://www.w3.org/1999/xlink"><title>Page 1 Copy</title><defs><path id="a" d="M21.56 36.08V.084H.036V36.08z"/><path id="c" d="M.017 11.92H5.19V.072H.017z"/><path id="e" d="M0 33.42V.066h29.54V33.42z"/></defs><g fill="none" fill-rule="evenodd"><path d="M13.93 12.052c.12-1.196.593-2.104 1.307-2.755.704-.65 1.695-.98 2.84-.98 1.997 0 3.57 1.177 3.57 3.308 0 .908-.355 1.88-1.174 2.345 1.186.32 1.83 1.712 1.83 2.874 0 2.498-2.123 3.78-4.345 3.78-1.27 0-2.433-.345-3.33-1.282-.665-.697-1.302-1.877-1.275-2.877h2.96c0 .91.637 1.62 1.555 1.62.887 0 1.556-.608 1.556-1.528 0-.86-.723-1.525-1.542-1.525-.176 0-.342.044-.5.09v-1.984h.293c.742 0 1.274-.468 1.274-1.255 0-.692-.487-1.15-1.14-1.15-.74 0-1.205.578-1.184 1.32H13.93zM12.35 23.66h-.01l-.388 1.18h.784l-.385-1.18zm-.663 1.918l-.246.644h-1.005l1.398-3.71h1.033l1.37 3.71H13.23l-.242-.644h-1.3zM15.388 22.155l-.005-.055c0-.157.027-.304.104-.44.085-.15.243-.275.427-.275.248 0 .592.168.788.168.117 0 .15-.07.194-.177h.405c-.03.356-.215.78-.62.78-.252 0-.514-.185-.74-.185-.114 0-.13.093-.156.185h-.396zm-.86.358h.94l1.736 2.27h.007v-2.27h.944v3.71h-.943l-1.723-2.274h-.018v2.272h-.943v-3.71zM19.575 24.305c0 .64.463 1.11 1.024 1.11.562 0 1.023-.47 1.023-1.11 0-.51-.46-.98-1.024-.98-.562 0-1.025.47-1.025.98m3.034-.005c0 1.198-.843 2.047-2.01 2.047-1.17 0-2.01-.85-2.01-2.047 0-1.12.964-1.91 2.01-1.91 1.048 0 2.01.79 2.01 1.91M25.04 23.47c-.173-.15-.392-.246-.626-.246-.173 0-.407.1-.407.31 0 .216.26.298.428.354l.234.074c.505.15.892.41.892 1.01 0 .368-.083.75-.37.998-.287.247-.67.354-1.034.354-.46 0-.903-.158-1.28-.426l.406-.778c.24.212.518.384.838.384.225 0 .46-.113.46-.372 0-.27-.373-.36-.575-.425-.59-.168-.984-.328-.984-1.05 0-.748.53-1.242 1.254-1.242.37 0 .817.118 1.14.303l-.377.753z" fill="#231F20"/><g transform="translate(24.245 4.97)"><mask id="b" fill="#fff"><use xlink:href="#a"/></mask><path d="M2.75 30.708c-.27.917.096 1.903.91 2.398.314.196.674.3 1.05.3.72 0 1.384-.385 1.758-1.016.09-.158.167-.335.22-.53l.017-.073L10.62 20.05c.886-2.447 1.82-3.93 3.988-4.248l.052-.006c.502-.05 2.222-.373 3.352-2.29 1.152-1.942 1.013-3.956.69-5.305-.52.892-1.062 1.81-1.28 2.15-.495.958-1.65 2.037-3.36 2.037-.917 0-1.892-.312-2.898-.928-1.82-1.085-2.467-2.41-2.69-3.332-.304-1.253.004-2.378.36-2.952l.036-.048c.106-.167.646-1.08 1.247-2.114-1.294.323-3.02 1.08-4.17 2.828-.15.257-.465.892-.654 1.328-1.038 2.62-.056 4.41.92 5.673 1.525 2.03 1.446 3.318.663 5.614l-1.81 5.37c-.057.164-.72 2.13-.732 2.17l-1.584 4.71zm1.96 5.372c-.844 0-1.675-.234-2.402-.68-1.853-1.134-2.7-3.396-2.057-5.5l.012-.038 1.592-4.736c.002-.014.648-1.93.738-2.183l1.805-5.36c.6-1.78.527-2.048-.26-3.093C2.1 11.838 1.682 9.105 2.87 6.138l.02-.044c.193-.44.58-1.252.818-1.655l.032-.05C6.464.2 11.32.083 11.862.083l.4.01.802.49 1.112.684-.66 1.142c-.35.61-2.066 3.577-2.453 4.18-.056.12-.552 1.385 1.434 2.557l.022.015c.573.354 1.11.543 1.54.543.746 0 1.043-.6 1.057-.63l.038-.082.06-.077c.174-.27 1.484-2.52 2.358-4.028l.673-1.162 2 1.226.175.318c.102.2 2.612 4.956-.16 9.617-1.172 2-3.153 3.337-5.303 3.57-.633.1-1.085.338-1.868 2.505L9.2 32.617c-.11.408-.278.798-.485 1.15-.837 1.428-2.373 2.313-4.005 2.313z" fill="#231F20" mask="url(#b)"/></g><g transform="translate(14.876 29.314)"><mask id="d" fill="#fff"><use xlink:href="#c"/></mask><path fill="#231F20" mask="url(#d)" d="M5.19 11.92L2.605 7.956.017 11.92V.072H5.19"/></g><path fill="#231F20" d="M13.456 27.827v.075M24.284 30.196c-.637-.293-1.17-.53-1.603-.72-.406-.172-.86-.088-1.17.192v3.27h1.218v-.002c.392-.014.72-.272.85-.633l.503-1.51c0-.006.093-.262.204-.597"/><g transform="translate(0 .017)"><mask id="f" fill="#fff"><use xlink:href="#e"/></mask><path d="M29.3 4.734c-.266-.25-.63-.357-.982-.28-.496.1-1.216.274-2.125.515-.35.092-.662.172-.95.242-.068-.304-.156-.647-.255-1.032-.225-.912-.394-1.6-.48-2.046-.07-.374-.323-.687-.67-.83-.342-.146-.74-.104-1.05.112l-2.6 1.805L18.42.564c-.205-.303-.54-.487-.898-.496-.36-.005-.71.165-.92.46-.442.618-.865 1.232-1.243 1.81l-.59.884-2.608-1.804c-.304-.216-.7-.258-1.047-.11-.347.14-.592.454-.67.828-.093.455-.25 1.146-.478 2.046-.097.385-.19.728-.257 1.032-.28-.07-.594-.15-.945-.243-.92-.242-1.63-.417-2.12-.516-.36-.077-.726.03-.987.28-.265.255-.39.62-.34.983l.42 3.225c-.345.053-.683.106-1.018.147l-2.11.293c-.37.046-.688.28-.855.62-.167.345-.15.744.036 1.072.512.9 1.023 1.83 1.53 2.774-.27.16-.566.34-.912.54-.81.488-1.42.842-1.82 1.063-.323.178-.54.514-.582.892-.038.375.115.746.396.986l2.41 2.042c-.67.804-1.345 1.643-2.007 2.52-.234.292-.304.68-.194 1.037.105.353.382.633.735.748 1.094.36 2.094.698 2.98 1.01-.26.803-.598 1.81-1.026 3.045-.115.36-.06.75.16 1.053.222.305.575.48.942.458l3.16-.143.143 3.233c.01.37.214.714.522.913.304.196.69.23 1.024.08.56-.242 1.29-.57 2.167-.976.146.324.45.554.824.568v.002h1.216V29.65c-.198-.177-.455-.28-.725-.28l-.015-.002c-.16 0-.312.033-.463.105-.084.036-.162.07-.232.11-.383.162-.824.366-1.34.596 0 .004.005.007.005.01-.293.14-.565.263-.826.382l-.123-2.704c-.01-.3-.14-.588-.36-.79-.216-.205-.504-.31-.797-.3l-2.638.118c.365-1.078.644-1.928.837-2.574.18-.58-.13-1.2-.683-1.408-.75-.275-1.598-.575-2.546-.894.57-.706 1.13-1.382 1.69-2.03.2-.23.297-.534.274-.84-.03-.312-.168-.593-.403-.79l-2.04-1.73c.146-.084.3-.174.46-.27.823-.486 1.428-.845 1.82-1.06.543-.3.747-.99.45-1.542-.416-.795-.835-1.58-1.254-2.346l.475-.063c.706-.103 1.43-.217 2.158-.345.583-.105.986-.665.907-1.27l-.35-2.684c.152.042.31.08.472.126.923.244 1.638.417 2.125.514.292.06.59 0 .84-.166.24-.17.416-.43.47-.726.092-.45.25-1.142.484-2.05.042-.18.092-.35.13-.52l2.173 1.52c.514.35 1.203.213 1.547-.306L17.21 3.61c.09-.137.18-.27.27-.41l1.49 2.242c.348.52 1.048.656 1.554.305l2.177-1.52c.044.17.09.34.136.52.225.91.383 1.602.47 2.05.122.62.712 1.02 1.31.893.5-.097 1.196-.27 2.13-.514.154-.044.302-.08.44-.115.673-.776 1.465-1.448 2.354-1.99-.063-.123-.142-.236-.24-.336" fill="#231F20" mask="url(#f)"/></g></g></svg>