<svg width="46" height="42" viewBox="0 0 46 42" xmlns="http://www.w3.org/2000/svg" xmlns:xlink="http://www.w3.org/1999/xlink"><title>Page 1 Copy</title><defs><path id="a" d="M21.56 36.08V.084H.036V36.08z"/><path id="c" d="M.017 11.92H5.19V.072H.017z"/><path id="e" d="M0 33.42V.066h29.54V33.42z"/></defs><g fill="none" fill-rule="evenodd"><path d="M13.93 12.052c.12-1.196.593-2.104 1.307-2.755.704-.65 1.695-.98 2.84-.98 1.997 0 3.57 1.177 3.57 3.308 0 .908-.355 1.88-1.174 2.345 1.186.32 1.83 1.712 1.83 2.874 0 2.498-2.123 3.78-4.345 3.78-1.27 0-2.433-.345-3.33-1.282-.665-.697-1.302-1.877-1.275-2.877h2.96c0 .91.637 1.62 1.555 1.62.887 0 1.556-.608 1.556-1.528 0-.86-.723-1.525-1.542-1.525-.176 0-.342.044-.5.09v-1.984h.293c.742 0 1.274-.468 1.274-1.255 0-.692-.49-1.15-1.14-1.15-.74 0-1.208.578-1.187 1.32H13.93zM12.35 23.66h-.01l-.388 1.18h.784l-.385-1.18zm-.663 1.918l-.246.644H10.44l1.398-3.71h1.033l1.37 3.71h-1.01l-.242-.644h-1.3zm3.7-3.423l-.004-.055c0-.157.027-.304.104-.44.085-.15.243-.275.427-.275.248 0 .592.168.788.168.117 0 .15-.07.194-.177h.405c-.03.356-.212.78-.62.78-.25 0-.51-.185-.74-.185-.11 0-.13.096-.153.188h-.396zm-.86.358h.94l1.737 2.27h.007v-2.27h.947v3.71h-.943L15.49 23.95h-.02v2.27h-.942v-3.71zm5.048 1.792c0 .64.463 1.11 1.024 1.11.56 0 1.02-.47 1.02-1.11 0-.51-.46-.98-1.024-.98-.562 0-1.025.47-1.025.98m3.035-.005c0 1.198-.843 2.047-2.01 2.047-1.17 0-2.01-.85-2.01-2.047 0-1.12.964-1.91 2.01-1.91 1.048 0 2.01.79 2.01 1.91m2.433-.83c-.174-.15-.393-.246-.627-.246-.172 0-.406.1-.406.31 0 .216.26.298.428.354l.234.074c.504.15.89.41.89 1.01 0 .368-.082.75-.37.998-.286.247-.67.354-1.033.354-.46 0-.903-.158-1.28-.426l.406-.778c.24.212.52.384.84.384.224 0 .46-.113.46-.372 0-.27-.374-.36-.576-.425-.59-.168-.984-.328-.984-1.05 0-.748.53-1.242 1.255-1.242.37 0 .817.118 1.14.303l-.377.753z" fill="#231F20"/><g transform="translate(24.245 4.97)"><mask id="b" fill="#fff"><use xlink:href="#a"/></mask><path d="M2.75 30.708c-.27.917.096 1.903.91 2.398.314.196.674.3 1.05.3.72 0 1.384-.385 1.758-1.016.09-.158.167-.335.22-.53l.017-.073L10.62 20.05c.886-2.447 1.82-3.93 3.988-4.248l.052-.006c.502-.05 2.222-.373 3.352-2.29 1.152-1.942 1.013-3.956.69-5.305-.52.895-1.062 1.81-1.28 2.15-.495.96-1.65 2.04-3.36 2.04-.917 0-1.892-.312-2.898-.93-1.82-1.083-2.467-2.41-2.69-3.33-.304-1.253.004-2.38.36-2.952l.036-.048c.106-.168.646-1.08 1.247-2.115-1.294.323-3.02 1.08-4.17 2.828-.15.257-.465.892-.654 1.328-1.038 2.62-.056 4.41.92 5.675 1.525 2.03 1.446 3.318.663 5.614l-1.81 5.37c-.057.163-.72 2.13-.732 2.17L2.75 30.71zm1.96 5.372c-.844 0-1.675-.234-2.402-.68-1.853-1.134-2.7-3.396-2.057-5.5l.015-.038 1.592-4.736c.002-.014.648-1.93.738-2.183l1.805-5.36c.6-1.78.526-2.048-.26-3.093-2.04-2.652-2.46-5.385-1.27-8.352l.02-.044c.193-.44.58-1.252.818-1.655l.032-.05C6.464.2 11.32.08 11.862.08l.4.01.802.49 1.112.684-.66 1.142c-.35.61-2.066 3.576-2.453 4.18-.056.12-.552 1.384 1.434 2.556l.022.015c.57.354 1.11.543 1.54.543.743 0 1.04-.6 1.054-.63l.038-.082.06-.076c.174-.27 1.484-2.52 2.358-4.028l.674-1.162 2 1.226.175.32c.1.2 2.61 4.955-.16 9.616-1.174 2-3.155 3.337-5.305 3.57-.633.1-1.085.338-1.868 2.505L9.2 32.62c-.11.408-.278.798-.485 1.15-.837 1.428-2.373 2.313-4.005 2.313z" fill="#231F20" mask="url(#b)"/></g><g transform="translate(14.876 29.314)"><mask id="d" fill="#fff"><use xlink:href="#c"/></mask><path fill="#231F20" mask="url(#d)" d="M5.19 11.92L2.605 7.956.017 11.92V.072H5.19"/></g><path fill="#231F20" d="M13.456 27.827v.075m10.828 2.294c-.637-.293-1.17-.53-1.603-.72-.403-.172-.86-.088-1.17.192v3.27h1.22v-.002c.39-.014.72-.272.85-.633l.504-1.51c0-.006.093-.262.204-.597"/><g transform="translate(0 .017)"><mask id="f" fill="#fff"><use xlink:href="#e"/></mask><path d="M29.3 4.734c-.266-.25-.63-.357-.982-.28-.496.1-1.216.274-2.125.515-.35.09-.662.17-.95.24-.068-.305-.156-.648-.255-1.03-.225-.915-.394-1.6-.48-2.05-.07-.373-.323-.686-.67-.83-.342-.145-.74-.103-1.05.113l-2.6 1.805L18.42.563c-.205-.303-.54-.487-.898-.496-.36-.005-.71.165-.92.46-.442.618-.865 1.232-1.243 1.81l-.59.884-2.61-1.803c-.305-.216-.7-.258-1.048-.11-.347.14-.592.454-.67.828-.093.455-.25 1.146-.478 2.046-.097.386-.19.73-.257 1.033-.28-.07-.595-.15-.946-.243-.92-.24-1.63-.415-2.12-.514-.36-.077-.725.03-.986.28-.265.255-.39.62-.34.983l.42 3.223c-.345.053-.683.106-1.018.147l-2.11.294c-.37.046-.69.28-.856.62-.166.345-.15.744.037 1.072.512.9 1.023 1.83 1.53 2.774-.27.16-.566.34-.912.54-.81.487-1.42.84-1.82 1.062-.323.178-.54.514-.582.892-.038.375.115.746.396.986l2.41 2.042c-.67.804-1.347 1.643-2.01 2.52-.233.292-.303.68-.193 1.037.106.35.383.63.736.745 1.094.36 2.094.698 2.98 1.01-.26.803-.598 1.81-1.026 3.045-.115.36-.06.75.16 1.054.222.305.575.48.942.458l3.16-.143.142 3.23c.01.37.214.715.522.914.304.196.69.23 1.024.08.56-.242 1.29-.57 2.167-.976.146.323.45.553.824.567v.002h1.216v-3.27c-.198-.178-.455-.28-.725-.28l-.014-.003c-.16 0-.312.033-.463.105-.084.035-.162.07-.232.11-.382.16-.823.365-1.34.595 0 .003.006.006.006.01-.293.14-.565.262-.826.38l-.122-2.703c-.01-.3-.14-.588-.36-.79-.217-.205-.505-.31-.798-.3l-2.638.118c.365-1.078.644-1.928.837-2.574.18-.58-.13-1.2-.684-1.408-.75-.275-1.598-.575-2.546-.894.57-.707 1.13-1.383 1.69-2.03.2-.23.298-.535.275-.84-.03-.313-.168-.594-.403-.79l-2.04-1.73.46-.27c.823-.487 1.428-.846 1.82-1.06.543-.3.747-.99.45-1.543-.416-.794-.835-1.58-1.254-2.345l.474-.063c.706-.103 1.43-.217 2.158-.345.583-.105.986-.665.907-1.27L7.74 7.05c.15.04.31.08.47.125.924.244 1.64.417 2.126.514.292.06.59 0 .84-.17.24-.17.416-.43.47-.725.092-.45.25-1.142.484-2.05.042-.18.092-.35.13-.52l2.173 1.52c.514.35 1.203.213 1.547-.306l1.23-1.83c.09-.138.18-.27.27-.41l1.49 2.24c.348.52 1.048.657 1.554.306l2.177-1.52.14.52c.224.91.382 1.602.47 2.05.12.62.71 1.02 1.31.893.5-.098 1.195-.27 2.13-.515.153-.044.3-.08.44-.115.672-.774 1.464-1.446 2.353-1.99-.062-.12-.14-.234-.24-.334" fill="#231F20" mask="url(#f)"/></g></g></svg>