<svg width="48" height="52" viewBox="0 0 48 52" xmlns="http://www.w3.org/2000/svg"><title>Shape</title><path d="M40.177 48.134c2.532 0 4.603-2.072 4.603-4.603 0-.59-.13-1.18-.33-1.71 1.974-.523 3.42-2.33 3.42-4.435 0-1.184-.46-2.27-1.183-3.09.723-.823 1.184-1.908 1.184-3.092 0-2.136-1.444-3.91-3.42-4.437.2-.526.33-1.118.33-1.71 0-2.53-2.07-4.603-4.6-4.603H24.164c2.992-5.26 4.308-11.836 2.96-16.077-.79-2.532-2.27-3.518-3.387-3.88C21.83-.13 20.253 0 19.036.856c-1.906 1.348-1.94 3.88-1.94 4.175 0 5.163-1.347 6.478-5.326 10.457l-.79.756c-1.412 1.446-2.53 2.827-3.418 4.175H.132v30.807H9.37v-3.09h30.807zm1.545-23.114c0 .855-.69 1.546-1.545 1.546H32.45c-.82-.033-1.512-.69-1.512-1.546 0-.855.69-1.545 1.546-1.545h7.693c.855.033 1.545.723 1.545 1.545zm3.058 6.18c0 .823-.657 1.514-1.48 1.547H32.45c-.82-.033-1.512-.69-1.512-1.546 0-.85.69-1.542 1.546-1.542h10.784c.822 0 1.512.69 1.512 1.545zm0 6.15c0 .822-.657 1.512-1.48 1.545H32.45c-.82-.033-1.512-.69-1.512-1.545s.69-1.546 1.546-1.546h10.784c.822 0 1.512.69 1.512 1.546zm-3.058 6.148c0 .822-.657 1.512-1.48 1.545h-7.79c-.823-.033-1.514-.69-1.514-1.545s.69-1.545 1.546-1.545h7.693c.855 0 1.545.69 1.545 1.545zm-38.5 4.636V23.508h3.09v24.626h-3.09zM9.37 37.35V23.442c.822-1.578 2.04-3.255 3.78-5.03l.757-.756c4.176-4.11 6.247-6.182 6.247-12.626 0-.394.165-1.348.658-1.676.493-.362 1.414-.132 1.94.065.624.195 1.118.82 1.446 1.84 1.085 3.516-.296 10.684-4.11 15.78l-1.84 2.466h9.896c-.066.164-.1.33-.165.526-.068.33-.134.658-.134 1.02 0 1.183.46 2.268 1.183 3.09-.723.822-1.183 1.907-1.183 3.09 0 1.184.46 2.27 1.183 3.09-.72.823-1.18 1.908-1.18 3.09 0 1.185.46 2.27 1.182 3.092-.722.822-1.182 1.907-1.182 3.09 0 .527.098 1.053.263 1.546H9.37v-7.79z"/></svg>