<svg width="44" height="39" viewBox="0 0 44 39" xmlns="http://www.w3.org/2000/svg" xmlns:xlink="http://www.w3.org/1999/xlink"><title>Page 1 Copy 4</title><defs><path id="a" d="M20.517 20.402V.005H.053v20.397h20.464z"/><path id="c" d="M0 .038V32.51h22.83V.038z"/></defs><g fill="none" fill-rule="evenodd"><g transform="translate(22.936 .06)"><mask id="b" fill="#fff"><use xlink:href="#a"/></mask><path d="M7.72 15.296c0-1.408 1.15-2.55 2.56-2.55 1.408 0 2.557 1.142 2.557 2.55s-1.15 2.55-2.556 2.55c-1.41 0-2.56-1.142-2.56-2.55zM.054 12.96l.02.004c0 2.515 1.25 3.773 3.764 3.773h1.54c.62 2.112 2.583 3.665 4.904 3.665 2.316 0 4.275-1.553 4.898-3.665h5.34v-2.514H15.27c-.496-2.298-2.547-4.02-4.99-4.02-2.447 0-4.495 1.722-4.992 4.02h-1.45c-.834-.058-1.25-.475-1.25-1.26l.68-5.047c.056-.84.468-1.26 1.244-1.26h1.784v.006h2.527c2.286 0 3.536-1.035 3.75-3.108h.005c.08-.635.493-.98 1.245-1.028H20.518V.006h-6.692c-2.272 0-3.52 1.02-3.75 3.06-.065.662-.48 1.025-1.25 1.076H4.51c-2.06 0-3.27.84-3.64 2.515l-.06.486-.062.787-.013-.002-.684 5.032z" fill="#231F20" mask="url(#b)"/></g><g transform="translate(0 5.8)"><mask id="d" fill="#fff"><use xlink:href="#c"/></mask><path d="M21.933 17.24c.587-.628.896-1.433.896-2.346 0-.16-.016-.318-.033-.472-.08-.807-.426-1.53-1.022-2.104-.64-.612-1.45-.95-2.352-.976h-5.76c.596-1.658 1.567-5.454 1.613-6.2.112-1.747-.265-3.096-1.124-4.004-.658-.7-1.6-1.1-2.596-1.1-1.613 0-2.8 1.127-3.257 3.1-.674 3.383-3.554 6.836-3.933 7.202l-.02.014-.07.05c-.728.544-1.296 1.216-1.688 1.993l-.067.137H0v2.385h3.534c.427 0 .79-.288.907-.683h.005l.053-.18c.215-.74.572-1.266 1.17-1.713l.038-.034c2.402-1.997 4.77-6.48 5.13-8.88.032-.253.163-.85.72-.85.23 0 .557.06.807.335.362.403.49 1.168.37 2.217-.16 1.452-1.438 4.758-2.2 6.73l-.187.492.027.01c-.01.056-.013.11-.013.17 0 .66.534 1.19 1.192 1.19h7.534c.56 0 1.032.403 1.144.94.018.074.024.15.024.227 0 .67-.546 1.214-1.217 1.214h-3.695V18.332h3.695c.67 0 1.217.545 1.217 1.214 0 .67-.546 1.217-1.217 1.217h-3.695v2.26h3.695c.67 0 1.217.543 1.217 1.213 0 .672-.546 1.216-1.217 1.216h-3.695v2.245h3.695c.67 0 1.217.545 1.217 1.212 0 .655-.522 1.19-1.173 1.213H7.76c-.767 0-1.438-.223-2.05-.675-.61-.458-1.006-1.03-1.212-1.746l-.048-.166h-.005c-.114-.4-.475-.697-.91-.697H0v2.384h2.523l.066.135c.39.778.96 1.45 1.687 1.995 1.028.767 2.2 1.155 3.483 1.155h11.567c.94 0 1.79-.355 2.46-1.027.517-.513.843-1.13.968-1.814.05-.24.074-.493.074-.753 0-.878-.314-1.676-.9-2.324.586-.625.9-1.436.9-2.352 0-.877-.316-1.676-.91-2.33.594-.625.91-1.44.91-2.358 0-.872-.31-1.664-.897-2.313" fill="#231F20" mask="url(#d)"/></g></g></svg>