<svg width="36" height="44" viewBox="0 0 36 44" xmlns="http://www.w3.org/2000/svg"><title>Imported Layers</title><path d="M3.906 14.422V8.767h.006v-2.96h.005c.058-.92.815-1.653 1.744-1.657h6.2v.002h16.19V4.15h2.21c.93.004 1.687.737 1.745 1.657v2.96h.008v17.026-1H32l.003 2.425H32c-.06.92-.816 1.682-1.747 1.684h-.84V28.9l-4.184.02h-2.04v.002c-.95.028-1.71.81-1.71 1.773v6.267l-.01.01-6.73-6.75v.002l-.797-.8-.03-.03-.047-.047-.004.002c-.31-.29-.724-.46-1.177-.46-.037 0-1.453-.01-1.487 0h-.6v-.01H6.44h4.017-4.795c-.93 0-1.686-.75-1.744-1.67h-.005l-.003-2.42h-.006v1M.394 6.873V26.69h.008l.004.53v1.752c.034 1.924 1.582 3.454 3.5 3.454h6.475-4.6 6.25l3.48 3.484v-.006l6.424 6.58c.04.05.088.097.136.14l.015.017c.31.27.716.446 1.157.446.975 0 1.76-.8 1.76-1.777v-8.82l.01-.01v-.015l1.645-.02v.007h5.357c1.92 0 3.473-1.55 3.51-3.473v-1.76l-.003-.53h.01V6.87h-.008v-2.79c-.044-1.928-1.6-3.476-3.516-3.476H28.96v.006h-17.8V.608H3.91C1.992.608.436 2.156.402 4.082v2.79H.394m19.393 18.055c0 1.238-1.005 2.276-2.237 2.276-1.23 0-2.235-1.038-2.235-2.276 0-1.24 1.004-2.228 2.235-2.228 1.232 0 2.237.98 2.237 2.22m-4.045-9.77c.3.076.603.1.903.1 1.684 0 3.216-1.01 3.216-2.83 0-1.013-.57-2.228-1.73-2.228-1.13 0-1.68 1.062-1.68 2.073v.306h-3.67c-.15-3.06 2.29-5.466 5.33-5.466 3.092 0 5.4 2.327 5.4 5.436 0 2.486-1.632 4.66-4.043 5.217l-.202 2.43H15.75V15.15" fill="#1A1918" fill-rule="evenodd"/></svg>