<svg width="36" height="44" viewBox="0 0 36 44" xmlns="http://www.w3.org/2000/svg"><title>ayuda azul</title><g fill="none" fill-rule="evenodd"><path d="M.24 6.883v19.815h.008l.004.53v1.752c.034 1.924 1.582 3.454 3.5 3.454h6.475-4.602 6.252l3.47 3.484v-.006l6.425 6.58c.042.05.088.097.136.14l.016.017v-.01c.31.27.715.44 1.156.44.975 0 1.762-.8 1.762-1.78v-8.82l.008-.01v-.02l1.646-.02v.007h5.355c1.92 0 3.48-1.55 3.52-3.474V26.69h.01V6.883h-.004v-2.79C35.32 2.163 33.768.62 31.85.62h-3.045v.005h-17.8V.618h-7.25C1.84.618.285 2.166.25 4.092v2.79H.24" fill="#9BC8DB"/><path d="M3.752 14.432V8.777h.006v-2.96h.005c.058-.92.815-1.653 1.744-1.657h6.2v.002h16.185V4.16h2.205c.93.004 1.686.737 1.744 1.657h.01v2.96h.01v17.026-1 2.425c-.06.92-.814 1.682-1.745 1.684h-.842v-.002l-4.18.02h-2.04v.002c-.946.028-1.707.81-1.707 1.773v6.267l-.007.01-6.725-6.75v.002l-.8-.8-.03-.03-.05-.047v.002c-.31-.29-.723-.46-1.176-.46-.035 0-1.45-.01-1.485 0h-.607v-.01H6.29h4.015H5.51c-.928 0-1.685-.75-1.743-1.67H3.76l-.002-2.42h-.006v1M.24 6.88V26.7h.008l.004.53v1.752c.034 1.924 1.582 3.454 3.5 3.454h6.475-4.602 6.252l3.47 3.484v-.006l6.425 6.58c.042.05.088.097.136.14l.016.017c.31.27.715.45 1.156.45.975 0 1.762-.8 1.762-1.772V32.5l.008-.01v-.015l1.646-.02v.007h5.355c1.92 0 3.48-1.55 3.52-3.473V26.7h.01V6.88h-.004V4.09C35.32 2.166 33.768.618 31.85.618h-3.046v.006h-17.8V.618h-7.25C1.84.618.284 2.166.25 4.092v2.79H.24" fill="#1A1919"/><path d="M19.633 24.937c0 1.238-1.005 2.276-2.237 2.276-1.23 0-2.235-1.038-2.235-2.276 0-1.24 1.01-2.228 2.24-2.228 1.23 0 2.24.98 2.24 2.22m-4.04-9.77c.3.07.61.1.91.1 1.684 0 3.216-1.01 3.216-2.83 0-1.02-.58-2.23-1.735-2.23-1.13 0-1.68 1.06-1.68 2.07v.303h-3.67c-.15-3.06 2.286-5.468 5.324-5.468 3.09 0 5.4 2.326 5.4 5.435 0 2.486-1.63 4.66-4.042 5.217l-.2 2.43H15.6v-5.03" fill="#1A1918"/></g></svg>