<svg width="27" height="33" viewBox="0 0 27 33" xmlns="http://www.w3.org/2000/svg"><title>Imported Layers</title><path d="M3.185 11.098V6.894h.005v-2.2h.004c.044-.684.61-1.23 1.306-1.232h4.644v.002h12.123v-.002h1.652c.69.003 1.26.548 1.3 1.23h.002v2.202h.003V19.55v-.742h-.004v1.802h-.002c-.043.686-.61 1.25-1.308 1.253h-.63v-.002l-3.133.02h-1.52c-.71.02-1.28.608-1.28 1.32v4.66l-.004.01-5.04-5.02-.596-.593c0-.008-.01-.015-.02-.023l-.03-.036-.003.002c-.232-.21-.54-.34-.88-.34-.027 0-1.088-.006-1.113 0h-.45v-.006H5.09 8.1 4.51c-.697 0-1.264-.552-1.308-1.24H3.2l-.004-1.8H3.19v.743M.555 5.487v14.73H.56l.004.394v1.31c.026 1.43 1.185 2.57 2.62 2.57h4.852H4.59h4.68l2.602 2.59v-.005l4.81 4.89c.033.038.067.074.103.106l.012.013v-.003c.232.2.535.33.866.33.73 0 1.32-.597 1.32-1.324V24.53l.006-.008v-.01l1.23-.016v.006h4.01c1.432 0 2.6-1.155 2.63-2.585V20.61l-.008-.393h.005V5.487h-.006V3.41C26.833 1.98 25.665.83 24.23.83h-2.28v.003H8.615V.83H3.188C1.752.83.588 1.98.56 3.41v2.076H.556M15.08 18.908c0 .92-.752 1.692-1.675 1.692-.92 0-1.674-.772-1.674-1.692 0-.923.76-1.656 1.68-1.656.926 0 1.68.733 1.68 1.656m-3.03-7.262c.225.057.452.076.676.076 1.26 0 2.41-.752 2.41-2.106 0-.753-.433-1.657-1.3-1.657-.845 0-1.26.79-1.26 1.54v.22H9.83c-.113-2.27 1.713-4.06 3.988-4.06 2.316 0 4.046 1.73 4.046 4.043 0 1.846-1.223 3.462-3.028 3.876l-.152 1.806H12.05v-3.744" fill="#fff" fill-rule="evenodd"/></svg>