<svg width="36" height="44" viewBox="0 0 36 44" xmlns="http://www.w3.org/2000/svg"><title>ayuda</title><path d="M3.752 14.432V8.777h.006v-2.96h.005c.058-.92.815-1.653 1.744-1.657h6.2v.002h16.185V4.16h2.205c.93.004 1.686.737 1.744 1.657h.01v2.96h.01v17.026-1 2.425c-.06.92-.815 1.682-1.746 1.684h-.842v-.002l-4.18.02h-2.04v.002c-.946.028-1.707.81-1.707 1.773v6.267l-.007.01-6.724-6.75v.002l-.8-.8-.03-.03-.05-.047v.002c-.31-.29-.723-.46-1.176-.46-.034 0-1.45-.01-1.484 0h-.607v-.01H6.29h4.015H5.51c-.928 0-1.685-.75-1.743-1.67H3.76l-.002-2.42h-.006v1M.24 6.88V26.7h.008l.004.53v1.752c.034 1.924 1.582 3.454 3.5 3.454h6.475-4.602 6.252l3.47 3.484v-.006l6.425 6.58c.042.05.088.097.136.14l.016.017c.31.27.715.45 1.156.45.975 0 1.762-.8 1.762-1.773V32.5l.008-.01v-.015l1.646-.02v.007h5.355c1.92 0 3.48-1.55 3.52-3.473V26.7h.01V6.88h-.005V4.09C35.32 2.166 33.768.618 31.85.618h-3.046v.006h-17.8V.618h-7.25C1.84.618.284 2.166.25 4.092v2.79H.24m19.393 18.055c0 1.238-1.005 2.276-2.237 2.276-1.23 0-2.235-1.038-2.235-2.276 0-1.24 1.01-2.228 2.24-2.228 1.23 0 2.24.98 2.24 2.22m-4.04-9.77c.3.07.608.1.908.1 1.685 0 3.217-1.01 3.217-2.83 0-1.02-.58-2.23-1.735-2.23-1.13 0-1.68 1.06-1.68 2.07v.304h-3.67c-.15-3.06 2.285-5.468 5.323-5.468 3.09 0 5.4 2.326 5.4 5.435 0 2.486-1.63 4.66-4.042 5.217l-.2 2.43H15.6v-5.03" fill="#1A1918" fill-rule="evenodd"/></svg>