<svg width="36" height="44" viewBox="0 0 36 44" xmlns="http://www.w3.org/2000/svg"><title>ayuda azul</title><g fill="none" fill-rule="evenodd"><path d="M.24 6.883v19.815h.008l.004.53v1.752c.034 1.924 1.582 3.454 3.5 3.454h6.475-4.602 6.252l3.47 3.484v-.006l6.425 6.58c.042.05.088.097.136.14l.016.017v-.01c.31.27.715.44 1.156.44.975 0 1.762-.8 1.762-1.78v-8.82l.008-.01v-.012l1.646-.02v.006h5.355c1.92 0 3.48-1.55 3.52-3.474v-1.75l-.002-.53h.008V6.884h-.007v-2.79C35.32 2.164 33.767.62 31.85.62h-3.045v.005h-17.8V.618h-7.25C1.84.618.285 2.166.25 4.092v2.79H.24" fill="#9BC8DB"/><path d="M3.752 14.432V8.777h.006v-2.96h.005c.058-.92.815-1.653 1.744-1.657h6.2v.002h16.185V4.16h2.205c.93.004 1.686.737 1.744 1.657h.01v2.96h.01v17.026-1h-.003v2.425h-.003c-.06.92-.815 1.682-1.746 1.684h-.842v-.002l-4.18.02h-2.04v.002c-.947.028-1.708.81-1.708 1.773v6.267l-.005.01-6.724-6.75v.002l-.797-.8-.03-.03-.05-.047v.002c-.31-.29-.725-.46-1.178-.46-.034 0-1.45-.01-1.484 0h-.607v-.01H6.29h4.015H5.51c-.928 0-1.685-.75-1.743-1.67H3.76l-.002-2.42h-.006v1M.24 6.88V26.7h.008l.004.53v1.752c.034 1.924 1.582 3.454 3.5 3.454h6.475-4.602 6.252l3.47 3.484v-.006l6.425 6.58c.042.05.088.097.136.14l.016.017c.31.27.715.448 1.156.448.975 0 1.762-.8 1.762-1.777V32.5l.008-.01v-.015l1.646-.02v.007h5.355c1.92 0 3.48-1.55 3.52-3.473v-1.76l-.002-.53h.008V6.88h-.007V4.09C35.32 2.166 33.767.618 31.85.618h-3.046v.006h-17.8V.618h-7.25C1.84.618.284 2.166.25 4.092v2.79H.24" fill="#1A1919"/><path d="M19.633 24.937c0 1.238-1.005 2.276-2.237 2.276-1.23 0-2.235-1.038-2.235-2.276 0-1.24 1.01-2.228 2.24-2.228 1.23 0 2.24.98 2.24 2.22M15.6 15.16c.3.074.603.1.903.1 1.685 0 3.217-1.01 3.217-2.83 0-1.015-.58-2.23-1.736-2.23-1.13 0-1.68 1.062-1.68 2.073v.306h-3.67c-.15-3.06 2.286-5.467 5.324-5.467 3.09 0 5.4 2.327 5.4 5.436 0 2.485-1.63 4.66-4.042 5.216l-.2 2.43h-3.52V15.16" fill="#1A1918"/></g></svg>