<svg xmlns="http://www.w3.org/2000/svg" width="107.8" height="69.8" viewBox="66.6 43.1 107.8 69.8"><path fill="#fff" d="M111.4 76.3h6v3.1h-6v-3.1zM75.8 91.5c.3.5.8.7 1.3.7h6.6c.7 4.5 4.7 8 9.4 8s8.7-3.5 9.4-8h33.8c.7 4.5 4.7 8 9.4 8s8.7-3.5 9.4-8h7.8c.7 0 1.3-.4 1.5-1.1l2.6-8.2c.1-.3.1-.7-.1-1-1.6-4.3-4.1-7.4-7.3-9.2-2.5-1.4-4.7-1.5-5.4-1.5h-.1l-8.2.2c-6.7-6.2-14.2-10.7-22.2-13.3-6.7-2.2-11.9-2.4-13.8-2.4h-1.1c-5.2 0-9.8.8-13.6 2.5-3.2 1.4-5.8 3.3-7.8 5.7-2.7 3.2-3.8 6.4-4.1 7.8-3 1.9-5.3 4.1-6.8 6.5-1.3 2.1-2 4.3-2.2 6.6-.3 3.8 1.4 6.6 1.5 6.7zm86-12.6c-1-.2-2.2-.5-2.9-1.2-.6-.6-1.2-1.5-1.6-2.7 1.5.7 3.1 1.9 4.5 3.9zm-3.2 8.5h3.6l-.5 1.7h-3.1v-1.7zm-19.4 3.3c0-.5.1-1.1.2-1.6.7-2.8 3.2-4.9 6.2-4.9s5.5 2.1 6.2 4.9c.1.5.2 1 .2 1.6 0 .5-.1 1.1-.2 1.6-.7 2.8-3.2 4.9-6.2 4.9s-5.5-2.1-6.2-4.9c-.2-.5-.2-1.1-.2-1.6zM138 74.3h6.1c.1 0 .2 0 .3-.1.3.2.5.2.8.2l8.8-.2c.2 1.3.9 4.1 2.9 5.8 1.1.9 2.6 1.6 4.5 1.9.9.2 1.7.2 2.2.2h.1c.1.1.1.2.2.4l-.6 1.8h-7.7v4.8h-.6c-.7-4.5-4.7-8-9.4-8-3.1 0-5.9 1.5-7.6 3.8V74.3zm0-5.4c1 .7 2 1.5 3 2.3h-3v-2.3zm-33.3 2.3h-4.4v-5.1h-8v5.1h-5.8c.5-1.4 1.4-3.4 3.2-5.5 1.8-2 4-3.7 6.8-4.8 2.4-1.1 5.1-1.7 8.2-2v12.3zm-7.4-2v2h-1.8v-2h1.8zm10.5 5.1h27v14.8h-27V74.3zm5.2-3.1v-5.8h2v5.8h-2zm-5.2-12.5h2c1.8 0 6.6.2 12.8 2.3 4.2 1.4 8.3 3.3 12.2 5.8v4.5h-3.1v-3.4h-3.1v3.4H118v-9h-8.2v8.9h-2.1l.1-12.5zm-21.2 32c0-.5.1-1.1.2-1.6.7-2.8 3.2-4.9 6.2-4.9s5.5 2.1 6.2 4.9c.1.5.2 1 .2 1.6 0 .5-.1 1.1-.2 1.6-.7 2.8-3.2 4.9-6.2 4.9s-5.5-2.1-6.2-4.9c-.2-.5-.2-1.1-.2-1.6zm-9-3h2v1.4H78c-.1-.3-.3-.8-.4-1.4zm-.3-3.1c.2-1.7.7-3.4 1.7-4.9 1.3-1.9 3.2-3.7 5.7-5.4h19.9v14.8h-2.3c-.7-4.5-4.7-8-9.4-8s-8.7 3.5-9.4 8h-.8v-4.5h-5.4zm63.4 4.5c-.2.5-.3 1-.3 1.6s.1 1.1.3 1.6c.7 2 2.6 3.6 4.9 3.6 2.3 0 4.2-1.5 4.9-3.6.2-.5.3-1 .3-1.6s-.1-1.1-.3-1.6c-.7-2-2.6-3.6-4.9-3.6-2.3.1-4.2 1.6-4.9 3.6zm2.9 1.6c0-.6.3-1.2.7-1.6.4-.3.8-.5 1.3-.5s.9.2 1.3.5c.5.4.7.9.7 1.6s-.3 1.2-.7 1.6c-.4.3-.8.5-1.3.5s-.9-.2-1.3-.5c-.4-.4-.7-1-.7-1.6zm-55.4-1.6c-.2.5-.3 1-.3 1.6s.1 1.1.3 1.6c.7 2 2.6 3.6 4.9 3.6 2.3 0 4.2-1.5 4.9-3.6.2-.5.3-1 .3-1.6s-.1-1.1-.3-1.6c-.7-2-2.6-3.6-4.9-3.6s-4.3 1.6-4.9 3.6zm2.8 1.6c0-.6.3-1.2.7-1.6.4-.3.8-.5 1.3-.5s.9.2 1.3.5c.5.4.7.9.7 1.6s-.3 1.2-.7 1.6c-.4.3-.8.5-1.3.5s-.9-.2-1.3-.5c-.4-.4-.7-1-.7-1.6z"/></svg>