<svg width="18" height="24" viewBox="0 0 18 24" xmlns="http://www.w3.org/2000/svg"><title>icon</title><g fill="none" fill-rule="evenodd"><path d="M-3.3.5h24v24h-24V.5z"/><path d="M8.697 11c3.034 0 5.5-2.462 5.5-5.497C14.197 2.465 11.73 0 8.697 0S3.202 2.465 3.202 5.503C3.202 8.538 5.664 11 8.697 11zm.005-7.15c.913 0 1.65.74 1.65 1.65 0 .914-.737 1.65-1.65 1.65-.912 0-1.65-.736-1.65-1.65 0-.91.738-1.65 1.65-1.65zm5.102 10.65H3.594C1.74 14.5.234 15.99.2 17.836V24h3.5v-4.5c0-.99.69-1.5 1.59-1.5h6.824c.896 0 1.577.526 1.586 1.5V24h3.5v-6.164c-.037-1.845-1.54-3.336-3.396-3.336" fill="#fff"/></g></svg>