<svg width="49" height="32" viewBox="0 0 49 32" xmlns="http://www.w3.org/2000/svg"><title>Imported Layers</title><path d="M41.423 17.008c-.352-2.576-1.562-11.37-1.958-13.426-.53-2.744-2.93-3.542-4.127-3.58C35.323 0 35.308 0 35.292 0h-5.304v2.847h5.274c.146.01 1.197.113 1.42 1.276.03.148.063.336.1.555-1.175-.125-3.143-.152-4.45.8-.715.523-1.15 1.266-1.257 2.15-.28 2.316-1.9 12.255-2.09 13.42-.107.29-.66 1.534-2.21 1.576-.947.026-3.97.034-7.53.033.38-1.15.66-2.66.995-4.446.175-.93.357-1.9.545-2.72.38-1.65-.12-2.75-.607-3.37-1.246-1.61-3.54-1.7-3.805-1.71-.368 0-9.055-.15-12.216.08-1.45.1-2.557.61-3.297 1.51-.96 1.17-.87 2.53-.847 2.78.004.04.38 3.74.602 6.65.126 1.65.617 2.826 1.46 3.495.28.223.56.36.816.44.43 3.73 3.59 6.64 7.42 6.64 3.78 0 6.91-2.832 7.4-6.494h1.84c3.45 0 6.366-.01 7.318-.034 3.026-.08 4.51-2.44 4.87-3.675.018-.056.03-.113.04-.17.074-.455 1.82-11.144 2.125-13.65.01-.104.035-.137.106-.19.552-.404 2.17-.363 3.125-.18.04.01.08.014.12.018.513 3.477 1.17 8.266 1.394 9.9-2.78 1.09-4.758 3.81-4.758 6.984 0 4.136 3.347 7.5 7.46 7.5 4.114 0 7.46-3.363 7.46-7.497 0-4.104-3.3-7.45-7.376-7.494zM10.25 29.09c-2.155 0-3.96-1.664-4.394-3.878 2.054.007 5.384.018 8.784.024-.443 2.202-2.242 3.855-4.39 3.855zm8.23-13.825c-.207.9-.398 1.922-.582 2.91-.3 1.6-.79 4.23-1.223 4.92-.096.05-.185.11-.265.178-5.745-.008-11.684-.03-12.502-.032-.09-.13-.284-.52-.355-1.45-.23-3.02-.618-6.85-.622-6.88v-.022c0-.004-.01-.39.22-.672.29-.35.89-.465 1.35-.5 3.11-.224 12.16-.073 12.24-.072.32.008 1.31.17 1.66.628.06.08.25.32.09 1.01zm23 12.856c-2.422 0-4.392-1.95-4.392-4.36s1.97-4.36 4.392-4.36c2.422 0 4.392 1.96 4.392 4.37s-1.97 4.366-4.392 4.366z" fill="#fff" fill-rule="evenodd"/></svg>