<svg width="54" height="36" viewBox="0 0 54 36" xmlns="http://www.w3.org/2000/svg"><title>ico</title><g fill="none" fill-rule="evenodd"><path d="M3.317 25.782l16.573.024 2.35-8.034-.88-2.99L5.206 13.42l-2.294 2.43.404 9.932z" fill="#9BC8DB"/><path d="M45.14 19.07c-.376-2.736-1.665-12.08-2.087-14.264C42.49 1.89 39.93 1.042 38.655 1h-5.7v3.025h5.62c.155.01 1.274.12 1.513 1.356.03.16.066.36.106.59-1.252-.13-3.35-.16-4.742.85-.762.56-1.225 1.35-1.34 2.29-.297 2.46-2.023 13.02-2.225 14.257-.115.308-.704 1.63-2.355 1.674-1.01.028-4.23.037-8.025.036.404-1.224.704-2.826 1.06-4.725.187-.994.38-2.023.58-2.893.407-1.755-.127-2.92-.646-3.588-1.324-1.71-3.77-1.81-4.05-1.818-.392-.003-9.65-.16-13.02.088-1.542.11-2.725.654-3.513 1.61-1.02 1.243-.927 2.69-.9 2.955.004.04.404 3.972.64 7.062.135 1.752.66 3 1.557 3.71.3.238.597.383.87.47C4.53 31.91 7.9 35 11.98 35c4.024 0 7.357-3.01 7.878-6.902h1.96c3.68 0 6.78-.008 7.795-.036 3.226-.087 4.807-2.594 5.193-3.908.017-.06.03-.12.04-.182.08-.482 1.942-11.84 2.265-14.502.017-.11.04-.145.118-.2.59-.43 2.313-.388 3.33-.19.042.007.083.012.124.016.548 3.694 1.25 8.782 1.487 10.517-2.965 1.16-5.07 4.048-5.07 7.42 0 4.394 3.567 7.967 7.95 7.967 4.384 0 7.95-3.573 7.95-7.966 0-4.36-3.517-7.914-7.86-7.963zM12.002 31C9.55 31 7.492 29.712 7 28c2.338.006 6.13.014 10 .018C16.496 29.72 14.447 31 12.003 31zm8.928-14.258c-.225.928-.433 1.982-.634 3.002-.324 1.648-.86 4.36-1.33 5.072-.105.052-.202.114-.29.184-6.253-.008-12.72-.03-13.61-.033-.097-.14-.308-.543-.386-1.5-.25-3.114-.672-7.063-.677-7.102 0-.01-.002-.018-.003-.027 0-.004-.01-.403.24-.693.316-.365.97-.482 1.466-.516 3.382-.238 13.232-.08 13.325-.08.35.006 1.425.172 1.81.645.067.08.268.327.094 1.044zM45 32c-2.757 0-5-2.243-5-5s2.243-5 5-5 5 2.243 5 5-2.243 5-5 5z" stroke="#181717" fill="#181717"/></g></svg>