<svg width="331" height="262" viewBox="0 0 331 262" xmlns="http://www.w3.org/2000/svg"><title>Path 2180 + Path 2181 + Imported Layers</title><g fill="none" fill-rule="evenodd"><path d="M63 193.93l20.2-25.795 48.626-1.876-6.578-18.76-14.33-11.02h-14.56L98 126.39 64.174 93.098l24.9-25.09 31.946-13.6L162.362 53l1.88 24.153 45.335.938 17.618 25.8 7.986 17.586L238 145.16l-45.333 2.813-10.335 8.44-3.054 11.023-18.322 8.207-7.752 22.276 26.546 1.64.94 10.32-22.08 20.63-.236 11.49h-31.477l-25.607-10.08-26.31-17.12L63 199.556v-5.628z" fill="#9BC8DB"/><path d="M114 120.762l91 .238-5.023-14.975-12.5-3.923-11.915-.475L151.148 92l-12.617 12.955-18.22-2.853-6.31 18.66z" stroke="#979797" fill="#fff"/><g fill="#000"><path d="M255.467 132.998c-.593-4.524-1.466-9.054-2.596-13.462l-7.99 2.054c1.05 4.087 1.86 8.287 2.408 12.482l8.184-1.074M55.834 88.54l-6.818-4.658c-2.57 3.77-4.932 7.734-7.024 11.774l7.33 3.803c1.94-3.75 4.13-7.428 6.514-10.92m192.83 17.94c-1.654-4.24-3.59-8.424-5.747-12.436l-7.265 3.92c2 3.72 3.793 7.598 5.327 11.527l7.684-3.01M221.04 77.23c2.83 3.14 5.5 6.48 7.93 9.93l6.743-4.767c-2.62-3.718-5.5-7.32-8.55-10.703l-6.124 5.54m-148.51-7.8l-5.518-6.15c-3.384 3.048-6.62 6.33-9.615 9.76l6.21 5.445c2.78-3.18 5.782-6.226 8.92-9.05m20.745-14.58l-3.893-7.288c-4.01 2.148-7.93 4.564-11.658 7.183l4.74 6.77c3.456-2.43 7.093-4.67 10.81-6.66m23.614-9.177l-2.03-8.01c-4.414 1.12-8.802 2.526-13.045 4.175l2.985 7.705c3.934-1.528 8-2.83 12.09-3.87m85.026 14.882c3.494 2.373 6.88 4.984 10.064 7.76l5.42-6.234c-3.435-2.99-7.085-5.804-10.85-8.362l-4.633 6.84m-7.143-13.84c-4.05-2.088-8.267-3.948-12.54-5.528l-2.86 7.75c3.96 1.464 7.87 3.187 11.623 5.12l3.775-7.347M142.02 42.45l-.064-8.265c-4.564.035-9.157.346-13.655.924l1.05 8.19c4.174-.534 8.435-.822 12.668-.855m27.093-5.218c-4.423-1.048-8.96-1.835-13.49-2.34l-.915 8.212c4.198.47 8.406 1.2 12.507 2.17l1.9-8.043M49.69 212.907c2.604 3.734 5.46 7.35 8.493 10.75l6.155-5.51c-2.815-3.15-5.465-6.506-7.88-9.97l-6.767 4.73m-5.12-27.137l-7.7 2.97c1.635 4.253 3.547 8.45 5.683 12.476l7.288-3.88c-1.98-3.732-3.753-7.622-5.267-11.565m23.33 47.54c3.414 3.015 7.05 5.848 10.8 8.427l4.672-6.815c-3.48-2.393-6.853-5.023-10.02-7.815L67.9 233.31m22.54 15.49c4.042 2.11 8.25 3.992 12.508 5.595l2.902-7.737c-3.947-1.486-7.848-3.23-11.595-5.187l-3.815 7.33m122.372-22.05l5.48 6.18c3.4-3.023 6.653-6.29 9.67-9.704l-6.184-5.475c-2.797 3.168-5.814 6.197-8.966 9.003m-20.822 14.465l3.854 7.307c4.02-2.125 7.954-4.52 11.693-7.12l-4.704-6.79c-3.467 2.41-7.115 4.63-10.843 6.603m-75.946 17.215c4.417 1.072 8.952 1.886 13.477 2.417l.967-8.21c-4.196-.49-8.4-1.247-12.494-2.24l-1.944 8.032m52.272-8.166l1.986 8.023c4.415-1.098 8.812-2.48 13.067-4.107l-2.94-7.72c-3.944 1.507-8.018 2.786-12.11 3.802m-25.16 3.096l.023 8.267c4.562-.013 9.156-.3 13.656-.85l-1.007-8.206c-4.174.518-8.438.78-12.673.79m186.247-58.055c-.09-.754-1-7.56-5.01-14.505-5.765-9.983-15.24-15.482-26.68-15.482-9.753 0-16.43 3.182-20.937 7.033-.197-.34-.4-.68-.61-1.024-3.797-6.224-10.037-13.26-19.916-17.092.115-2.11.18-4.224.18-6.33 0-.413-.002-.825-.006-1.235l-8.252.082c.004.385.006.767.006 1.15 0 1.445-.03 2.79-.09 4.11-1.513-.252-3.1-.436-4.75-.54.05-1.31.087-2.625.087-3.947 0-55.314-44.933-100.315-100.165-100.315-45.017 0-83.19 29.895-95.77 70.902-1.357-.08-2.733-.13-4.147-.13-.49 0-.975.01-1.46.023.688-2.336 1.45-4.652 2.294-6.92l-7.734-2.887c-1.32 3.544-2.456 7.19-3.415 10.86-5.253 1.156-10.003 3.237-14.193 6.235-5.426 3.88-9.792 9.21-12.98 15.84C.78 151.677.417 161.88.39 163.006l-.187 8.448h31.57c.297 1.414.612 2.82.96 4.213l8.004-2.01c-.18-.73-.348-1.466-.515-2.202h5.756c10.743 43.8 50.28 76.39 97.28 76.39 34.09 0 64.25-17.148 82.35-43.278h6.09c-.68 1.07-1.375 2.13-2.092 3.17l6.792 4.695c1.754-2.543 3.404-5.18 4.948-7.864h89.175l-1.11-9.255zm-94.26-49.68c.013.63.025 1.263.025 1.897 0 .638-.012 1.273-.025 1.908v-3.805zM169.33 59.25c10.626 3.154 20.46 8.18 29.106 14.702H169.33v-14.7zM64.393 100.297l30.286 30.395v3.634c-3.673 1.298-7.08 3.27-10.15 5.896-1.61-3.223-3.775-6.494-6.685-9.513-5.687-5.9-13.07-9.76-22.024-11.56 2.157-6.646 5.04-12.966 8.573-18.858zM53.63 127.153c28.22 5.33 27.28 32.476 27.28 32.476s3.643-11.16 13.77-16.32c2.38-1.21 5.118-2.09 8.252-2.416.873-.092 1.77-.15 2.705-.15 18.58 0 20.218 22.436 20.218 22.436H8.64s.82-36.94 34.7-36.94c.687 0 1.358.014 2.02.035l8.27.873zm.87 44.298h22.11L60.833 188.23c-2.63-5.32-4.76-10.932-6.334-16.772zm100.29 67.407c-3.778.475-7.627.723-11.532.723-33.012 0-62.01-17.525-78.22-43.768l22.91-24.357h46.786l-.648-8.866c-.053-.74-.622-7.4-3.955-14.24-4.98-10.23-13.68-15.86-24.49-15.86-.91 0-1.81.04-2.703.106v-5.32l-33.88-34c16.738-22.898 43.764-37.8 74.205-37.8 6.218 0 12.293.626 18.17 1.81h-.354V82.22h46.893c16.196 16.097 26.455 38.174 27.16 62.607H189.36l-12.707 13.73v6.55c-9.674.586-17.47 6.288-22.076 16.218-3.19 6.88-3.82 13.55-3.88 14.287l-.746 8.952h26.7v3.993L154.79 230.72v8.132zm72.456-85.76c-9.787 2.748-18.084 8.764-24.384 17.82-.57.823-1.108 1.644-1.61 2.456-3.683-3.447-8.957-6.597-16.35-7.8v-3.77l8.057-8.707h34.28zm-64.203 84.33v-3.31L184.9 211.95v-7.386h30.44c-12.927 16.35-31.272 28.22-52.297 32.86zm67.72-41.125h-71.847s1.79-21.502 17.732-22.91c.54-.05 1.095-.076 1.667-.076 2.434 0 4.614.25 6.586.673 15.31 3.284 17.46 17.66 17.46 17.66s5.97-27.95 31.95-31.613c1.82-.256 3.737-.4 5.76-.4.897 0 1.766.032 2.618.085 28.487 1.75 32.355 31.93 32.355 31.93s1.913-18.06 22.678-18.06c20.767 0 23.5 22.71 23.5 22.71h-90.453zm-53.896-84.452c.038.28.083.444.083.444s-.024-.155-.083-.44"/><path d="M205.96 124.66l.276-7.98c.056-1.65.052-10.178-5.64-16.08-3.192-3.31-7.47-5.06-12.368-5.062-.195 0-.382.003-.576.01-3.515.094-6.586.656-9.196 1.677-4.302-4.766-10.705-8.25-19.54-8.25-10.09 0-16.71 4.196-20.795 9.146-2.63-1.34-5.753-2.302-9.27-2.302-.152 0-.304.002-.46.006-14.124.346-19.252 12.494-19.252 20.576v8.265h96.827zm-77.372-20.578c.087-.003.173-.004.26-.004 6.967 0 12.035 6.845 12.035 6.845s2.186-13.682 18.033-13.682c14.22 0 17.44 12.12 17.95 14.61-.228-1.7-.242-7.73 11.013-8.04l.34-.002c10.197.002 9.76 12.592 9.76 12.592h-80.6s0-12.04 11.203-12.314zm62.815-71.42c0 8.617 7 15.627 15.6 15.627 2.85 0 5.51-.78 7.81-2.12L250.4 81.59c-1.4 2.342-2.22 5.068-2.22 7.99 0 8.615 7 15.624 15.603 15.624 2.95 0 5.703-.84 8.057-2.27l9.34 9.295 2.84-2.07c.353-.26 34.92-26.037 10.276-62.31-21.037-30.97-53.914-32.288-62.29-32.07L221.376 5.36c-1.19-1.194-8.996-8.22-24.183-4.052l-1.687.464-8.912 16.303 6.875 6.843c-1.31 2.285-2.07 4.924-2.07 7.74zm22.832 1.28c-.52 2.965-2.815 5.327-5.748 5.93-.478.1-.974.15-1.483.15-4.052 0-7.348-3.3-7.348-7.36 0-.49.05-.972.142-1.44.586-2.94 2.93-5.253 5.885-5.793.43-.08.87-.13 1.32-.13 4.054 0 7.35 3.3 7.35 7.36 0 .435-.044.86-.118 1.28zm56.832 56.57c-.383 3.017-2.594 5.463-5.482 6.196-.58.147-1.18.233-1.802.233-4.052 0-7.35-3.3-7.35-7.36 0-.604.083-1.192.222-1.76.715-2.9 3.147-5.123 6.154-5.53.32-.04.64-.07.97-.07 4.05 0 7.35 3.305 7.35 7.36 0 .32-.03.63-.068.935zm19.24-33.32c3.93 7.382 4.98 14.124 4.386 20.04l-6.737-6.604c.804-4.676 1.645-9.485 2.35-13.438zm-6.575-9.68c-.458 2.02-1.054 5.4-2.095 11.3-.29 1.64-.576 3.28-.84 4.8L259.57 42.8l9.236-8.457-.16-.174c5.215 3.283 10.385 7.62 15.086 13.334zm-22.56-17.37l-7.5 6.86.2.22-12.986-12.73c5.508.654 12.72 2.193 20.284 5.646zm-60.14-21.26c9.91-2.16 14.266 2.082 14.4 2.22l.02.023 76.883 75.36c-2.87 6.933-7.552 12.02-10.5 14.747l-4.3-4.28c1.178-2.2 1.85-4.706 1.85-7.37 0-8.616-6.998-15.625-15.602-15.625-2.694 0-5.23.688-7.445 1.897L220.61 40.29c1.267-2.258 1.997-4.856 1.997-7.625 0-8.615-7-15.625-15.603-15.625-2.797 0-5.42.752-7.693 2.05l-2.493-2.49 4.22-7.72z"/></g></g></svg>