<svg width="331" height="262" viewBox="0 0 331 262" xmlns="http://www.w3.org/2000/svg"><title>Path 2180 + Path 2181 + Imported Layers</title><g fill="none" fill-rule="evenodd"><path d="M63 193.93l20.2-25.795 48.626-1.876-6.578-18.76-14.33-11.02h-14.56L98 126.39 64.174 93.098l24.9-25.09 31.946-13.6L162.362 53l1.88 24.153 45.335.938 17.618 25.8 7.986 17.59 2.82 23.68-45.33 2.82-10.33 8.44-3.052 11.026-18.322 8.207-7.75 22.276 26.545 1.64.94 10.32-22.08 20.63-.234 11.49H126.9l-25.608-10.08-26.31-17.12L63 199.552v-5.627z" fill="#9BC8DB"/><path d="M114 120.762l91 .238-5.023-14.975-12.5-3.923-11.915-.475L151.148 92l-12.617 12.955-18.22-2.853-6.31 18.66z" stroke="#979797" fill="#fff"/><g fill="#000"><path d="M255.467 132.998c-.593-4.524-1.466-9.054-2.596-13.462l-7.99 2.054c1.05 4.087 1.86 8.287 2.41 12.482l8.19-1.074M55.84 88.54l-6.82-4.658c-2.57 3.77-4.93 7.734-7.026 11.774l7.33 3.803c1.94-3.75 4.13-7.43 6.515-10.92m192.83 17.94c-1.658-4.24-3.59-8.43-5.75-12.44l-7.27 3.92c2 3.72 3.79 7.6 5.324 11.52l7.684-3.01m-27.62-29.24c2.83 3.14 5.5 6.48 7.93 9.93l6.742-4.77c-2.62-3.718-5.5-7.32-8.55-10.703l-6.124 5.54m-148.51-7.8l-5.52-6.15c-3.39 3.047-6.62 6.33-9.62 9.76l6.21 5.444c2.78-3.18 5.78-6.225 8.92-9.05m20.74-14.58l-3.892-7.287c-4.01 2.148-7.93 4.564-11.658 7.183l4.74 6.77c3.455-2.43 7.092-4.67 10.81-6.66m23.613-9.178l-2.03-8.01c-4.415 1.12-8.803 2.525-13.046 4.174l2.983 7.705c3.935-1.53 8-2.83 12.09-3.87m85.03 14.882c3.494 2.372 6.88 4.983 10.064 7.76l5.42-6.235c-3.434-2.99-7.084-5.8-10.85-8.36l-4.632 6.84m-7.14-13.84c-4.05-2.09-8.265-3.95-12.54-5.53l-2.86 7.75c3.96 1.47 7.87 3.19 11.625 5.12l3.777-7.34m-52.74-4.28l-.064-8.26c-4.565.035-9.158.346-13.656.924l1.05 8.19c4.18-.54 8.44-.828 12.67-.86m27.098-5.22c-4.422-1.047-8.96-1.834-13.49-2.34l-.914 8.213c4.198.47 8.406 1.2 12.507 2.17l1.9-8.043M49.69 212.91c2.604 3.734 5.46 7.35 8.493 10.75l6.155-5.51c-2.815-3.15-5.465-6.506-7.88-9.97l-6.767 4.73m-5.12-27.137l-7.7 2.97c1.64 4.256 3.55 8.45 5.69 12.48l7.29-3.88c-1.98-3.733-3.75-7.623-5.263-11.566m23.33 47.54c3.414 3.02 7.05 5.85 10.8 8.43l4.67-6.813c-3.48-2.393-6.852-5.023-10.02-7.815l-5.46 6.2m22.54 15.49c4.045 2.11 8.25 3.99 12.51 5.59l2.9-7.735c-3.944-1.487-7.845-3.23-11.592-5.188l-3.814 7.33m122.374-22.05l5.48 6.18c3.4-3.02 6.652-6.29 9.67-9.7l-6.185-5.477c-2.8 3.17-5.816 6.2-8.968 9.005M192 241.227l3.854 7.307c4.02-2.124 7.953-4.52 11.69-7.12l-4.704-6.79c-3.467 2.41-7.115 4.63-10.843 6.604m-75.942 17.21c4.417 1.07 8.95 1.884 13.477 2.415l.97-8.21c-4.195-.49-8.4-1.247-12.493-2.24l-1.947 8.032m52.272-8.166l1.987 8.023c4.415-1.093 8.81-2.48 13.067-4.102l-2.94-7.72c-3.946 1.508-8.02 2.787-12.11 3.803m-25.16 3.095l.02 8.266c4.56-.013 9.155-.3 13.655-.85l-1.007-8.206c-4.177.52-8.44.78-12.676.79m186.247-58.053c-.09-.753-1-7.56-5.01-14.504-5.764-9.98-15.24-15.48-26.68-15.48-9.75 0-16.43 3.185-20.936 7.036-.198-.34-.4-.68-.61-1.025-3.798-6.223-10.038-13.26-19.917-17.09.114-2.11.18-4.225.18-6.33 0-.414-.003-.826-.007-1.236l-8.25.08c.004.385.006.767.006 1.15 0 1.445-.03 2.79-.09 4.11-1.512-.252-3.1-.436-4.75-.54.05-1.31.088-2.625.088-3.947-.01-55.32-44.944-100.32-100.174-100.32-45.018 0-83.19 29.895-95.77 70.902-1.358-.08-2.734-.13-4.148-.13-.49 0-.974.01-1.46.02.69-2.334 1.45-4.65 2.295-6.92l-7.738-2.89c-1.32 3.548-2.46 7.19-3.42 10.86-5.255 1.16-10.005 3.24-14.195 6.24-5.426 3.88-9.79 9.21-12.98 15.84C.78 151.677.415 161.88.39 163.007l-.187 8.446h31.57c.297 1.414.612 2.82.96 4.213l8.004-2.01c-.18-.73-.348-1.466-.515-2.202h5.756c10.743 43.8 50.28 76.39 97.28 76.39 34.09 0 64.25-17.148 82.35-43.278h6.09c-.68 1.07-1.375 2.13-2.092 3.17l6.792 4.695c1.754-2.543 3.404-5.18 4.948-7.864h89.175l-1.11-9.255zm-94.26-49.68c.014.63.026 1.264.026 1.898 0 .638-.01 1.273-.024 1.908v-3.802zM169.33 59.25c10.626 3.154 20.46 8.18 29.106 14.702H169.33v-14.7zM64.393 100.297l30.286 30.395v3.634c-3.68 1.298-7.08 3.27-10.15 5.896-1.61-3.223-3.78-6.494-6.69-9.513-5.69-5.9-13.07-9.76-22.03-11.56 2.154-6.65 5.04-12.97 8.57-18.86zM53.63 127.153c28.22 5.33 27.28 32.476 27.28 32.476s3.643-11.16 13.77-16.32c2.38-1.21 5.118-2.09 8.252-2.42.873-.09 1.77-.15 2.705-.15 18.58 0 20.218 22.43 20.218 22.43H8.64s.82-36.94 34.7-36.94c.687 0 1.358.01 2.02.03l8.27.874zm.87 44.298h22.11l-15.777 16.78c-2.63-5.32-4.76-10.93-6.334-16.77zm100.29 67.41c-3.778.48-7.627.73-11.532.73-33.012 0-62.01-17.52-78.22-43.764l22.91-24.357h46.786l-.648-8.867c-.053-.74-.622-7.4-3.955-14.24-4.98-10.23-13.68-15.86-24.49-15.86-.91 0-1.81.04-2.7.106v-5.32l-33.88-34c16.74-22.9 43.77-37.8 74.21-37.8 6.22 0 12.298.623 18.17 1.81h-.35v24.93h46.894c16.196 16.095 26.455 38.172 27.16 62.605h-45.78l-12.706 13.73v6.55c-9.674.587-17.47 6.29-22.076 16.22-3.19 6.88-3.82 13.55-3.88 14.286l-.745 8.955h26.7v3.992l-21.86 22.164v8.13zm72.456-85.76c-9.787 2.75-18.084 8.77-24.384 17.82-.57.83-1.108 1.65-1.61 2.46-3.683-3.44-8.957-6.59-16.35-7.8v-3.77l8.057-8.7h34.28zm-64.203 84.33v-3.31l21.857-22.17v-7.38h30.44c-12.927 16.35-31.272 28.22-52.297 32.86zm67.72-41.12h-71.847s1.79-21.5 17.732-22.91c.54-.05 1.095-.07 1.667-.07 2.434 0 4.614.25 6.586.672 15.31 3.285 17.46 17.66 17.46 17.66s5.97-27.95 31.95-31.612c1.82-.255 3.74-.4 5.76-.4.9 0 1.77.033 2.62.086 28.49 1.75 32.36 31.93 32.36 31.93s1.92-18.06 22.68-18.06 23.5 22.71 23.5 22.71h-90.46zm-53.896-84.45c.038.28.083.448.083.448s-.024-.155-.083-.44"/><path d="M205.96 124.66l.276-7.98c.056-1.65.052-10.178-5.64-16.08-3.192-3.31-7.47-5.06-12.368-5.062-.195 0-.382.003-.576.01-3.515.094-6.586.656-9.196 1.677-4.302-4.766-10.705-8.25-19.54-8.25-10.09 0-16.71 4.196-20.795 9.146-2.63-1.34-5.75-2.3-9.27-2.3-.15 0-.3 0-.46.01-14.12.35-19.25 12.5-19.25 20.58v8.27h96.83zm-77.372-20.578c.087-.003.173-.004.26-.004 6.967 0 12.035 6.845 12.035 6.845s2.186-13.682 18.033-13.682c14.22 0 17.44 12.12 17.95 14.61-.228-1.7-.242-7.73 11.013-8.04h.34c10.19 0 9.76 12.59 9.76 12.59h-80.6s0-12.04 11.2-12.31zm62.815-71.42c0 8.617 7 15.627 15.6 15.627 2.85 0 5.51-.78 7.81-2.12L250.4 81.59c-1.4 2.342-2.22 5.068-2.22 7.99 0 8.615 7 15.624 15.603 15.624 2.95 0 5.703-.84 8.057-2.27l9.34 9.295 2.84-2.07c.353-.26 34.92-26.04 10.276-62.31-21.037-30.97-53.914-32.29-62.29-32.07l-10.63-10.42c-1.19-1.2-8.996-8.22-24.183-4.06l-1.687.46-8.912 16.303 6.875 6.843c-1.31 2.285-2.07 4.924-2.07 7.74zm22.832 1.28c-.52 2.965-2.815 5.327-5.748 5.93-.478.1-.974.15-1.483.15-4.052 0-7.348-3.3-7.348-7.36 0-.49.05-.972.142-1.44.586-2.94 2.93-5.253 5.885-5.793.43-.08.87-.13 1.32-.13 4.054 0 7.35 3.3 7.35 7.36 0 .43-.044.86-.118 1.28zm56.832 56.57c-.383 3.017-2.594 5.463-5.482 6.196-.58.147-1.18.233-1.802.233-4.052 0-7.35-3.3-7.35-7.36 0-.6.083-1.19.222-1.76.715-2.9 3.147-5.12 6.154-5.53.32-.04.64-.07.97-.07 4.05 0 7.35 3.31 7.35 7.36 0 .32-.03.63-.07.94zm19.24-33.32c3.93 7.382 4.98 14.124 4.386 20.04l-6.737-6.604c.804-4.676 1.645-9.485 2.35-13.438zm-6.575-9.68c-.458 2.02-1.054 5.4-2.095 11.3-.29 1.64-.576 3.28-.84 4.8L259.57 42.8l9.236-8.457-.16-.174c5.215 3.28 10.385 7.62 15.086 13.33zm-22.56-17.37l-7.5 6.86.2.22-12.986-12.73c5.508.654 12.72 2.193 20.284 5.646zm-60.14-21.26c9.91-2.16 14.266 2.082 14.4 2.22l.02.023 76.883 75.36c-2.87 6.933-7.552 12.02-10.5 14.747l-4.3-4.28c1.178-2.2 1.85-4.706 1.85-7.37 0-8.616-6.998-15.625-15.602-15.625-2.694 0-5.23.688-7.445 1.897L220.61 40.29c1.267-2.258 1.997-4.856 1.997-7.625 0-8.615-7-15.625-15.603-15.625-2.797 0-5.42.752-7.693 2.05l-2.49-2.49 4.22-7.72z"/></g></g></svg>