<svg width="37" height="56" viewBox="0 0 37 56" xmlns="http://www.w3.org/2000/svg"><title>Path 2324 + ico</title><g fill="none" fill-rule="evenodd"><path d="M2.5 27.5l4-3 5.625 1 3.75 3.875 5.5.375L25 24.5l7.375 1 2 4.125-.375 23.5-30.125.75-1-15.125L2.5 27.5z" fill="#9BC8DB"/><path d="M30.497 23.084c-.06-.007-.12-.01-.18-.01h-4.86c-.643-.046-.92-.29-1.07-.47-.48-.566-.544-1.6-.525-2.108 2.317-1.955 3.828-5.142 3.828-8.734C27.69 5.828 23.568 1 18.5 1c-5.066 0-9.188 4.828-9.188 10.762 0 3.683 1.59 6.94 4.006 8.88-.03 1.67-.432 2.264-.613 2.447-.094.09-.22.18-.513.18H5.487C3.935 23.37 1 24.78 1 29.37v.032l.567 25.724h33.886L35.9 46.5l.002-.077V28.667c0-3.894-3.536-5.355-5.405-5.583zM18.5 3.96c2.904 0 5.35 2.498 6.04 5.866-.043-.003-.086-.006-.13-.006h-4.094l.333-1.62c.12-.603-.14-1.22-.66-1.55-.52-.33-1.19-.303-1.68.067L14.25 9.77c-.746.052-1.49.066-1.785.03.697-3.354 3.137-5.84 6.033-5.84zm-6.18 8.795c.233.02.486.028.748.028.62 0 1.29-.045 1.864-.097.274-.025.535-.126.754-.29l1.34-1.008c.018.307.13.604.33.847.28.346.7.546 1.145.546h5.91c.1 0 .19-.01.28-.02-.392 3.836-3.013 6.81-6.18 6.81-3.17 0-5.79-2.974-6.182-6.807zm6.18 9.768c.88 0 1.73-.146 2.536-.417.152.785.463 1.66 1.08 2.396.25.3.537.557.855.772-.08.42-.29 1.022-.78 1.542-.8.842-2.14 1.27-3.98 1.27-2.135 0-3.63-.556-4.445-1.653-.104-.14-.19-.28-.262-.42.495-.177.94-.46 1.317-.845.69-.7 1.137-1.707 1.34-3.002.75.232 1.54.357 2.35.357zm14.446 23.86l-.3 5.782h-3.153V33.28c0-.817-.662-1.48-1.478-1.48-.817 0-1.478.663-1.478 1.48v18.885H10.065V39c0-.818-.662-1.48-1.478-1.48S7.11 38.18 7.11 39v13.165H4.46l-.504-22.812c.005-2.663 1.345-3.06 1.714-3.118h4.737c.157.53.415 1.154.843 1.777.95 1.385 2.926 3.035 6.95 3.035 2.682 0 4.742-.737 6.123-2.19.9-.946 1.317-1.998 1.508-2.823h4.38c.52.085 2.74.57 2.74 2.633v17.717z" stroke="#181717" stroke-width=".5" fill="#181717"/></g></svg>