<svg width="244" height="194" viewBox="0 0 244 194" xmlns="http://www.w3.org/2000/svg"><title>telefono ilustracion</title><g fill="none" fill-rule="evenodd"><path d="M28 125.522L79.375 68s85.815.288 87.537.288c1.722 0 51.088 56.946 51.088 56.946l-.287 48.318s.86 17.544-15.21 16.394c-16.074-1.15-165.032-.288-165.032-.288S28 181.893 28 171.538v-46.016z" fill="#9BC8DB"/><ellipse fill="#fff" cx="124" cy="97" rx="8" ry="9"/><ellipse fill="#fff" cx="91" cy="97" rx="8" ry="9"/><ellipse fill="#fff" cx="153" cy="97" rx="8" ry="9"/><ellipse fill="#fff" cx="153" cy="134" rx="8" ry="9"/><ellipse fill="#fff" cx="125" cy="134" rx="8" ry="9"/><ellipse fill="#fff" cx="90" cy="133" rx="8" ry="9"/><ellipse fill="#fff" cx="90" cy="167" rx="8" ry="9"/><ellipse fill="#fff" cx="124" cy="167" rx="8" ry="9"/><ellipse fill="#fff" cx="157" cy="167" rx="8" ry="9"/><path d="M91.5 91.422c2.8 0 5.077 2.278 5.077 5.077 0 2.8-2.278 5.07-5.077 5.07-2.8 0-5.077-2.28-5.077-5.08s2.277-5.077 5.077-5.077m0-7.423C84.596 84 79 89.598 79 96.5S84.596 109 91.5 109c6.903 0 12.5-5.597 12.5-12.5 0-6.904-5.597-12.5-12.5-12.5m32 7.422c2.8 0 5.077 2.278 5.077 5.077 0 2.8-2.277 5.07-5.077 5.07s-5.077-2.28-5.077-5.08 2.277-5.077 5.077-5.077m0-7.423c-6.903 0-12.5 5.597-12.5 12.5 0 6.904 5.597 12.5 12.5 12.5s12.5-5.596 12.5-12.5c0-6.903-5.597-12.5-12.5-12.5m31 7.426c2.8 0 5.077 2.277 5.077 5.076 0 2.8-2.277 5.075-5.077 5.075s-5.077-2.278-5.077-5.078 2.277-5.08 5.077-5.08m0-7.423c-6.903 0-12.5 5.596-12.5 12.5 0 6.903 5.597 12.5 12.5 12.5 6.904 0 12.5-5.597 12.5-12.5 0-6.904-5.596-12.5-12.5-12.5m-63 42.426c2.8 0 5.077 2.276 5.077 5.076s-2.277 5.08-5.077 5.08-5.077-2.277-5.077-5.077 2.277-5.077 5.077-5.077m0-7.424c-6.904 0-12.5 5.597-12.5 12.5S84.596 144 91.5 144c6.903 0 12.5-5.597 12.5-12.5S98.403 119 91.5 119m32 7.423c2.8 0 5.077 2.277 5.077 5.077s-2.277 5.077-5.077 5.077-5.077-2.277-5.077-5.077 2.277-5.077 5.077-5.077m0-7.423c-6.903 0-12.5 5.597-12.5 12.5s5.597 12.5 12.5 12.5 12.5-5.597 12.5-12.5-5.597-12.5-12.5-12.5m31 7.423c2.8 0 5.077 2.277 5.077 5.077s-2.277 5.077-5.077 5.077-5.077-2.277-5.077-5.077 2.277-5.077 5.077-5.077m0-7.423c-6.903 0-12.5 5.597-12.5 12.5s5.597 12.5 12.5 12.5c6.904 0 12.5-5.597 12.5-12.5s-5.596-12.5-12.5-12.5m-63 41.423c2.8 0 5.077 2.277 5.077 5.077s-2.278 5.077-5.077 5.077c-2.8 0-5.077-2.278-5.077-5.077 0-2.8 2.277-5.077 5.077-5.077m0-7.423c-6.904 0-12.5 5.596-12.5 12.5 0 6.903 5.596 12.5 12.5 12.5 6.903 0 12.5-5.597 12.5-12.5 0-6.904-5.597-12.5-12.5-12.5m32 7.423c2.8 0 5.077 2.277 5.077 5.077s-2.277 5.077-5.077 5.077-5.077-2.278-5.077-5.077c0-2.8 2.277-5.077 5.077-5.077m0-7.423c-6.903 0-12.5 5.596-12.5 12.5 0 6.903 5.597 12.5 12.5 12.5s12.5-5.597 12.5-12.5c0-6.904-5.597-12.5-12.5-12.5m31 7.423c2.8 0 5.077 2.277 5.077 5.077s-2.277 5.077-5.077 5.077-5.077-2.278-5.077-5.077c0-2.8 2.277-5.077 5.077-5.077m0-7.423c-6.903 0-12.5 5.596-12.5 12.5 0 6.903 5.597 12.5 12.5 12.5 6.904 0 12.5-5.597 12.5-12.5 0-6.904-5.596-12.5-12.5-12.5" fill="#000"/><path d="M124 194H42.9c-5.78 0-10.426-1.74-13.806-5.176-5.082-5.162-5.11-12.052-5.095-12.82v-53.07L77.61 63H124v9.314H81.79l-48.454 54.174v49.598c0 .063.02 2.472 1.277 4.685 1.498 2.64 4.21 3.92 8.292 3.92H124V194zm81.097 0H124v-9.314h81.097c3.183 0 5.588-.803 7.148-2.388 2.38-2.417 2.423-6.093 2.422-6.13v-49.68L166.21 72.314H124V63h46.39L224 122.935v53.15c.01.687-.015 7.577-5.097 12.74-3.38 3.434-8.026 5.175-13.806 5.175zm-.165-119.21l6.934-6.21 2.213 2.48c1.24-.36 2.9-.93 4.72-1.808l4.02 8.405C219.43 79.29 212.25 83 212.25 83l-7.318-8.21zM35.867 78.693l-6.936-6.21 9.92-11.12 6.938 6.208-9.913 11.13zm-19.552-4c-4.803-3.29-8.623-7.518-11.357-12.57l8.175-4.444c2.022 3.73 4.858 6.87 8.428 9.31l-5.24 7.696zm219.718-7.548l-7.318-5.753c2.534-3.237 4.32-7.123 5.31-11.55l9.076 2.042c-1.29 5.79-3.67 10.925-7.06 15.262zm-41.015-3.476l-9.914-11.13 6.935-6.21 9.91 11.122-6.94 6.21zM55.694 56.45l-6.935-6.21 9.91-11.123 6.93 6.21-9.91 11.123zM.264 46.164C.09 44.397 0 42.55 0 40.674c0-3.832.45-7.51 1.333-10.924l9 2.342c-.685 2.65-1.033 5.54-1.033 8.584 0 1.568.073 3.104.218 4.566l-9.254.923zM162.83 35.778h14.88V45.1h-14.88v-9.322zm-29.76 0h14.88V45.1h-14.88v-9.322zm-27.086 0h14.88V45.1h-14.88v-9.322zm-29.76 0h14.88V45.1h-14.88v-9.322zm158.533.79c-.496-4.485-1.85-8.536-4.03-12.045l7.9-4.922c2.915 4.7 4.723 10.07 5.373 15.94l-9.243 1.03zM16.2 20.95l-6.98-6.156c3.515-4.007 7.984-7.367 13.278-9.984l4.114 8.36c-4.198 2.076-7.7 4.693-10.41 7.78zm205.515-5.47c-4.475-2.938-9.127-4.55-12.24-5.385l2.4-9.004c3.773 1.01 9.427 2.98 14.935 6.6l-5.095 7.798zM180.99 0h14.88v9.322h-14.88V0zm-29.76 0h14.88v9.322h-14.88V0zm-29.76 0h14.88v9.322h-14.88V0zM98.268 0h14.88v9.322h-14.88V0zm-29.76 0h14.88v9.322h-14.88V0zm-29.76 0h14.88v9.322h-14.88V0z" fill="#000"/></g></svg>