<svg width="39" height="68" viewBox="0 0 39 68" xmlns="http://www.w3.org/2000/svg" xmlns:xlink="http://www.w3.org/1999/xlink"><title>Page 1 Copy 2</title><defs><path id="a" d="M0 71.974h46.958V0H0z"/></defs><g transform="translate(-2 -4)" fill="none" fill-rule="evenodd"><path d="M21.577 5.97c-3.992 0-7.24 3.838-7.24 8.555 0 4.718 3.248 8.556 7.24 8.556 3.993 0 7.242-3.834 7.242-8.552 0-4.717-3.25-8.555-7.246-8.555zm0 19.074c-5.088 0-9.226-4.718-9.226-10.52 0-5.8 4.14-10.517 9.23-10.517s9.228 4.718 9.228 10.518c0 5.8-4.14 10.52-9.228 10.52z" fill="#231F20"/><path d="M6.41 55.293c-.91 0-1.714-.28-2.35-.824-1.35-1.16-1.483-3.058-1.494-3.27V33.24c0-2.856 2.178-5.18 4.857-5.18h5.425c1.74 0 3.054-1.183 3.054-2.752v-2.35h1.985v2.35c0 2.644-2.213 4.716-5.04 4.716H7.424c-1.557 0-2.872 1.472-2.872 3.215v17.91c.02.296.21 1.322.816 1.835.32.27.74.384 1.28.33l19.436-1.806-.32-4.383-12.8 1.05h-.01c-2.053 0-2.873-1.477-2.943-2.47v-5.203h1.986v5.136c.046.355.346.578.885.578l14.72-1.21.604 8.28-21.37 1.984c-.143.014-.285.02-.423.02m30.22 3.18c-.136 0-.28-.008-.42-.02l-4.29-.412.19-1.953 4.288.41c.533.048.96-.06 1.282-.335.712-.613.81-1.87.81-1.883V33.24c0-1.744-1.318-3.216-2.875-3.216H30.19c-2.825 0-5.04-2.072-5.04-4.716v-2.35h1.987v2.35c0 1.57 1.313 2.753 3.054 2.753h5.428c2.68 0 4.858 2.327 4.858 5.18v21.09c-.013.264-.146 2.16-1.496 3.317-.637.544-1.443.826-2.35.826" fill="#231F20"/><path fill="#231F20" d="M28.31 57.694L13.28 56.26l.2-2.73 1.98.14-.06.82 13.102 1.25m1.088-2.36c-1.205 0-2.337-.464-3.19-1.306l1.404-1.388c.477.472 1.112.732 1.787.732 1.397 0 2.53-1.12 2.53-2.498 0-1.377-1.133-2.498-2.526-2.498-.807 0-1.573.387-2.047 1.035l-1.608-1.153c.845-1.154 2.212-1.845 3.655-1.845 2.49 0 4.513 2 4.513 4.46s-2.024 4.46-4.512 4.46"/><path d="M11.897 57.793c-2.488 0-4.513-2-4.513-4.46H9.37c0 1.377 1.133 2.497 2.527 2.497.675 0 1.31-.26 1.786-.73l1.404 1.387c-.852.842-1.985 1.306-3.19 1.306" fill="#231F20"/><mask id="b" fill="#fff"><use xlink:href="#a"/></mask><path d="M20.584 33.51h1.986v-3.926h-1.986v3.926zm0 5.888h1.986v-3.926h-1.986v3.926zm0 5.89h1.986V41.36h-1.986v3.927zm0 14.928h1.986V56.29h-1.986v3.926zm0 5.888h1.986V62.18h-1.986v3.924zm0 5.89h1.986v-3.927h-1.986v3.926zm-9.682 45.258h-2.29V56.18H10.6v59.11h.302m23.538 1.962h-2.31v-1.963h.324V56.924h1.986m-20.883-41.14l-.328-1.936c.724-.12 1.52-.42 2.35-.9 1.46-.837 3.464-1.49 5.404-2.124 2.497-.815 5.327-1.74 6.176-2.892l1.607 1.153c-1.225 1.666-4.108 2.607-7.16 3.602-1.844.6-3.75 1.222-5.034 1.96-1.038.593-2.054.976-3.02 1.136" fill="#231F20" mask="url(#b)"/><path d="M30.208 61.322h-.006c-1.54-.003-2.792-1.245-2.79-2.768l.994-.167-.993-.002.01-6.19 1.987.003-.01 6.36c0 .21.083.412.236.564.153.153.356.237.57.237h.002c.446 0 .81-.36.81-.8l.993-.17h-.99l.014-6.96 1.986.003-.013 7.13c-.003 1.52-1.257 2.757-2.796 2.757m1.825-13.915h-.002c-.546 0-.99-.44-.99-.984l.008-3.735c0-.416.268-.786.665-.924 1.766-.614 2.954-2.267 2.957-4.116 0-.825-.225-1.61-.64-2.282l.005 1.948c0 .367-.206.703-.536.873l-2.775 1.428c-.287.15-.63.15-.918 0l-2.77-1.438c-.327-.17-.532-.504-.533-.868l-.006-1.98c-.43.678-.665 1.47-.667 2.31-.003 1.85 1.18 3.506 2.94 4.124.398.14.663.51.66.927l-.005 2.96c0 .54-.445.98-.993.98-.55 0-.992-.44-.99-.985l.004-2.306c-2.184-1.053-3.605-3.264-3.6-5.705.004-2.216 1.205-4.297 3.132-5.43.307-.18.688-.187.998-.013.31.175.502.5.503.852l.01 3.67 1.78.924 1.78-.916-.01-3.665c0-.355.19-.682.502-.856.31-.177.693-.17 1 .01 1.925 1.142 3.118 3.227 3.114 5.444-.004 2.44-1.434 4.647-3.62 5.69l-.007 3.087c0 .542-.446.98-.994.98M21.58 31.227c-2.493 0-4.8-1.23-6.17-3.29l1.66-1.08c1.002 1.508 2.69 2.407 4.51 2.407 1.943 0 3.746-1.04 4.702-2.715l1.73.963c-1.308 2.29-3.773 3.714-6.433 3.714" fill="#231F20" mask="url(#b)"/></g></svg>