<svg width="19" height="20" viewBox="0 0 19 20" xmlns="http://www.w3.org/2000/svg"><title>Path 270 + Imported Layers</title><path d="M9.5 9V2m5.52 3c.69.702 1.25 1.538 1.635 2.466.386.928.6 1.95.6 3.02s-.214 2.09-.6 3.02c-.386.928-.944 1.763-1.635 2.465-.69.71-1.51 1.27-2.424 1.67-.912.394-1.916.61-2.97.61-1.052 0-2.055-.216-2.968-.61-.912-.392-1.734-.96-2.424-1.662-.69-.7-1.25-1.536-1.635-2.465-.39-.93-.6-1.95-.6-3.02s.21-2.09.6-3.02c.38-.927.94-1.763 1.63-2.465" stroke-linecap="round" stroke="#fff" stroke-width="3" fill="none" fill-rule="evenodd"/></svg>