<svg xmlns="http://www.w3.org/2000/svg" viewBox="0 0 66.8 66.5"><path fill="#fff" d="M33.4 5.9C18.3 5.9 6.1 18.1 6.1 33.2c0 15.1 12.2 27.3 27.3 27.3 15.1 0 27.3-12.2 27.3-27.3 0-15.1-12.2-27.3-27.3-27.3zm11.9 22.4v.8c0 8.1-6.2 17.5-17.5 17.5-3.5 0-6.7-1-9.4-2.8.5.1 1 .1 1.5.1 2.9 0 5.5-1 7.6-2.6-2.7 0-5-1.8-5.7-4.3.4.1.8.1 1.2.1.6 0 1.1-.1 1.6-.2-2.8-.6-4.9-3-4.9-6v-.1c.8.5 1.8.7 2.8.8-1.6-1.1-2.7-3-2.7-5.1 0-1.1.3-2.2.8-3.1 3 3.7 7.6 6.2 12.7 6.4-.1-.5-.2-.9-.2-1.4 0-3.4 2.8-6.1 6.1-6.1 1.8 0 3.4.7 4.5 1.9 1.4-.3 2.7-.8 3.9-1.5-.5 1.4-1.4 2.6-2.7 3.4 1.2-.1 2.4-.5 3.5-1-.8 1.2-1.9 2.3-3.1 3.2z"/></svg>