<svg width="16" height="13" viewBox="0 0 16 13" xmlns="http://www.w3.org/2000/svg"><title>Fill 1</title><path d="M16 1.562c-.27.15-1.078.446-1.832.52.483-.26 1.2-1.114 1.376-1.793-.465.29-1.532.73-2.06.73C12.884.39 12.04 0 11.1 0 9.275 0 7.797 1.478 7.797 3.3c0 .254.03.5.085.736C5.408 3.973 2.518 2.733.89.612c-1 1.733-.135 3.66 1 4.36C1.504 5.002.787 4.93.45 4.6.425 5.75.98 7.273 2.994 7.825c-.39.21-1.074.15-1.374.105.107.97 1.466 2.24 2.95 2.24-.528.612-2.335 1.725-4.57 1.37C1.518 12.465 3.29 13 5.163 13c5.325 0 9.46-4.315 9.238-9.64v-.11c.49-.33 1.14-.915 1.6-1.688" fill="#fff" fill-rule="evenodd"/></svg>