<svg xmlns="http://www.w3.org/2000/svg" viewBox="0 0 66.8 66.5"><path d="M34 29.6c.2 0 .4-.1.5-.2.1-.1.2-.3.2-.5v-4.2c0-.2-.1-.3-.2-.4-.1-.1-.3-.2-.5-.2s-.3.1-.5.2c-.1.1-.2.2-.2.4v4.2c0 .2.1.4.2.5.1.1.3.2.5.2zm3.5 7.7c-.2 0-.4.1-.6.2-.2.1-.4.3-.6.5v-3.1h-1.4v9.5h1.4v-.5c.2.2.4.4.6.5.2.1.5.2.7.2.4 0 .7-.1 1-.4.2-.3.3-.6.3-1.1v-3.9c0-.6-.1-1-.3-1.3-.3-.4-.6-.6-1.1-.6zm-.1 5.5c0 .2 0 .4-.1.5-.1.1-.2.2-.4.2-.1 0-.2 0-.3-.1-.1 0-.2-.1-.3-.2v-4.4c.1-.1.2-.2.3-.2.1 0 .2-.1.3-.1.2 0 .3.1.4.2.1.1.1.3.1.5v3.6zm-13.1-6.5h1.6v8.1h1.6v-8.1h1.7v-1.4h-4.9zm8.1 6.5c-.1.2-.3.3-.4.4-.2.1-.3.1-.4.1-.1 0-.2 0-.3-.1-.1-.1-.1-.2-.1-.4v-5.4h-1.4v5.9c0 .4.1.7.2.9.2.2.4.3.7.3.3 0 .5-.1.8-.2.3-.1.6-.4.8-.7v.8h1.4v-7h-1.4v5.4zM34.3 6C18.9 6 6.5 18.5 6.5 33.8s12.4 27.7 27.7 27.7C49.6 61.5 62 49.1 62 33.8 62 18.5 49.6 6 34.3 6zm3.3 17h1.6v5.9c0 .2 0 .3.1.4.1.1.2.1.3.1.1 0 .3-.1.4-.2.2-.1.3-.2.5-.4V23h1.6v7.7h-1.6v-.9c-.3.3-.6.6-.9.7-.3.2-.6.3-.9.3-.4 0-.6-.1-.8-.4-.2-.2-.3-.6-.3-1V23zm-5.9 1.7c0-.6.2-1.1.6-1.4.4-.4 1-.5 1.7-.5s1.2.2 1.6.6c.4.4.6.9.6 1.4v4c0 .7-.2 1.2-.6 1.6-.4.4-1 .6-1.7.6s-1.2-.2-1.7-.6c-.4-.4-.6-.9-.6-1.6v-4.1zm-4.3-4.5l1.2 4.2h.1l1.1-4.2h1.8l-2.1 6.1v4.3h-1.8v-4.2l-2.1-6.3h1.8zm20.7 22.1c0 2.8-2.3 5.1-5.1 5.1H25.5c-2.8 0-5.1-2.3-5.1-5.1v-4.1c0-2.8 2.3-5.1 5.1-5.1h17.6c2.8 0 5.1 2.3 5.1 5.1v4.1zm-6.4-5c-.6 0-1.1.2-1.5.6-.4.4-.6.9-.6 1.5v3.2c0 .7.2 1.2.5 1.6.4.4.9.6 1.5.6.7 0 1.2-.2 1.6-.5.4-.4.5-.9.5-1.6v-.4h-1.4v.3c0 .4 0 .7-.1.8-.1.1-.3.2-.5.2s-.4-.1-.5-.2c-.1-.1-.1-.4-.1-.8v-1.3h2.7v-1.8c0-.7-.2-1.2-.5-1.5-.4-.6-.9-.7-1.6-.7zm.6 2.7h-1.2v-.7c0-.3 0-.5.1-.6.1-.1.3-.2.5-.2s.4.1.5.2c.1.1.1.3.1.6v.7z" fill="#fff"/></svg>