<svg width="54" height="36" viewBox="0 0 54 36" xmlns="http://www.w3.org/2000/svg"><title>ico</title><path d="M45.14 19.07c-.376-2.736-1.665-12.08-2.087-14.264C42.49 1.89 39.93 1.042 38.655 1h-5.7v3.025h5.62c.155.01 1.274.12 1.513 1.356.03.16.066.36.106.59-1.252-.13-3.35-.16-4.742.85-.762.56-1.225 1.35-1.34 2.29-.297 2.46-2.023 13.02-2.225 14.26-.115.31-.704 1.63-2.355 1.68-1.01.03-4.23.04-8.025.04.404-1.224.704-2.826 1.06-4.725.187-.994.38-2.023.58-2.893.407-1.753-.127-2.92-.646-3.586-1.32-1.71-3.77-1.81-4.05-1.82-.39 0-9.65-.16-13.02.09-1.54.11-2.72.654-3.51 1.61C.9 15 1 16.446 1.02 16.71c.007.04.407 3.97.64 7.06.138 1.75.66 3 1.56 3.71.3.24.597.384.87.47C4.53 31.91 7.9 35 11.98 35c4.024 0 7.357-3.01 7.878-6.902h1.96c3.68 0 6.78-.008 7.795-.036 3.226-.087 4.807-2.594 5.193-3.908.017-.06.03-.12.04-.182.08-.482 1.942-11.84 2.265-14.502.02-.11.04-.145.12-.2.59-.43 2.32-.388 3.33-.19.04.007.09.012.13.016.55 3.694 1.25 8.782 1.49 10.517-2.962 1.16-5.07 4.048-5.07 7.42C37.1 31.427 40.67 35 45.05 35c4.385 0 7.95-3.573 7.95-7.966 0-4.36-3.516-7.914-7.86-7.963zM12.002 31C9.55 31 7.492 29.712 7 28c2.338.006 6.13.014 10 .018C16.496 29.72 14.447 31 12.003 31zm8.928-14.258c-.225.928-.433 1.982-.634 3.002-.324 1.648-.86 4.36-1.33 5.072-.105.052-.202.114-.29.184-6.253-.008-12.72-.03-13.61-.033-.097-.14-.308-.543-.386-1.5-.25-3.114-.672-7.063-.677-7.102 0-.01-.002-.018-.003-.027 0-.004-.01-.403.24-.693.316-.365.97-.482 1.466-.516 3.382-.24 13.232-.08 13.325-.08.35 0 1.43.17 1.81.64.07.08.27.32.1 1.04zM45 32c-2.757 0-5-2.243-5-5s2.243-5 5-5 5 2.243 5 5-2.243 5-5 5z" stroke="#181717" fill="#181717" fill-rule="evenodd"/></svg>